<?xml version="1.0" encoding="UTF-8" standalone="no"?>
<!DOCTYPE svg PUBLIC "-//W3C//DTD SVG 1.1//EN"
 "http://www.w3.org/Graphics/SVG/1.1/DTD/svg11.dtd">
<!-- Generated by graphviz version 2.38.0 (20140413.2041)
 -->
<!-- Title: %3 Pages: 1 -->
<svg width="269pt" height="236pt"
 viewBox="0.00 0.00 269.00 236.00" xmlns="http://www.w3.org/2000/svg" xmlns:xlink="http://www.w3.org/1999/xlink">
<g id="graph0" class="graph" transform="scale(1 1) rotate(0) translate(4 232)">
<title>%3</title>
<polygon fill="white" stroke="none" points="-4,4 -4,-232 265,-232 265,4 -4,4"/>
<!-- [Function]\nDouble -->
<g id="node1" class="node"><title>[Function]\nDouble</title>
<polygon fill="none" stroke="black" points="156,-228 88,-228 88,-198 156,-198 156,-228"/>
<text text-anchor="middle" x="122" y="-216" font-family="Verdana" font-size="10.00">[Function]</text>
<text text-anchor="middle" x="122" y="-205" font-family="Verdana" font-size="10.00">Double</text>
</g>
<!-- [Parameter]\namount -->
<g id="node2" class="node"><title>[Parameter]\namount</title>
<polygon fill="none" stroke="black" points="76,-162 0,-162 0,-132 76,-132 76,-162"/>
<text text-anchor="middle" x="38" y="-150" font-family="Verdana" font-size="10.00">[Parameter]</text>
<text text-anchor="middle" x="38" y="-139" font-family="Verdana" font-size="10.00">amount</text>
</g>
<!-- [Function]\nDouble&#45;&gt;[Parameter]\namount -->
<g id="edge1" class="edge"><title>[Function]\nDouble&#45;&gt;[Parameter]\namount</title>
<path fill="none" stroke="black" d="M103.358,-197.796C92.0475,-189.179 77.4238,-178.037 64.8777,-168.478"/>
<polygon fill="black" stroke="black" points="66.6657,-165.44 56.5902,-162.164 62.4234,-171.008 66.6657,-165.44"/>
</g>
<!-- [Type]\nInteger  -->
<g id="node4" class="node"><title>[Type]\nInteger </title>
<polygon fill="none" stroke="black" points="150,-162 94,-162 94,-132 150,-132 150,-162"/>
<text text-anchor="middle" x="122" y="-150" font-family="Verdana" font-size="10.00">[Type]</text>
<text text-anchor="middle" x="122" y="-139" font-family="Verdana" font-size="10.00">Integer </text>
</g>
<!-- [Function]\nDouble&#45;&gt;[Type]\nInteger  -->
<g id="edge3" class="edge"><title>[Function]\nDouble&#45;&gt;[Type]\nInteger </title>
<path fill="none" stroke="black" d="M122,-197.796C122,-190.339 122,-180.991 122,-172.415"/>
<polygon fill="black" stroke="black" points="125.5,-172.164 122,-162.164 118.5,-172.164 125.5,-172.164"/>
</g>
<!-- [Return] -->
<g id="node5" class="node"><title>[Return]</title>
<polygon fill="none" stroke="black" points="226,-156.5 168,-156.5 168,-137.5 226,-137.5 226,-156.5"/>
<text text-anchor="middle" x="197" y="-144.5" font-family="Verdana" font-size="10.00">[Return]</text>
</g>
<!-- [Function]\nDouble&#45;&gt;[Return] -->
<g id="edge4" class="edge"><title>[Function]\nDouble&#45;&gt;[Return]</title>
<path fill="none" stroke="black" d="M138.645,-197.796C150.567,-187.623 166.612,-173.931 178.86,-163.48"/>
<polygon fill="black" stroke="black" points="181.301,-165.998 186.636,-156.844 176.757,-160.673 181.301,-165.998"/>
</g>
<!-- [Type]\nInteger -->
<g id="node3" class="node"><title>[Type]\nInteger</title>
<polygon fill="none" stroke="black" points="65,-96 11,-96 11,-66 65,-66 65,-96"/>
<text text-anchor="middle" x="38" y="-84" font-family="Verdana" font-size="10.00">[Type]</text>
<text text-anchor="middle" x="38" y="-73" font-family="Verdana" font-size="10.00">Integer</text>
</g>
<!-- [Parameter]\namount&#45;&gt;[Type]\nInteger -->
<g id="edge2" class="edge"><title>[Parameter]\namount&#45;&gt;[Type]\nInteger</title>
<path fill="none" stroke="black" d="M38,-131.796C38,-124.339 38,-114.991 38,-106.415"/>
<polygon fill="black" stroke="black" points="41.5001,-106.164 38,-96.164 34.5001,-106.164 41.5001,-106.164"/>
</g>
<!-- [Binary]\n* -->
<g id="node6" class="node"><title>[Binary]\n*</title>
<polygon fill="none" stroke="black" points="225,-96 169,-96 169,-66 225,-66 225,-96"/>
<text text-anchor="middle" x="197" y="-84" font-family="Verdana" font-size="10.00">[Binary]</text>
<text text-anchor="middle" x="197" y="-73" font-family="Verdana" font-size="10.00">*</text>
</g>
<!-- [Return]&#45;&gt;[Binary]\n* -->
<g id="edge5" class="edge"><title>[Return]&#45;&gt;[Binary]\n*</title>
<path fill="none" stroke="black" d="M197,-137.369C197,-129.487 197,-117.447 197,-106.605"/>
<polygon fill="black" stroke="black" points="200.5,-106.36 197,-96.3604 193.5,-106.36 200.5,-106.36"/>
</g>
<!-- [Name]\nvalue -->
<g id="node7" class="node"><title>[Name]\nvalue</title>
<polygon fill="none" stroke="black" points="187,-30 133,-30 133,-0 187,-0 187,-30"/>
<text text-anchor="middle" x="160" y="-18" font-family="Verdana" font-size="10.00">[Name]</text>
<text text-anchor="middle" x="160" y="-7" font-family="Verdana" font-size="10.00">value</text>
</g>
<!-- [Binary]\n*&#45;&gt;[Name]\nvalue -->
<g id="edge6" class="edge"><title>[Binary]\n*&#45;&gt;[Name]\nvalue</title>
<path fill="none" stroke="black" d="M188.789,-65.7963C184.238,-57.9248 178.469,-47.9467 173.293,-38.9928"/>
<polygon fill="black" stroke="black" points="176.224,-37.0696 168.189,-30.164 170.164,-40.5731 176.224,-37.0696"/>
</g>
<!-- [Literal]\n2 -->
<g id="node8" class="node"><title>[Literal]\n2</title>
<polygon fill="none" stroke="black" points="261,-30 205,-30 205,-0 261,-0 261,-30"/>
<text text-anchor="middle" x="233" y="-18" font-family="Verdana" font-size="10.00">[Literal]</text>
<text text-anchor="middle" x="233" y="-7" font-family="Verdana" font-size="10.00">2</text>
</g>
<!-- [Binary]\n*&#45;&gt;[Literal]\n2 -->
<g id="edge7" class="edge"><title>[Binary]\n*&#45;&gt;[Literal]\n2</title>
<path fill="none" stroke="black" d="M204.99,-65.7963C209.417,-57.9248 215.03,-47.9467 220.067,-38.9928"/>
<polygon fill="black" stroke="black" points="223.181,-40.5957 225.033,-30.164 217.08,-37.1638 223.181,-40.5957"/>
</g>
</g>
</svg>
