<?xml version="1.0" encoding="UTF-8" standalone="no"?>
<!DOCTYPE svg PUBLIC "-//W3C//DTD SVG 1.1//EN"
 "http://www.w3.org/Graphics/SVG/1.1/DTD/svg11.dtd">
<!-- Generated by graphviz version 2.38.0 (20140413.2041)
 -->
<!-- Title: %3 Pages: 1 -->
<svg width="422pt" height="247pt"
 viewBox="0.00 0.00 422.00 247.00" xmlns="http://www.w3.org/2000/svg" xmlns:xlink="http://www.w3.org/1999/xlink">
<g id="graph0" class="graph" transform="scale(1 1) rotate(0) translate(4 243)">
<title>%3</title>
<polygon fill="white" stroke="none" points="-4,4 -4,-243 418,-243 418,4 -4,4"/>
<!-- t00 -->
<g id="node1" class="node"><title>t00</title>
<polygon fill="none" stroke="black" points="108,-184 54,-184 54,-165 108,-165 108,-184"/>
<text text-anchor="middle" x="81" y="-172" font-family="Verdana" font-size="10.00">a</text>
</g>
<!-- t01 -->
<g id="node2" class="node"><title>t01</title>
<polygon fill="none" stroke="black" points="144,-239 90,-239 90,-220 144,-220 144,-239"/>
<text text-anchor="middle" x="117" y="-227" font-family="Verdana" font-size="10.00">=</text>
</g>
<!-- t01&#45;&gt;t00 -->
<g id="edge1" class="edge"><title>t01&#45;&gt;t00</title>
<path fill="none" stroke="black" d="M111.055,-219.748C106.023,-212.339 98.6632,-201.504 92.4865,-192.411"/>
<polygon fill="black" stroke="black" points="95.3482,-190.395 86.8341,-184.089 89.5577,-194.328 95.3482,-190.395"/>
</g>
<!-- t07 -->
<g id="node8" class="node"><title>t07</title>
<polygon fill="none" stroke="black" points="180,-184 126,-184 126,-165 180,-165 180,-184"/>
<text text-anchor="middle" x="153" y="-172" font-family="Verdana" font-size="10.00">+</text>
</g>
<!-- t01&#45;&gt;t07 -->
<g id="edge2" class="edge"><title>t01&#45;&gt;t07</title>
<path fill="none" stroke="black" d="M122.945,-219.748C127.977,-212.339 135.337,-201.504 141.513,-192.411"/>
<polygon fill="black" stroke="black" points="144.442,-194.328 147.166,-184.089 138.652,-190.395 144.442,-194.328"/>
</g>
<!-- t02 -->
<g id="node3" class="node"><title>t02</title>
<polygon fill="none" stroke="black" points="54,-74 0,-74 0,-55 54,-55 54,-74"/>
<text text-anchor="middle" x="27" y="-62" font-family="Verdana" font-size="10.00">5</text>
</g>
<!-- t03 -->
<g id="node4" class="node"><title>t03</title>
<polygon fill="none" stroke="black" points="126,-129 72,-129 72,-110 126,-110 126,-129"/>
<text text-anchor="middle" x="99" y="-117" font-family="Verdana" font-size="10.00">+</text>
</g>
<!-- t03&#45;&gt;t02 -->
<g id="edge4" class="edge"><title>t03&#45;&gt;t02</title>
<path fill="none" stroke="black" d="M87.432,-109.985C76.5798,-101.996 60.1193,-89.8795 47.1166,-80.308"/>
<polygon fill="black" stroke="black" points="48.9068,-77.2798 38.7785,-74.1703 44.757,-82.9172 48.9068,-77.2798"/>
</g>
<!-- t05 -->
<g id="node6" class="node"><title>t05</title>
<polygon fill="none" stroke="black" points="126,-74 72,-74 72,-55 126,-55 126,-74"/>
<text text-anchor="middle" x="99" y="-62" font-family="Verdana" font-size="10.00">*</text>
</g>
<!-- t03&#45;&gt;t05 -->
<g id="edge5" class="edge"><title>t03&#45;&gt;t05</title>
<path fill="none" stroke="black" d="M99,-109.748C99,-102.802 99,-92.8451 99,-84.1349"/>
<polygon fill="black" stroke="black" points="102.5,-84.089 99,-74.089 95.5001,-84.0891 102.5,-84.089"/>
</g>
<!-- t04 -->
<g id="node5" class="node"><title>t04</title>
<polygon fill="none" stroke="black" points="54,-19 0,-19 0,-0 54,-0 54,-19"/>
<text text-anchor="middle" x="27" y="-7" font-family="Verdana" font-size="10.00">9</text>
</g>
<!-- t05&#45;&gt;t04 -->
<g id="edge6" class="edge"><title>t05&#45;&gt;t04</title>
<path fill="none" stroke="black" d="M87.432,-54.9846C76.5798,-46.9963 60.1193,-34.8795 47.1166,-25.308"/>
<polygon fill="black" stroke="black" points="48.9068,-22.2798 38.7785,-19.1703 44.757,-27.9172 48.9068,-22.2798"/>
</g>
<!-- t06 -->
<g id="node7" class="node"><title>t06</title>
<polygon fill="none" stroke="black" points="126,-19 72,-19 72,-0 126,-0 126,-19"/>
<text text-anchor="middle" x="99" y="-7" font-family="Verdana" font-size="10.00">b</text>
</g>
<!-- t05&#45;&gt;t06 -->
<g id="edge7" class="edge"><title>t05&#45;&gt;t06</title>
<path fill="none" stroke="black" d="M99,-54.7481C99,-47.8021 99,-37.8451 99,-29.1349"/>
<polygon fill="black" stroke="black" points="102.5,-29.089 99,-19.089 95.5001,-29.0891 102.5,-29.089"/>
</g>
<!-- t07&#45;&gt;t03 -->
<g id="edge3" class="edge"><title>t07&#45;&gt;t03</title>
<path fill="none" stroke="black" d="M144.083,-164.748C136.22,-157.03 124.569,-145.595 115.081,-136.283"/>
<polygon fill="black" stroke="black" points="117.34,-133.596 107.751,-129.089 112.436,-138.592 117.34,-133.596"/>
</g>
<!-- t11 -->
<g id="node12" class="node"><title>t11</title>
<polygon fill="none" stroke="black" points="234,-129 180,-129 180,-110 234,-110 234,-129"/>
<text text-anchor="middle" x="207" y="-117" font-family="Verdana" font-size="10.00">*</text>
</g>
<!-- t07&#45;&gt;t11 -->
<g id="edge8" class="edge"><title>t07&#45;&gt;t11</title>
<path fill="none" stroke="black" d="M161.917,-164.748C169.78,-157.03 181.431,-145.595 190.919,-136.283"/>
<polygon fill="black" stroke="black" points="193.564,-138.592 198.249,-129.089 188.66,-133.596 193.564,-138.592"/>
</g>
<!-- t08 -->
<g id="node9" class="node"><title>t08</title>
<polygon fill="none" stroke="black" points="198,-19 144,-19 144,-0 198,-0 198,-19"/>
<text text-anchor="middle" x="171" y="-7" font-family="Verdana" font-size="10.00">c</text>
</g>
<!-- t09 -->
<g id="node10" class="node"><title>t09</title>
<polygon fill="none" stroke="black" points="234,-74 180,-74 180,-55 234,-55 234,-74"/>
<text text-anchor="middle" x="207" y="-62" font-family="Verdana" font-size="10.00">/</text>
</g>
<!-- t09&#45;&gt;t08 -->
<g id="edge10" class="edge"><title>t09&#45;&gt;t08</title>
<path fill="none" stroke="black" d="M201.055,-54.7481C196.023,-47.339 188.663,-36.5042 182.487,-27.4107"/>
<polygon fill="black" stroke="black" points="185.348,-25.3946 176.834,-19.089 179.558,-29.3278 185.348,-25.3946"/>
</g>
<!-- t10 -->
<g id="node11" class="node"><title>t10</title>
<polygon fill="none" stroke="black" points="270,-19 216,-19 216,-0 270,-0 270,-19"/>
<text text-anchor="middle" x="243" y="-7" font-family="Verdana" font-size="10.00">6</text>
</g>
<!-- t09&#45;&gt;t10 -->
<g id="edge11" class="edge"><title>t09&#45;&gt;t10</title>
<path fill="none" stroke="black" d="M212.945,-54.7481C217.977,-47.339 225.337,-36.5042 231.513,-27.4107"/>
<polygon fill="black" stroke="black" points="234.442,-29.3278 237.166,-19.089 228.652,-25.3946 234.442,-29.3278"/>
</g>
<!-- t11&#45;&gt;t09 -->
<g id="edge9" class="edge"><title>t11&#45;&gt;t09</title>
<path fill="none" stroke="black" d="M207,-109.748C207,-102.802 207,-92.8451 207,-84.1349"/>
<polygon fill="black" stroke="black" points="210.5,-84.089 207,-74.089 203.5,-84.0891 210.5,-84.089"/>
</g>
<!-- t13 -->
<g id="node14" class="node"><title>t13</title>
<polygon fill="none" stroke="black" points="342,-74 288,-74 288,-55 342,-55 342,-74"/>
<text text-anchor="middle" x="315" y="-62" font-family="Verdana" font-size="10.00">+</text>
</g>
<!-- t11&#45;&gt;t13 -->
<g id="edge12" class="edge"><title>t11&#45;&gt;t13</title>
<path fill="none" stroke="black" d="M224.352,-109.985C241.569,-101.535 268.198,-88.4677 288.146,-78.6781"/>
<polygon fill="black" stroke="black" points="289.897,-81.7179 297.332,-74.1703 286.813,-75.4338 289.897,-81.7179"/>
</g>
<!-- t12 -->
<g id="node13" class="node"><title>t12</title>
<polygon fill="none" stroke="black" points="342,-19 288,-19 288,-0 342,-0 342,-19"/>
<text text-anchor="middle" x="315" y="-7" font-family="Verdana" font-size="10.00">5</text>
</g>
<!-- t13&#45;&gt;t12 -->
<g id="edge13" class="edge"><title>t13&#45;&gt;t12</title>
<path fill="none" stroke="black" d="M315,-54.7481C315,-47.8021 315,-37.8451 315,-29.1349"/>
<polygon fill="black" stroke="black" points="318.5,-29.089 315,-19.089 311.5,-29.0891 318.5,-29.089"/>
</g>
<!-- t14 -->
<g id="node15" class="node"><title>t14</title>
<polygon fill="none" stroke="black" points="414,-19 360,-19 360,-0 414,-0 414,-19"/>
<text text-anchor="middle" x="387" y="-7" font-family="Verdana" font-size="10.00">5</text>
</g>
<!-- t13&#45;&gt;t14 -->
<g id="edge14" class="edge"><title>t13&#45;&gt;t14</title>
<path fill="none" stroke="black" d="M326.568,-54.9846C337.42,-46.9963 353.881,-34.8795 366.883,-25.308"/>
<polygon fill="black" stroke="black" points="369.243,-27.9172 375.221,-19.1703 365.093,-22.2798 369.243,-27.9172"/>
</g>
</g>
</svg>
