<?xml version="1.0" encoding="UTF-8" standalone="no"?>
<!DOCTYPE svg PUBLIC "-//W3C//DTD SVG 1.1//EN"
 "http://www.w3.org/Graphics/SVG/1.1/DTD/svg11.dtd">
<!-- Generated by graphviz version 2.38.0 (20140413.2041)
 -->
<!-- Title: %3 Pages: 1 -->
<svg width="329pt" height="236pt"
 viewBox="0.00 0.00 329.00 236.00" xmlns="http://www.w3.org/2000/svg" xmlns:xlink="http://www.w3.org/1999/xlink">
<g id="graph0" class="graph" transform="scale(1 1) rotate(0) translate(4 232)">
<title>%3</title>
<polygon fill="white" stroke="none" points="-4,4 -4,-232 325,-232 325,4 -4,4"/>
<!-- [Namespace]\nFarm -->
<g id="node1" class="node"><title>[Namespace]\nFarm</title>
<polygon fill="none" stroke="black" points="162,-228 80,-228 80,-198 162,-198 162,-228"/>
<text text-anchor="middle" x="121" y="-216" font-family="Verdana" font-size="10.00">[Namespace]</text>
<text text-anchor="middle" x="121" y="-205" font-family="Verdana" font-size="10.00">Farm</text>
</g>
<!-- [Class]\nAnimal -->
<g id="node2" class="node"><title>[Class]\nAnimal</title>
<polygon fill="none" stroke="black" points="109,-162 55,-162 55,-132 109,-132 109,-162"/>
<text text-anchor="middle" x="82" y="-150" font-family="Verdana" font-size="10.00">[Class]</text>
<text text-anchor="middle" x="82" y="-139" font-family="Verdana" font-size="10.00">Animal</text>
</g>
<!-- [Namespace]\nFarm&#45;&gt;[Class]\nAnimal -->
<g id="edge1" class="edge"><title>[Namespace]\nFarm&#45;&gt;[Class]\nAnimal</title>
<path fill="none" stroke="black" d="M112.345,-197.796C107.497,-189.842 101.339,-179.736 95.8391,-170.71"/>
<polygon fill="black" stroke="black" points="98.8237,-168.882 90.6312,-162.164 92.8461,-172.525 98.8237,-168.882"/>
</g>
<!-- [Class]\nTool -->
<g id="node3" class="node"><title>[Class]\nTool</title>
<polygon fill="none" stroke="black" points="187,-162 133,-162 133,-132 187,-132 187,-162"/>
<text text-anchor="middle" x="160" y="-150" font-family="Verdana" font-size="10.00">[Class]</text>
<text text-anchor="middle" x="160" y="-139" font-family="Verdana" font-size="10.00">Tool</text>
</g>
<!-- [Namespace]\nFarm&#45;&gt;[Class]\nTool -->
<g id="edge2" class="edge"><title>[Namespace]\nFarm&#45;&gt;[Class]\nTool</title>
<path fill="none" stroke="black" d="M129.655,-197.796C134.503,-189.842 140.661,-179.736 146.161,-170.71"/>
<polygon fill="black" stroke="black" points="149.154,-172.525 151.369,-162.164 143.176,-168.882 149.154,-172.525"/>
</g>
<!-- [Function]\nSpeak -->
<g id="node4" class="node"><title>[Function]\nSpeak</title>
<polygon fill="none" stroke="black" points="68,-96 0,-96 0,-66 68,-66 68,-96"/>
<text text-anchor="middle" x="34" y="-84" font-family="Verdana" font-size="10.00">[Function]</text>
<text text-anchor="middle" x="34" y="-73" font-family="Verdana" font-size="10.00">Speak</text>
</g>
<!-- [Class]\nAnimal&#45;&gt;[Function]\nSpeak -->
<g id="edge3" class="edge"><title>[Class]\nAnimal&#45;&gt;[Function]\nSpeak</title>
<path fill="none" stroke="black" d="M71.3472,-131.796C65.3193,-123.759 57.6442,-113.526 50.8215,-104.429"/>
<polygon fill="black" stroke="black" points="53.423,-102.064 44.623,-96.164 47.823,-106.264 53.423,-102.064"/>
</g>
<!-- [Variable]\nName -->
<g id="node5" class="node"><title>[Variable]\nName</title>
<polygon fill="none" stroke="black" points="151.5,-96 86.5,-96 86.5,-66 151.5,-66 151.5,-96"/>
<text text-anchor="middle" x="119" y="-84" font-family="Verdana" font-size="10.00">[Variable]</text>
<text text-anchor="middle" x="119" y="-73" font-family="Verdana" font-size="10.00">Name</text>
</g>
<!-- [Class]\nTool&#45;&gt;[Variable]\nName -->
<g id="edge4" class="edge"><title>[Class]\nTool&#45;&gt;[Variable]\nName</title>
<path fill="none" stroke="black" d="M150.901,-131.796C145.805,-123.842 139.331,-113.736 133.549,-104.71"/>
<polygon fill="black" stroke="black" points="136.415,-102.696 128.074,-96.164 130.521,-106.472 136.415,-102.696"/>
</g>
<!-- [Variable]\nMaxUses -->
<g id="node7" class="node"><title>[Variable]\nMaxUses</title>
<polygon fill="none" stroke="black" points="234.5,-96 169.5,-96 169.5,-66 234.5,-66 234.5,-96"/>
<text text-anchor="middle" x="202" y="-84" font-family="Verdana" font-size="10.00">[Variable]</text>
<text text-anchor="middle" x="202" y="-73" font-family="Verdana" font-size="10.00">MaxUses</text>
</g>
<!-- [Class]\nTool&#45;&gt;[Variable]\nMaxUses -->
<g id="edge6" class="edge"><title>[Class]\nTool&#45;&gt;[Variable]\nMaxUses</title>
<path fill="none" stroke="black" d="M169.321,-131.796C174.541,-123.842 181.173,-113.736 187.096,-104.71"/>
<polygon fill="black" stroke="black" points="190.144,-106.445 192.705,-96.164 184.292,-102.604 190.144,-106.445"/>
</g>
<!-- [Function]\nUse -->
<g id="node9" class="node"><title>[Function]\nUse</title>
<polygon fill="none" stroke="black" points="321,-96 253,-96 253,-66 321,-66 321,-96"/>
<text text-anchor="middle" x="287" y="-84" font-family="Verdana" font-size="10.00">[Function]</text>
<text text-anchor="middle" x="287" y="-73" font-family="Verdana" font-size="10.00">Use</text>
</g>
<!-- [Class]\nTool&#45;&gt;[Function]\nUse -->
<g id="edge8" class="edge"><title>[Class]\nTool&#45;&gt;[Function]\nUse</title>
<path fill="none" stroke="black" d="M187.245,-132.27C205.491,-123.075 229.744,-110.853 249.767,-100.763"/>
<polygon fill="black" stroke="black" points="251.567,-103.776 258.922,-96.1497 248.416,-97.5244 251.567,-103.776"/>
</g>
<!-- [Type]\nString -->
<g id="node6" class="node"><title>[Type]\nString</title>
<polygon fill="none" stroke="black" points="146,-30 92,-30 92,-0 146,-0 146,-30"/>
<text text-anchor="middle" x="119" y="-18" font-family="Verdana" font-size="10.00">[Type]</text>
<text text-anchor="middle" x="119" y="-7" font-family="Verdana" font-size="10.00">String</text>
</g>
<!-- [Variable]\nName&#45;&gt;[Type]\nString -->
<g id="edge5" class="edge"><title>[Variable]\nName&#45;&gt;[Type]\nString</title>
<path fill="none" stroke="black" d="M119,-65.7963C119,-58.3391 119,-48.9911 119,-40.4146"/>
<polygon fill="black" stroke="black" points="122.5,-40.1639 119,-30.164 115.5,-40.164 122.5,-40.1639"/>
</g>
<!-- [Type]\nInteger -->
<g id="node8" class="node"><title>[Type]\nInteger</title>
<polygon fill="none" stroke="black" points="229,-30 175,-30 175,-0 229,-0 229,-30"/>
<text text-anchor="middle" x="202" y="-18" font-family="Verdana" font-size="10.00">[Type]</text>
<text text-anchor="middle" x="202" y="-7" font-family="Verdana" font-size="10.00">Integer</text>
</g>
<!-- [Variable]\nMaxUses&#45;&gt;[Type]\nInteger -->
<g id="edge7" class="edge"><title>[Variable]\nMaxUses&#45;&gt;[Type]\nInteger</title>
<path fill="none" stroke="black" d="M202,-65.7963C202,-58.3391 202,-48.9911 202,-40.4146"/>
<polygon fill="black" stroke="black" points="205.5,-40.1639 202,-30.164 198.5,-40.164 205.5,-40.1639"/>
</g>
</g>
</svg>
