<?xml version="1.0" encoding="UTF-8" standalone="no"?>
<!DOCTYPE svg PUBLIC "-//W3C//DTD SVG 1.1//EN"
 "http://www.w3.org/Graphics/SVG/1.1/DTD/svg11.dtd">
<!-- Generated by graphviz version 2.38.0 (20140413.2041)
 -->
<!-- Title: %3 Pages: 1 -->
<svg width="62pt" height="214pt"
 viewBox="0.00 0.00 62.00 214.00" xmlns="http://www.w3.org/2000/svg" xmlns:xlink="http://www.w3.org/1999/xlink">
<g id="graph0" class="graph" transform="scale(1 1) rotate(0) translate(4 210)">
<title>%3</title>
<polygon fill="white" stroke="none" points="-4,4 -4,-210 58,-210 58,4 -4,4"/>
<!-- ... -->
<g id="node1" class="node"><title>...</title>
<polygon fill="none" stroke="black" points="54,-206 0,-206 0,-187 54,-187 54,-206"/>
<text text-anchor="middle" x="27" y="-194" font-family="Verdana" font-size="10.00">...</text>
</g>
<!-- var a\nvar b -->
<g id="node2" class="node"><title>var a\nvar b</title>
<polygon fill="none" stroke="black" points="54,-151 0,-151 0,-121 54,-121 54,-151"/>
<text text-anchor="middle" x="27" y="-139" font-family="Verdana" font-size="10.00">var a</text>
<text text-anchor="middle" x="27" y="-128" font-family="Verdana" font-size="10.00">var b</text>
</g>
<!-- ...&#45;&gt;var a\nvar b -->
<g id="edge1" class="edge"><title>...&#45;&gt;var a\nvar b</title>
<path fill="none" stroke="black" d="M27,-186.868C27,-180.106 27,-170.354 27,-161.263"/>
<polygon fill="black" stroke="black" points="30.5001,-161.115 27,-151.115 23.5001,-161.115 30.5001,-161.115"/>
</g>
<!-- var c -->
<g id="node3" class="node"><title>var c</title>
<polygon fill="none" stroke="black" points="54,-85 0,-85 0,-66 54,-66 54,-85"/>
<text text-anchor="middle" x="27" y="-73" font-family="Verdana" font-size="10.00">var c</text>
</g>
<!-- var a\nvar b&#45;&gt;var c -->
<g id="edge2" class="edge"><title>var a\nvar b&#45;&gt;var c</title>
<path fill="none" stroke="black" d="M27,-120.839C27,-113.214 27,-103.704 27,-95.4497"/>
<polygon fill="black" stroke="black" points="30.5001,-95.2659 27,-85.2659 23.5001,-95.266 30.5001,-95.2659"/>
</g>
<!-- var d\nvar e -->
<g id="node4" class="node"><title>var d\nvar e</title>
<polygon fill="none" stroke="black" points="54,-30 0,-30 0,-0 54,-0 54,-30"/>
<text text-anchor="middle" x="27" y="-18" font-family="Verdana" font-size="10.00">var d</text>
<text text-anchor="middle" x="27" y="-7" font-family="Verdana" font-size="10.00">var e</text>
</g>
<!-- var c&#45;&gt;var d\nvar e -->
<g id="edge3" class="edge"><title>var c&#45;&gt;var d\nvar e</title>
<path fill="none" stroke="black" d="M27,-65.8681C27,-59.1063 27,-49.3536 27,-40.263"/>
<polygon fill="black" stroke="black" points="30.5001,-40.1146 27,-30.1146 23.5001,-40.1146 30.5001,-40.1146"/>
</g>
</g>
</svg>
