<?xml version="1.0" encoding="UTF-8" standalone="no"?>
<!DOCTYPE svg PUBLIC "-//W3C//DTD SVG 1.1//EN"
 "http://www.w3.org/Graphics/SVG/1.1/DTD/svg11.dtd">
<!-- Generated by graphviz version 2.38.0 (20140413.2041)
 -->
<!-- Title: %3 Pages: 1 -->
<svg width="184pt" height="170pt"
 viewBox="0.00 0.00 184.00 170.00" xmlns="http://www.w3.org/2000/svg" xmlns:xlink="http://www.w3.org/1999/xlink">
<g id="graph0" class="graph" transform="scale(1 1) rotate(0) translate(4 166)">
<title>%3</title>
<polygon fill="white" stroke="none" points="-4,4 -4,-166 180,-166 180,4 -4,4"/>
<!-- [UnaryOperator]\n* -->
<g id="node1" class="node"><title>[UnaryOperator]\n*</title>
<polygon fill="none" stroke="black" points="148,-162 50,-162 50,-132 148,-132 148,-162"/>
<text text-anchor="middle" x="99" y="-150" font-family="Verdana" font-size="10.00">[UnaryOperator]</text>
<text text-anchor="middle" x="99" y="-139" font-family="Verdana" font-size="10.00">*</text>
</g>
<!-- [BinaryOperator]\n+ -->
<g id="node2" class="node"><title>[BinaryOperator]\n+</title>
<polygon fill="none" stroke="black" points="148.5,-96 49.5,-96 49.5,-66 148.5,-66 148.5,-96"/>
<text text-anchor="middle" x="99" y="-84" font-family="Verdana" font-size="10.00">[BinaryOperator]</text>
<text text-anchor="middle" x="99" y="-73" font-family="Verdana" font-size="10.00">+</text>
</g>
<!-- [UnaryOperator]\n*&#45;&gt;[BinaryOperator]\n+ -->
<g id="edge1" class="edge"><title>[UnaryOperator]\n*&#45;&gt;[BinaryOperator]\n+</title>
<path fill="none" stroke="black" d="M99,-131.796C99,-124.339 99,-114.991 99,-106.415"/>
<polygon fill="black" stroke="black" points="102.5,-106.164 99,-96.164 95.5001,-106.164 102.5,-106.164"/>
</g>
<!-- [NameReference]\na -->
<g id="node3" class="node"><title>[NameReference]\na</title>
<polygon fill="none" stroke="black" points="102,-30 0,-30 0,-0 102,-0 102,-30"/>
<text text-anchor="middle" x="51" y="-18" font-family="Verdana" font-size="10.00">[NameReference]</text>
<text text-anchor="middle" x="51" y="-7" font-family="Verdana" font-size="10.00">a</text>
</g>
<!-- [BinaryOperator]\n+&#45;&gt;[NameReference]\na -->
<g id="edge2" class="edge"><title>[BinaryOperator]\n+&#45;&gt;[NameReference]\na</title>
<path fill="none" stroke="black" d="M88.3472,-65.7963C82.3193,-57.759 74.6442,-47.5256 67.8215,-38.4287"/>
<polygon fill="black" stroke="black" points="70.423,-36.064 61.623,-30.164 64.823,-40.264 70.423,-36.064"/>
</g>
<!-- [Literal]\n5 -->
<g id="node4" class="node"><title>[Literal]\n5</title>
<polygon fill="none" stroke="black" points="176,-30 120,-30 120,-0 176,-0 176,-30"/>
<text text-anchor="middle" x="148" y="-18" font-family="Verdana" font-size="10.00">[Literal]</text>
<text text-anchor="middle" x="148" y="-7" font-family="Verdana" font-size="10.00">5</text>
</g>
<!-- [BinaryOperator]\n+&#45;&gt;[Literal]\n5 -->
<g id="edge3" class="edge"><title>[BinaryOperator]\n+&#45;&gt;[Literal]\n5</title>
<path fill="none" stroke="black" d="M109.875,-65.7963C116.092,-57.6762 124.025,-47.3144 131.043,-38.1477"/>
<polygon fill="black" stroke="black" points="133.856,-40.2317 137.156,-30.164 128.298,-35.9763 133.856,-40.2317"/>
</g>
</g>
</svg>
