<?xml version="1.0" encoding="UTF-8" standalone="no"?>
<!DOCTYPE svg PUBLIC "-//W3C//DTD SVG 1.1//EN"
 "http://www.w3.org/Graphics/SVG/1.1/DTD/svg11.dtd">
<!-- Generated by graphviz version 2.38.0 (20140413.2041)
 -->
<!-- Title: %3 Pages: 1 -->
<svg width="138pt" height="421pt"
 viewBox="0.00 0.00 137.78 421.00" xmlns="http://www.w3.org/2000/svg" xmlns:xlink="http://www.w3.org/1999/xlink">
<g id="graph0" class="graph" transform="scale(1 1) rotate(0) translate(4 417)">
<title>%3</title>
<polygon fill="white" stroke="none" points="-4,4 -4,-417 133.776,-417 133.776,4 -4,4"/>
<!-- root -->
<g id="node1" class="node"><title>root</title>
<polygon fill="none" stroke="black" points="36.3881,-413 11.3881,-413 11.3881,-388 36.3881,-388 36.3881,-413"/>
</g>
<!-- s0 -->
<g id="node2" class="node"><title>s0</title>
<polygon fill="none" stroke="black" points="36.3881,-343.322 36.3881,-353.678 29.0658,-361 18.7104,-361 11.3881,-353.678 11.3881,-343.322 18.7104,-336 29.0658,-336 36.3881,-343.322"/>
</g>
<!-- root&#45;&gt;s0 -->
<g id="edge1" class="edge"><title>root&#45;&gt;s0</title>
<path fill="none" stroke="black" d="M23.8881,-387.903C23.8881,-382.981 23.8881,-377.074 23.8881,-371.386"/>
<polygon fill="black" stroke="black" points="27.3882,-371.034 23.8881,-361.034 20.3882,-371.034 27.3882,-371.034"/>
<text text-anchor="middle" x="40.8881" y="-372" font-family="Verdana" font-size="10.00"> [0&#45;9] </text>
</g>
<!-- s0&#45;&gt;s0 -->
<g id="edge2" class="edge"><title>s0&#45;&gt;s0</title>
<path fill="none" stroke="black" d="M36.4295,-353.107C43.6585,-354.047 50.3881,-352.512 50.3881,-348.5 50.3881,-346.62 48.9094,-345.283 46.5938,-344.491"/>
<polygon fill="black" stroke="black" points="46.6177,-340.986 36.4295,-343.893 46.2067,-347.974 46.6177,-340.986"/>
<text text-anchor="middle" x="67.3881" y="-346" font-family="Verdana" font-size="10.00"> [0&#45;9] </text>
</g>
<!-- s1 -->
<g id="node3" class="node"><title>s1</title>
<polygon fill="none" stroke="black" points="36.3881,-291.322 36.3881,-301.678 29.0658,-309 18.7104,-309 11.3881,-301.678 11.3881,-291.322 18.7104,-284 29.0658,-284 36.3881,-291.322"/>
</g>
<!-- s0&#45;&gt;s1 -->
<g id="edge3" class="edge"><title>s0&#45;&gt;s1</title>
<path fill="none" stroke="black" d="M23.8881,-335.903C23.8881,-330.981 23.8881,-325.074 23.8881,-319.386"/>
<polygon fill="black" stroke="black" points="27.3882,-319.034 23.8881,-309.034 20.3882,-319.034 27.3882,-319.034"/>
<text text-anchor="middle" x="29.8881" y="-320" font-family="Verdana" font-size="10.00"> . </text>
</g>
<!-- s2 -->
<g id="node4" class="node"><title>s2</title>
<polygon fill="none" stroke="black" points="43.6835,-235.322 43.6835,-245.678 32.0876,-253 15.6886,-253 4.09273,-245.678 4.09273,-235.322 15.6886,-228 32.0876,-228 43.6835,-235.322"/>
<polygon fill="none" stroke="black" points="47.6648,-233.112 47.6648,-247.888 33.2349,-257 14.5413,-257 0.111376,-247.888 0.111376,-233.112 14.5413,-224 33.2349,-224 47.6648,-233.112"/>
<text text-anchor="middle" x="23.8881" y="-238" font-family="Verdana" font-size="10.00">double</text>
</g>
<!-- s1&#45;&gt;s2 -->
<g id="edge4" class="edge"><title>s1&#45;&gt;s2</title>
<path fill="none" stroke="black" d="M23.8881,-283.783C23.8881,-278.897 23.8881,-273.016 23.8881,-267.215"/>
<polygon fill="black" stroke="black" points="27.3882,-267.09 23.8881,-257.09 20.3882,-267.09 27.3882,-267.09"/>
<text text-anchor="middle" x="40.8881" y="-268" font-family="Verdana" font-size="10.00"> [0&#45;9] </text>
</g>
<!-- s2&#45;&gt;s2 -->
<g id="edge5" class="edge"><title>s2&#45;&gt;s2</title>
<path fill="none" stroke="black" d="M47.937,-246.124C55.6573,-246.066 61.7762,-244.191 61.7762,-240.5 61.7762,-238.77 60.4317,-237.439 58.208,-236.507"/>
<polygon fill="black" stroke="black" points="58.362,-232.987 47.937,-234.876 57.2647,-239.901 58.362,-232.987"/>
<text text-anchor="middle" x="78.7762" y="-238" font-family="Verdana" font-size="10.00"> [0&#45;9] </text>
</g>
<!-- s3 -->
<g id="node5" class="node"><title>s3</title>
<polygon fill="none" stroke="black" points="39.6428,-11.3223 39.6428,-21.6777 31.5855,-29 20.1907,-29 12.1334,-21.6777 12.1334,-11.3223 20.1907,-4 31.5855,-4 39.6428,-11.3223"/>
<polygon fill="none" stroke="black" points="43.612,-9.54324 43.612,-23.4568 33.1108,-33 18.6654,-33 8.16423,-23.4568 8.16423,-9.54324 18.6654,3.55271e-015 33.1108,-0 43.612,-9.54324"/>
<text text-anchor="middle" x="25.8881" y="-14" font-family="Verdana" font-size="10.00">float</text>
</g>
<!-- s2&#45;&gt;s3 -->
<g id="edge6" class="edge"><title>s2&#45;&gt;s3</title>
<path fill="none" stroke="black" d="M16.6371,-223.794C12.4037,-213.207 7.8881,-198.798 7.8881,-185.5 7.8881,-185.5 7.8881,-185.5 7.8881,-75.5 7.8881,-64.2715 11.0033,-52.3474 14.6418,-42.2499"/>
<polygon fill="black" stroke="black" points="17.9346,-43.4409 18.3588,-32.8546 11.4254,-40.8657 17.9346,-43.4409"/>
<text text-anchor="middle" x="13.8881" y="-130" font-family="Verdana" font-size="10.00"> f </text>
</g>
<!-- s4 -->
<g id="node6" class="node"><title>s4</title>
<polygon fill="none" stroke="black" points="59.3881,-179.322 59.3881,-189.678 52.0658,-197 41.7104,-197 34.3881,-189.678 34.3881,-179.322 41.7104,-172 52.0658,-172 59.3881,-179.322"/>
</g>
<!-- s2&#45;&gt;s4 -->
<g id="edge7" class="edge"><title>s2&#45;&gt;s4</title>
<path fill="none" stroke="black" d="M30.5407,-223.881C32.7961,-218.586 35.356,-212.575 37.7695,-206.909"/>
<polygon fill="black" stroke="black" points="41.1598,-207.881 41.8584,-197.309 34.7197,-205.138 41.1598,-207.881"/>
<text text-anchor="middle" x="45.8881" y="-208" font-family="Verdana" font-size="10.00"> e </text>
</g>
<!-- s5 -->
<g id="node7" class="node"><title>s5</title>
<polygon fill="none" stroke="black" points="59.3881,-127.322 59.3881,-137.678 52.0658,-145 41.7104,-145 34.3881,-137.678 34.3881,-127.322 41.7104,-120 52.0658,-120 59.3881,-127.322"/>
</g>
<!-- s4&#45;&gt;s5 -->
<g id="edge8" class="edge"><title>s4&#45;&gt;s5</title>
<path fill="none" stroke="black" d="M46.8881,-171.903C46.8881,-166.981 46.8881,-161.074 46.8881,-155.386"/>
<polygon fill="black" stroke="black" points="50.3882,-155.034 46.8881,-145.034 43.3882,-155.034 50.3882,-155.034"/>
<text text-anchor="middle" x="61.3881" y="-156" font-family="Verdana" font-size="10.00"> [+&#45;] </text>
</g>
<!-- s6 -->
<g id="node8" class="node"><title>s6</title>
<polygon fill="none" stroke="black" points="73.6835,-71.3223 73.6835,-81.6777 62.0876,-89 45.6886,-89 34.0927,-81.6777 34.0927,-71.3223 45.6886,-64 62.0876,-64 73.6835,-71.3223"/>
<polygon fill="none" stroke="black" points="77.6648,-69.1119 77.6648,-83.8881 63.2349,-93 44.5413,-93 30.1114,-83.8881 30.1114,-69.1119 44.5413,-60 63.2349,-60 77.6648,-69.1119"/>
<text text-anchor="middle" x="53.8881" y="-74" font-family="Verdana" font-size="10.00">double</text>
</g>
<!-- s4&#45;&gt;s6 -->
<g id="edge11" class="edge"><title>s4&#45;&gt;s6</title>
<path fill="none" stroke="black" d="M59.5032,-179.338C66.5591,-176.287 74.7464,-171.374 78.8881,-164 92.6,-139.587 90.0018,-126.7 78.8881,-101 78.2675,-99.5648 77.5112,-98.1768 76.6538,-96.8415"/>
<polygon fill="black" stroke="black" points="79.0221,-94.222 69.8899,-88.8504 73.679,-98.7445 79.0221,-94.222"/>
<text text-anchor="middle" x="104.888" y="-130" font-family="Verdana" font-size="10.00"> [0&#45;9] </text>
</g>
<!-- s5&#45;&gt;s6 -->
<g id="edge9" class="edge"><title>s5&#45;&gt;s6</title>
<path fill="none" stroke="black" d="M45.4395,-119.843C45.1234,-115.737 44.966,-110.985 45.9703,-103.468"/>
<polygon fill="black" stroke="black" points="49.4828,-103.697 47.7432,-93.2461 42.5857,-102.501 49.4828,-103.697"/>
<text text-anchor="middle" x="62.8881" y="-104" font-family="Verdana" font-size="10.00"> [0&#45;9] </text>
</g>
<!-- s6&#45;&gt;s3 -->
<g id="edge12" class="edge"><title>s6&#45;&gt;s3</title>
<path fill="none" stroke="black" d="M46.3846,-59.9571C43.7482,-54.4959 40.7169,-48.2167 37.8081,-42.1913"/>
<polygon fill="black" stroke="black" points="40.9118,-40.5697 33.4123,-33.0858 34.6079,-43.613 40.9118,-40.5697"/>
<text text-anchor="middle" x="48.8881" y="-44" font-family="Verdana" font-size="10.00"> f </text>
</g>
<!-- s6&#45;&gt;s6 -->
<g id="edge10" class="edge"><title>s6&#45;&gt;s6</title>
<path fill="none" stroke="black" d="M77.937,-81.7487C85.6573,-81.6949 91.7762,-79.9453 91.7762,-76.5 91.7762,-74.885 90.4317,-73.6426 88.208,-72.7728"/>
<polygon fill="black" stroke="black" points="88.342,-69.2545 77.937,-71.2513 87.3161,-76.179 88.342,-69.2545"/>
<text text-anchor="middle" x="108.776" y="-74" font-family="Verdana" font-size="10.00"> [0&#45;9] </text>
</g>
</g>
</svg>
