<?xml version="1.0" encoding="UTF-8" standalone="no"?>
<!DOCTYPE svg PUBLIC "-//W3C//DTD SVG 1.1//EN"
 "http://www.w3.org/Graphics/SVG/1.1/DTD/svg11.dtd">
<!-- Generated by graphviz version 2.38.0 (20140413.2041)
 -->
<!-- Title: %3 Pages: 1 -->
<svg width="858pt" height="302pt"
 viewBox="0.00 0.00 858.00 302.00" xmlns="http://www.w3.org/2000/svg" xmlns:xlink="http://www.w3.org/1999/xlink">
<g id="graph0" class="graph" transform="scale(1 1) rotate(0) translate(4 298)">
<title>%3</title>
<polygon fill="white" stroke="none" points="-4,4 -4,-298 854,-298 854,4 -4,4"/>
<!-- [Function]\nFibonacci -->
<g id="node1" class="node"><title>[Function]\nFibonacci</title>
<polygon fill="none" stroke="black" points="276,-294 208,-294 208,-264 276,-264 276,-294"/>
<text text-anchor="middle" x="242" y="-282" font-family="Verdana" font-size="10.00">[Function]</text>
<text text-anchor="middle" x="242" y="-271" font-family="Verdana" font-size="10.00">Fibonacci</text>
</g>
<!-- [Parameter]\nn -->
<g id="node2" class="node"><title>[Parameter]\nn</title>
<polygon fill="none" stroke="black" points="76,-228 0,-228 0,-198 76,-198 76,-228"/>
<text text-anchor="middle" x="38" y="-216" font-family="Verdana" font-size="10.00">[Parameter]</text>
<text text-anchor="middle" x="38" y="-205" font-family="Verdana" font-size="10.00">n</text>
</g>
<!-- [Function]\nFibonacci&#45;&gt;[Parameter]\nn -->
<g id="edge1" class="edge"><title>[Function]\nFibonacci&#45;&gt;[Parameter]\nn</title>
<path fill="none" stroke="black" d="M207.855,-267.288C174.432,-256.802 123.22,-240.736 85.7654,-228.985"/>
<polygon fill="black" stroke="black" points="86.6656,-225.6 76.0765,-225.946 84.5702,-232.279 86.6656,-225.6"/>
</g>
<!-- [Type]\nInteger  -->
<g id="node4" class="node"><title>[Type]\nInteger </title>
<polygon fill="none" stroke="black" points="150,-228 94,-228 94,-198 150,-198 150,-228"/>
<text text-anchor="middle" x="122" y="-216" font-family="Verdana" font-size="10.00">[Type]</text>
<text text-anchor="middle" x="122" y="-205" font-family="Verdana" font-size="10.00">Integer </text>
</g>
<!-- [Function]\nFibonacci&#45;&gt;[Type]\nInteger  -->
<g id="edge3" class="edge"><title>[Function]\nFibonacci&#45;&gt;[Type]\nInteger </title>
<path fill="none" stroke="black" d="M215.665,-263.955C198.471,-254.785 175.824,-242.706 157.105,-232.723"/>
<polygon fill="black" stroke="black" points="158.744,-229.63 148.273,-228.012 155.45,-235.806 158.744,-229.63"/>
</g>
<!-- [Variable]\na -->
<g id="node5" class="node"><title>[Variable]\na</title>
<polygon fill="none" stroke="black" points="233.5,-228 168.5,-228 168.5,-198 233.5,-198 233.5,-228"/>
<text text-anchor="middle" x="201" y="-216" font-family="Verdana" font-size="10.00">[Variable]</text>
<text text-anchor="middle" x="201" y="-205" font-family="Verdana" font-size="10.00">a</text>
</g>
<!-- [Function]\nFibonacci&#45;&gt;[Variable]\na -->
<g id="edge4" class="edge"><title>[Function]\nFibonacci&#45;&gt;[Variable]\na</title>
<path fill="none" stroke="black" d="M232.901,-263.796C227.805,-255.842 221.331,-245.736 215.549,-236.71"/>
<polygon fill="black" stroke="black" points="218.415,-234.696 210.074,-228.164 212.521,-238.472 218.415,-234.696"/>
</g>
<!-- [Variable]\nb -->
<g id="node7" class="node"><title>[Variable]\nb</title>
<polygon fill="none" stroke="black" points="316.5,-228 251.5,-228 251.5,-198 316.5,-198 316.5,-228"/>
<text text-anchor="middle" x="284" y="-216" font-family="Verdana" font-size="10.00">[Variable]</text>
<text text-anchor="middle" x="284" y="-205" font-family="Verdana" font-size="10.00">b</text>
</g>
<!-- [Function]\nFibonacci&#45;&gt;[Variable]\nb -->
<g id="edge6" class="edge"><title>[Function]\nFibonacci&#45;&gt;[Variable]\nb</title>
<path fill="none" stroke="black" d="M251.321,-263.796C256.541,-255.842 263.173,-245.736 269.096,-236.71"/>
<polygon fill="black" stroke="black" points="272.144,-238.445 274.705,-228.164 266.292,-234.604 272.144,-238.445"/>
</g>
<!-- [For] -->
<g id="node9" class="node"><title>[For]</title>
<polygon fill="none" stroke="black" points="488,-222.5 434,-222.5 434,-203.5 488,-203.5 488,-222.5"/>
<text text-anchor="middle" x="461" y="-210.5" font-family="Verdana" font-size="10.00">[For]</text>
</g>
<!-- [Function]\nFibonacci&#45;&gt;[For] -->
<g id="edge8" class="edge"><title>[Function]\nFibonacci&#45;&gt;[For]</title>
<path fill="none" stroke="black" d="M276.219,-268C316.45,-256.243 382.96,-236.806 424.255,-224.738"/>
<polygon fill="black" stroke="black" points="425.31,-228.076 433.927,-221.912 423.346,-221.357 425.31,-228.076"/>
</g>
<!-- [Return] -->
<g id="node27" class="node"><title>[Return]</title>
<polygon fill="none" stroke="black" points="708,-222.5 650,-222.5 650,-203.5 708,-203.5 708,-222.5"/>
<text text-anchor="middle" x="679" y="-210.5" font-family="Verdana" font-size="10.00">[Return]</text>
</g>
<!-- [Function]\nFibonacci&#45;&gt;[Return] -->
<g id="edge26" class="edge"><title>[Function]\nFibonacci&#45;&gt;[Return]</title>
<path fill="none" stroke="black" d="M276.291,-272.978C356.352,-261.253 555.198,-232.131 639.845,-219.734"/>
<polygon fill="black" stroke="black" points="640.437,-223.185 649.824,-218.273 639.423,-216.259 640.437,-223.185"/>
</g>
<!-- [Type]\nInteger -->
<g id="node3" class="node"><title>[Type]\nInteger</title>
<polygon fill="none" stroke="black" points="65,-162 11,-162 11,-132 65,-132 65,-162"/>
<text text-anchor="middle" x="38" y="-150" font-family="Verdana" font-size="10.00">[Type]</text>
<text text-anchor="middle" x="38" y="-139" font-family="Verdana" font-size="10.00">Integer</text>
</g>
<!-- [Parameter]\nn&#45;&gt;[Type]\nInteger -->
<g id="edge2" class="edge"><title>[Parameter]\nn&#45;&gt;[Type]\nInteger</title>
<path fill="none" stroke="black" d="M38,-197.796C38,-190.339 38,-180.991 38,-172.415"/>
<polygon fill="black" stroke="black" points="41.5001,-172.164 38,-162.164 34.5001,-172.164 41.5001,-172.164"/>
</g>
<!-- [Literal]\n0 -->
<g id="node6" class="node"><title>[Literal]\n0</title>
<polygon fill="none" stroke="black" points="184,-162 128,-162 128,-132 184,-132 184,-162"/>
<text text-anchor="middle" x="156" y="-150" font-family="Verdana" font-size="10.00">[Literal]</text>
<text text-anchor="middle" x="156" y="-139" font-family="Verdana" font-size="10.00">0</text>
</g>
<!-- [Variable]\na&#45;&gt;[Literal]\n0 -->
<g id="edge5" class="edge"><title>[Variable]\na&#45;&gt;[Literal]\n0</title>
<path fill="none" stroke="black" d="M191.013,-197.796C185.362,-189.759 178.166,-179.526 171.77,-170.429"/>
<polygon fill="black" stroke="black" points="174.574,-168.331 165.959,-162.164 168.848,-172.357 174.574,-168.331"/>
</g>
<!-- [Literal]\n1 -->
<g id="node8" class="node"><title>[Literal]\n1</title>
<polygon fill="none" stroke="black" points="258,-162 202,-162 202,-132 258,-132 258,-162"/>
<text text-anchor="middle" x="230" y="-150" font-family="Verdana" font-size="10.00">[Literal]</text>
<text text-anchor="middle" x="230" y="-139" font-family="Verdana" font-size="10.00">1</text>
</g>
<!-- [Variable]\nb&#45;&gt;[Literal]\n1 -->
<g id="edge7" class="edge"><title>[Variable]\nb&#45;&gt;[Literal]\n1</title>
<path fill="none" stroke="black" d="M272.016,-197.796C265.094,-189.593 256.243,-179.103 248.451,-169.867"/>
<polygon fill="black" stroke="black" points="251.075,-167.55 241.951,-162.164 245.725,-172.064 251.075,-167.55"/>
</g>
<!-- [Variable]\ni -->
<g id="node10" class="node"><title>[Variable]\ni</title>
<polygon fill="none" stroke="black" points="341.5,-162 276.5,-162 276.5,-132 341.5,-132 341.5,-162"/>
<text text-anchor="middle" x="309" y="-150" font-family="Verdana" font-size="10.00">[Variable]</text>
<text text-anchor="middle" x="309" y="-139" font-family="Verdana" font-size="10.00">i</text>
</g>
<!-- [For]&#45;&gt;[Variable]\ni -->
<g id="edge9" class="edge"><title>[For]&#45;&gt;[Variable]\ni</title>
<path fill="none" stroke="black" d="M440.501,-203.369C417.713,-193.774 380.288,-178.016 351.179,-165.759"/>
<polygon fill="black" stroke="black" points="352.233,-162.406 341.659,-161.751 349.517,-168.857 352.233,-162.406"/>
</g>
<!-- [Binary]\n&lt; -->
<g id="node12" class="node"><title>[Binary]\n&lt;</title>
<polygon fill="none" stroke="black" points="416,-162 360,-162 360,-132 416,-132 416,-162"/>
<text text-anchor="middle" x="388" y="-150" font-family="Verdana" font-size="10.00">[Binary]</text>
<text text-anchor="middle" x="388" y="-139" font-family="Verdana" font-size="10.00">&lt;</text>
</g>
<!-- [For]&#45;&gt;[Binary]\n&lt; -->
<g id="edge11" class="edge"><title>[For]&#45;&gt;[Binary]\n&lt;</title>
<path fill="none" stroke="black" d="M451.155,-203.369C441.164,-194.61 425.315,-180.714 411.993,-169.035"/>
<polygon fill="black" stroke="black" points="413.927,-166.076 404.101,-162.116 409.313,-171.34 413.927,-166.076"/>
</g>
<!-- [Unary]\n++ -->
<g id="node15" class="node"><title>[Unary]\n++</title>
<polygon fill="none" stroke="black" points="488,-162 434,-162 434,-132 488,-132 488,-162"/>
<text text-anchor="middle" x="461" y="-150" font-family="Verdana" font-size="10.00">[Unary]</text>
<text text-anchor="middle" x="461" y="-139" font-family="Verdana" font-size="10.00">++</text>
</g>
<!-- [For]&#45;&gt;[Unary]\n++ -->
<g id="edge14" class="edge"><title>[For]&#45;&gt;[Unary]\n++</title>
<path fill="none" stroke="black" d="M461,-203.369C461,-195.487 461,-183.447 461,-172.605"/>
<polygon fill="black" stroke="black" points="464.5,-172.36 461,-162.36 457.5,-172.36 464.5,-172.36"/>
</g>
<!-- [Variable]\nc -->
<g id="node17" class="node"><title>[Variable]\nc</title>
<polygon fill="none" stroke="black" points="571.5,-162 506.5,-162 506.5,-132 571.5,-132 571.5,-162"/>
<text text-anchor="middle" x="539" y="-150" font-family="Verdana" font-size="10.00">[Variable]</text>
<text text-anchor="middle" x="539" y="-139" font-family="Verdana" font-size="10.00">c</text>
</g>
<!-- [For]&#45;&gt;[Variable]\nc -->
<g id="edge16" class="edge"><title>[For]&#45;&gt;[Variable]\nc</title>
<path fill="none" stroke="black" d="M471.519,-203.369C482.295,-194.527 499.45,-180.451 513.765,-168.705"/>
<polygon fill="black" stroke="black" points="516.286,-171.165 521.797,-162.116 511.846,-165.753 516.286,-171.165"/>
</g>
<!-- [Binary]\n= -->
<g id="node21" class="node"><title>[Binary]\n=</title>
<polygon fill="none" stroke="black" points="646,-162 590,-162 590,-132 646,-132 646,-162"/>
<text text-anchor="middle" x="618" y="-150" font-family="Verdana" font-size="10.00">[Binary]</text>
<text text-anchor="middle" x="618" y="-139" font-family="Verdana" font-size="10.00">=</text>
</g>
<!-- [For]&#45;&gt;[Binary]\n= -->
<g id="edge20" class="edge"><title>[For]&#45;&gt;[Binary]\n=</title>
<path fill="none" stroke="black" d="M482.174,-203.369C507.248,-193.147 549.481,-175.931 580.209,-163.405"/>
<polygon fill="black" stroke="black" points="581.806,-166.534 589.745,-159.518 579.163,-160.052 581.806,-166.534"/>
</g>
<!-- [Binary]\n=  -->
<g id="node24" class="node"><title>[Binary]\n= </title>
<polygon fill="none" stroke="black" points="750,-162 694,-162 694,-132 750,-132 750,-162"/>
<text text-anchor="middle" x="722" y="-150" font-family="Verdana" font-size="10.00">[Binary]</text>
<text text-anchor="middle" x="722" y="-139" font-family="Verdana" font-size="10.00">= </text>
</g>
<!-- [For]&#45;&gt;[Binary]\n=  -->
<g id="edge23" class="edge"><title>[For]&#45;&gt;[Binary]\n= </title>
<path fill="none" stroke="black" d="M488.438,-205.272C535.284,-193.785 630.778,-170.369 684.007,-157.316"/>
<polygon fill="black" stroke="black" points="684.869,-160.709 693.748,-154.928 683.202,-153.91 684.869,-160.709"/>
</g>
<!-- [Literal]\n0  -->
<g id="node11" class="node"><title>[Literal]\n0 </title>
<polygon fill="none" stroke="black" points="272,-96 216,-96 216,-66 272,-66 272,-96"/>
<text text-anchor="middle" x="244" y="-84" font-family="Verdana" font-size="10.00">[Literal]</text>
<text text-anchor="middle" x="244" y="-73" font-family="Verdana" font-size="10.00">0 </text>
</g>
<!-- [Variable]\ni&#45;&gt;[Literal]\n0  -->
<g id="edge10" class="edge"><title>[Variable]\ni&#45;&gt;[Literal]\n0 </title>
<path fill="none" stroke="black" d="M294.574,-131.796C286.075,-123.428 275.157,-112.678 265.642,-103.309"/>
<polygon fill="black" stroke="black" points="267.967,-100.686 258.385,-96.164 263.055,-105.674 267.967,-100.686"/>
</g>
<!-- [Name]\ni -->
<g id="node13" class="node"><title>[Name]\ni</title>
<polygon fill="none" stroke="black" points="344,-96 290,-96 290,-66 344,-66 344,-96"/>
<text text-anchor="middle" x="317" y="-84" font-family="Verdana" font-size="10.00">[Name]</text>
<text text-anchor="middle" x="317" y="-73" font-family="Verdana" font-size="10.00">i</text>
</g>
<!-- [Binary]\n&lt;&#45;&gt;[Name]\ni -->
<g id="edge12" class="edge"><title>[Binary]\n&lt;&#45;&gt;[Name]\ni</title>
<path fill="none" stroke="black" d="M372.243,-131.796C362.867,-123.345 350.797,-112.465 340.332,-103.031"/>
<polygon fill="black" stroke="black" points="342.484,-100.26 332.713,-96.164 337.798,-105.459 342.484,-100.26"/>
</g>
<!-- [Name]\nn -->
<g id="node14" class="node"><title>[Name]\nn</title>
<polygon fill="none" stroke="black" points="416,-96 362,-96 362,-66 416,-66 416,-96"/>
<text text-anchor="middle" x="389" y="-84" font-family="Verdana" font-size="10.00">[Name]</text>
<text text-anchor="middle" x="389" y="-73" font-family="Verdana" font-size="10.00">n</text>
</g>
<!-- [Binary]\n&lt;&#45;&gt;[Name]\nn -->
<g id="edge13" class="edge"><title>[Binary]\n&lt;&#45;&gt;[Name]\nn</title>
<path fill="none" stroke="black" d="M388.222,-131.796C388.338,-124.339 388.485,-114.991 388.619,-106.415"/>
<polygon fill="black" stroke="black" points="392.122,-106.217 388.779,-96.164 385.123,-106.108 392.122,-106.217"/>
</g>
<!-- [Name]\ni  -->
<g id="node16" class="node"><title>[Name]\ni </title>
<polygon fill="none" stroke="black" points="488,-96 434,-96 434,-66 488,-66 488,-96"/>
<text text-anchor="middle" x="461" y="-84" font-family="Verdana" font-size="10.00">[Name]</text>
<text text-anchor="middle" x="461" y="-73" font-family="Verdana" font-size="10.00">i </text>
</g>
<!-- [Unary]\n++&#45;&gt;[Name]\ni  -->
<g id="edge15" class="edge"><title>[Unary]\n++&#45;&gt;[Name]\ni </title>
<path fill="none" stroke="black" d="M461,-131.796C461,-124.339 461,-114.991 461,-106.415"/>
<polygon fill="black" stroke="black" points="464.5,-106.164 461,-96.164 457.5,-106.164 464.5,-106.164"/>
</g>
<!-- [Binary]\n+ -->
<g id="node18" class="node"><title>[Binary]\n+</title>
<polygon fill="none" stroke="black" points="562,-96 506,-96 506,-66 562,-66 562,-96"/>
<text text-anchor="middle" x="534" y="-84" font-family="Verdana" font-size="10.00">[Binary]</text>
<text text-anchor="middle" x="534" y="-73" font-family="Verdana" font-size="10.00">+</text>
</g>
<!-- [Variable]\nc&#45;&gt;[Binary]\n+ -->
<g id="edge17" class="edge"><title>[Variable]\nc&#45;&gt;[Binary]\n+</title>
<path fill="none" stroke="black" d="M537.89,-131.796C537.308,-124.339 536.577,-114.991 535.907,-106.415"/>
<polygon fill="black" stroke="black" points="539.375,-105.861 535.107,-96.164 532.396,-106.406 539.375,-105.861"/>
</g>
<!-- [Name]\na -->
<g id="node19" class="node"><title>[Name]\na</title>
<polygon fill="none" stroke="black" points="525,-30 471,-30 471,-0 525,-0 525,-30"/>
<text text-anchor="middle" x="498" y="-18" font-family="Verdana" font-size="10.00">[Name]</text>
<text text-anchor="middle" x="498" y="-7" font-family="Verdana" font-size="10.00">a</text>
</g>
<!-- [Binary]\n+&#45;&gt;[Name]\na -->
<g id="edge18" class="edge"><title>[Binary]\n+&#45;&gt;[Name]\na</title>
<path fill="none" stroke="black" d="M526.01,-65.7963C521.583,-57.9248 515.97,-47.9467 510.933,-38.9928"/>
<polygon fill="black" stroke="black" points="513.92,-37.1638 505.967,-30.164 507.819,-40.5957 513.92,-37.1638"/>
</g>
<!-- [Name]\nb -->
<g id="node20" class="node"><title>[Name]\nb</title>
<polygon fill="none" stroke="black" points="597,-30 543,-30 543,-0 597,-0 597,-30"/>
<text text-anchor="middle" x="570" y="-18" font-family="Verdana" font-size="10.00">[Name]</text>
<text text-anchor="middle" x="570" y="-7" font-family="Verdana" font-size="10.00">b</text>
</g>
<!-- [Binary]\n+&#45;&gt;[Name]\nb -->
<g id="edge19" class="edge"><title>[Binary]\n+&#45;&gt;[Name]\nb</title>
<path fill="none" stroke="black" d="M541.99,-65.7963C546.417,-57.9248 552.03,-47.9467 557.067,-38.9928"/>
<polygon fill="black" stroke="black" points="560.181,-40.5957 562.033,-30.164 554.08,-37.1638 560.181,-40.5957"/>
</g>
<!-- [Name]\na  -->
<g id="node22" class="node"><title>[Name]\na </title>
<polygon fill="none" stroke="black" points="634,-96 580,-96 580,-66 634,-66 634,-96"/>
<text text-anchor="middle" x="607" y="-84" font-family="Verdana" font-size="10.00">[Name]</text>
<text text-anchor="middle" x="607" y="-73" font-family="Verdana" font-size="10.00">a </text>
</g>
<!-- [Binary]\n=&#45;&gt;[Name]\na  -->
<g id="edge21" class="edge"><title>[Binary]\n=&#45;&gt;[Name]\na </title>
<path fill="none" stroke="black" d="M615.559,-131.796C614.263,-124.256 612.635,-114.783 611.147,-106.129"/>
<polygon fill="black" stroke="black" points="614.578,-105.427 609.434,-96.164 607.679,-106.612 614.578,-105.427"/>
</g>
<!-- [Name]\nb  -->
<g id="node23" class="node"><title>[Name]\nb </title>
<polygon fill="none" stroke="black" points="706,-96 652,-96 652,-66 706,-66 706,-96"/>
<text text-anchor="middle" x="679" y="-84" font-family="Verdana" font-size="10.00">[Name]</text>
<text text-anchor="middle" x="679" y="-73" font-family="Verdana" font-size="10.00">b </text>
</g>
<!-- [Binary]\n=&#45;&gt;[Name]\nb  -->
<g id="edge22" class="edge"><title>[Binary]\n=&#45;&gt;[Name]\nb </title>
<path fill="none" stroke="black" d="M631.538,-131.796C639.435,-123.51 649.558,-112.89 658.424,-103.588"/>
<polygon fill="black" stroke="black" points="661.134,-105.817 665.5,-96.164 656.067,-100.988 661.134,-105.817"/>
</g>
<!-- [Name]\n b  -->
<g id="node25" class="node"><title>[Name]\n b </title>
<polygon fill="none" stroke="black" points="778,-96 724,-96 724,-66 778,-66 778,-96"/>
<text text-anchor="middle" x="751" y="-84" font-family="Verdana" font-size="10.00">[Name]</text>
<text text-anchor="middle" x="751" y="-73" font-family="Verdana" font-size="10.00"> b </text>
</g>
<!-- [Binary]\n= &#45;&gt;[Name]\n b  -->
<g id="edge24" class="edge"><title>[Binary]\n= &#45;&gt;[Name]\n b </title>
<path fill="none" stroke="black" d="M728.436,-131.796C731.965,-124.008 736.429,-114.156 740.453,-105.276"/>
<polygon fill="black" stroke="black" points="743.643,-106.717 744.582,-96.164 737.267,-103.828 743.643,-106.717"/>
</g>
<!-- [Name]\nc -->
<g id="node26" class="node"><title>[Name]\nc</title>
<polygon fill="none" stroke="black" points="850,-96 796,-96 796,-66 850,-66 850,-96"/>
<text text-anchor="middle" x="823" y="-84" font-family="Verdana" font-size="10.00">[Name]</text>
<text text-anchor="middle" x="823" y="-73" font-family="Verdana" font-size="10.00">c</text>
</g>
<!-- [Binary]\n= &#45;&gt;[Name]\nc -->
<g id="edge25" class="edge"><title>[Binary]\n= &#45;&gt;[Name]\nc</title>
<path fill="none" stroke="black" d="M744.415,-131.796C758.407,-122.93 776.615,-111.392 791.982,-101.655"/>
<polygon fill="black" stroke="black" points="794.074,-104.473 800.647,-96.164 790.327,-98.5601 794.074,-104.473"/>
</g>
<!-- [Name]\n a  -->
<g id="node28" class="node"><title>[Name]\n a </title>
<polygon fill="none" stroke="black" points="822,-162 768,-162 768,-132 822,-132 822,-162"/>
<text text-anchor="middle" x="795" y="-150" font-family="Verdana" font-size="10.00">[Name]</text>
<text text-anchor="middle" x="795" y="-139" font-family="Verdana" font-size="10.00"> a </text>
</g>
<!-- [Return]&#45;&gt;[Name]\n a  -->
<g id="edge27" class="edge"><title>[Return]&#45;&gt;[Name]\n a </title>
<path fill="none" stroke="black" d="M694.644,-203.369C711.419,-194.114 738.587,-179.125 760.427,-167.075"/>
<polygon fill="black" stroke="black" points="762.35,-170.011 769.415,-162.116 758.969,-163.882 762.35,-170.011"/>
</g>
</g>
</svg>
