<?xml version="1.0" encoding="UTF-8" standalone="no"?>
<!DOCTYPE svg PUBLIC "-//W3C//DTD SVG 1.1//EN"
 "http://www.w3.org/Graphics/SVG/1.1/DTD/svg11.dtd">
<!-- Generated by graphviz version 2.38.0 (20140413.2041)
 -->
<!-- Title: %3 Pages: 1 -->
<svg width="246pt" height="149pt"
 viewBox="0.00 0.00 246.15 149.00" xmlns="http://www.w3.org/2000/svg" xmlns:xlink="http://www.w3.org/1999/xlink">
<g id="graph0" class="graph" transform="scale(1 1) rotate(0) translate(4 145)">
<title>%3</title>
<polygon fill="white" stroke="none" points="-4,4 -4,-145 242.148,-145 242.148,4 -4,4"/>
<!-- root -->
<g id="node1" class="node"><title>root</title>
<polygon fill="none" stroke="black" points="164.648,-141 139.648,-141 139.648,-116 164.648,-116 164.648,-141"/>
</g>
<!-- end -->
<g id="node2" class="node"><title>end</title>
<polygon fill="none" stroke="black" points="164.648,-11.3223 164.648,-21.6777 157.326,-29 146.971,-29 139.648,-21.6777 139.648,-11.3223 146.971,-4 157.326,-4 164.648,-11.3223"/>
<polygon fill="none" stroke="black" points="168.648,-9.66548 168.648,-23.3345 158.983,-33 145.314,-33 135.648,-23.3345 135.648,-9.66548 145.314,-0 158.983,-0 168.648,-9.66548"/>
</g>
<!-- root&#45;&gt;end -->
<g id="edge1" class="edge"><title>root&#45;&gt;end</title>
<path fill="none" stroke="black" d="M139.624,-127.867C110.399,-127.954 37.7882,-123.566 6.14838,-80 -25.3239,-36.6647 75.0233,-23.1091 125.267,-19.0909"/>
<polygon fill="black" stroke="black" points="125.725,-22.567 135.445,-18.3525 125.218,-15.5853 125.725,-22.567"/>
<text text-anchor="middle" x="13.1484" y="-72" font-family="Verdana" font-size="10.00"> 0 </text>
</g>
<!-- root&#45;&gt;end -->
<g id="edge2" class="edge"><title>root&#45;&gt;end</title>
<path fill="none" stroke="black" d="M139.495,-126.542C115.108,-123.934 61.9951,-114.387 39.1484,-80 16.2,-45.4602 85.4075,-28.2041 125.578,-21.2874"/>
<polygon fill="black" stroke="black" points="126.251,-24.7243 135.566,-19.6759 125.136,-17.8137 126.251,-24.7243"/>
<text text-anchor="middle" x="46.1484" y="-72" font-family="Verdana" font-size="10.00"> 1 </text>
</g>
<!-- root&#45;&gt;end -->
<g id="edge3" class="edge"><title>root&#45;&gt;end</title>
<path fill="none" stroke="black" d="M139.605,-124.292C120.991,-118.778 86.6915,-105.548 72.1484,-80 57.3293,-53.9668 97.4494,-34.9525 126.091,-25.112"/>
<polygon fill="black" stroke="black" points="127.202,-28.4314 135.635,-22.0175 125.043,-21.7727 127.202,-28.4314"/>
<text text-anchor="middle" x="79.1484" y="-72" font-family="Verdana" font-size="10.00"> 2 </text>
</g>
<!-- root&#45;&gt;end -->
<g id="edge4" class="edge"><title>root&#45;&gt;end</title>
<path fill="none" stroke="black" d="M139.383,-120.539C122.763,-110.458 96.7653,-90.6217 105.148,-69 110.466,-55.2857 121.325,-42.9874 131.266,-33.8508"/>
<polygon fill="black" stroke="black" points="133.643,-36.4224 138.919,-27.2346 129.065,-31.1269 133.643,-36.4224"/>
<text text-anchor="middle" x="112.148" y="-72" font-family="Verdana" font-size="10.00"> 3 </text>
</g>
<!-- root&#45;&gt;end -->
<g id="edge5" class="edge"><title>root&#45;&gt;end</title>
<path fill="none" stroke="black" d="M147.746,-115.995C144.361,-106.502 139.966,-92.5935 138.148,-80 136.361,-67.6135 138.851,-54.0382 142.203,-42.7133"/>
<polygon fill="black" stroke="black" points="145.584,-43.6379 145.426,-33.0443 138.943,-41.4245 145.584,-43.6379"/>
<text text-anchor="middle" x="145.148" y="-72" font-family="Verdana" font-size="10.00"> 4 </text>
</g>
<!-- root&#45;&gt;end -->
<g id="edge6" class="edge"><title>root&#45;&gt;end</title>
<path fill="none" stroke="black" d="M152.148,-115.728C152.148,-98.5034 152.148,-65.9979 152.148,-43.1086"/>
<polygon fill="black" stroke="black" points="155.648,-43.0561 152.148,-33.0561 148.648,-43.0561 155.648,-43.0561"/>
<text text-anchor="middle" x="159.148" y="-72" font-family="Verdana" font-size="10.00"> 5 </text>
</g>
<!-- root&#45;&gt;end -->
<g id="edge7" class="edge"><title>root&#45;&gt;end</title>
<path fill="none" stroke="black" d="M157.656,-115.705C161.74,-106.277 166.962,-92.5994 169.148,-80 171.379,-67.1463 168.097,-53.1067 163.84,-41.596"/>
<polygon fill="black" stroke="black" points="167.02,-40.1268 159.962,-32.2249 160.552,-42.8033 167.02,-40.1268"/>
<text text-anchor="middle" x="176.148" y="-72" font-family="Verdana" font-size="10.00"> 6 </text>
</g>
<!-- root&#45;&gt;end -->
<g id="edge8" class="edge"><title>root&#45;&gt;end</title>
<path fill="none" stroke="black" d="M163.752,-115.788C171.767,-106.827 181.747,-93.7116 186.148,-80 191.241,-64.1371 181.529,-47.6405 171.2,-35.5812"/>
<polygon fill="black" stroke="black" points="173.507,-32.924 164.124,-28.0037 168.391,-37.7014 173.507,-32.924"/>
<text text-anchor="middle" x="194.148" y="-72" font-family="Verdana" font-size="10.00"> 7 </text>
</g>
<!-- root&#45;&gt;end -->
<g id="edge9" class="edge"><title>root&#45;&gt;end</title>
<path fill="none" stroke="black" d="M164.757,-121.541C183.035,-111.983 213.72,-91.9512 204.148,-69 197.991,-54.235 185.312,-41.5362 174.016,-32.4427"/>
<polygon fill="black" stroke="black" points="175.866,-29.4542 165.778,-26.2171 171.646,-35.0387 175.866,-29.4542"/>
<text text-anchor="middle" x="212.148" y="-72" font-family="Verdana" font-size="10.00"> 8 </text>
</g>
<!-- root&#45;&gt;end -->
<g id="edge10" class="edge"><title>root&#45;&gt;end</title>
<path fill="none" stroke="black" d="M164.838,-123.174C181.498,-116.726 210.045,-102.84 222.148,-80 234.54,-56.6162 203.023,-37.7438 178.33,-27.0724"/>
<polygon fill="black" stroke="black" points="179.558,-23.7934 168.976,-23.2649 176.919,-30.2768 179.558,-23.7934"/>
<text text-anchor="middle" x="231.148" y="-72" font-family="Verdana" font-size="10.00"> 9 </text>
</g>
</g>
</svg>
