<?xml version="1.0" encoding="UTF-8" standalone="no"?>
<!DOCTYPE svg PUBLIC "-//W3C//DTD SVG 1.1//EN"
 "http://www.w3.org/Graphics/SVG/1.1/DTD/svg11.dtd">
<!-- Generated by graphviz version 2.38.0 (20140413.2041)
 -->
<!-- Title: %3 Pages: 1 -->
<svg width="570pt" height="277pt"
 viewBox="0.00 0.00 570.00 277.00" xmlns="http://www.w3.org/2000/svg" xmlns:xlink="http://www.w3.org/1999/xlink">
<g id="graph0" class="graph" transform="scale(1 1) rotate(0) translate(4 273)">
<title>%3</title>
<polygon fill="white" stroke="none" points="-4,4 -4,-273 566,-273 566,4 -4,4"/>
<!-- Statement0 -->
<g id="node1" class="node"><title>Statement0</title>
<polygon fill="none" stroke="black" points="217,-269 150,-269 150,-244 217,-244 217,-269"/>
<text text-anchor="middle" x="183.5" y="-254" font-family="Verdana" font-size="10.00">Statement</text>
</g>
<!-- if0 -->
<g id="node2" class="node"><title>if0</title>
<polygon fill="none" stroke="black" points="25,-208 0,-208 0,-183 25,-183 25,-208"/>
<text text-anchor="middle" x="12.5" y="-193" font-family="Verdana" font-size="10.00">if</text>
</g>
<!-- Statement0&#45;&gt;if0 -->
<g id="edge1" class="edge"><title>Statement0&#45;&gt;if0</title>
<path fill="none" stroke="black" d="M149.76,-246.841C120.957,-239.009 78.4281,-226.402 34.5622,-207.98"/>
<polygon fill="black" stroke="black" points="35.7559,-204.683 25.1858,-203.96 32.9977,-211.117 35.7559,-204.683"/>
</g>
<!-- openParen0 -->
<g id="node3" class="node"><title>openParen0</title>
<polygon fill="none" stroke="black" points="68,-208 43,-208 43,-183 68,-183 68,-208"/>
<text text-anchor="middle" x="55.5" y="-193" font-family="Verdana" font-size="10.00">(</text>
</g>
<!-- Statement0&#45;&gt;openParen0 -->
<g id="edge2" class="edge"><title>Statement0&#45;&gt;openParen0</title>
<path fill="none" stroke="black" d="M156.28,-243.842C134.744,-234.489 103.992,-220.845 77.5,-208 77.4079,-207.955 77.3156,-207.911 77.2232,-207.866"/>
<polygon fill="black" stroke="black" points="78.9672,-204.825 68.4631,-203.442 75.8117,-211.074 78.9672,-204.825"/>
</g>
<!-- Expression0 -->
<g id="node4" class="node"><title>Expression0</title>
<polygon fill="none" stroke="black" points="152.5,-208 86.5,-208 86.5,-183 152.5,-183 152.5,-208"/>
<text text-anchor="middle" x="119.5" y="-193" font-family="Verdana" font-size="10.00">Expression</text>
</g>
<!-- Statement0&#45;&gt;Expression0 -->
<g id="edge3" class="edge"><title>Statement0&#45;&gt;Expression0</title>
<path fill="none" stroke="black" d="M170.856,-243.843C161.915,-235.601 149.744,-224.382 139.496,-214.933"/>
<polygon fill="black" stroke="black" points="141.843,-212.337 132.118,-208.132 137.098,-217.484 141.843,-212.337"/>
</g>
<!-- closeParen0 -->
<g id="node6" class="node"><title>closeParen0</title>
<polygon fill="none" stroke="black" points="196,-208 171,-208 171,-183 196,-183 196,-208"/>
<text text-anchor="middle" x="183.5" y="-193" font-family="Verdana" font-size="10.00">)</text>
</g>
<!-- Statement0&#45;&gt;closeParen0 -->
<g id="edge5" class="edge"><title>Statement0&#45;&gt;closeParen0</title>
<path fill="none" stroke="black" d="M183.5,-243.843C183.5,-236.571 183.5,-226.98 183.5,-218.334"/>
<polygon fill="black" stroke="black" points="187,-218.132 183.5,-208.132 180,-218.132 187,-218.132"/>
</g>
<!-- openCurley0 -->
<g id="node7" class="node"><title>openCurley0</title>
<polygon fill="none" stroke="black" points="239,-208 214,-208 214,-183 239,-183 239,-208"/>
<text text-anchor="middle" x="226.5" y="-193" font-family="Verdana" font-size="10.00">{</text>
</g>
<!-- Statement0&#45;&gt;openCurley0 -->
<g id="edge6" class="edge"><title>Statement0&#45;&gt;openCurley0</title>
<path fill="none" stroke="black" d="M191.995,-243.843C197.708,-236.005 205.383,-225.474 212.044,-216.335"/>
<polygon fill="black" stroke="black" points="214.961,-218.275 218.022,-208.132 209.304,-214.152 214.961,-218.275"/>
</g>
<!-- Statement1 -->
<g id="node8" class="node"><title>Statement1</title>
<polygon fill="none" stroke="black" points="324,-208 257,-208 257,-183 324,-183 324,-208"/>
<text text-anchor="middle" x="290.5" y="-193" font-family="Verdana" font-size="10.00">Statement</text>
</g>
<!-- Statement0&#45;&gt;Statement1 -->
<g id="edge7" class="edge"><title>Statement0&#45;&gt;Statement1</title>
<path fill="none" stroke="black" d="M204.385,-243.984C220.336,-235.188 242.543,-222.944 260.41,-213.091"/>
<polygon fill="black" stroke="black" points="262.235,-216.082 269.302,-208.188 258.855,-209.952 262.235,-216.082"/>
</g>
<!-- closeCurley0 -->
<g id="node23" class="node"><title>closeCurley0</title>
<polygon fill="none" stroke="black" points="367,-208 342,-208 342,-183 367,-183 367,-208"/>
<text text-anchor="middle" x="354.5" y="-193" font-family="Verdana" font-size="10.00">}</text>
</g>
<!-- Statement0&#45;&gt;closeCurley0 -->
<g id="edge22" class="edge"><title>Statement0&#45;&gt;closeCurley0</title>
<path fill="none" stroke="black" d="M217.234,-246.552C247.829,-238.015 293.91,-224.095 332.5,-208 332.594,-207.961 332.689,-207.921 332.784,-207.881"/>
<polygon fill="black" stroke="black" points="334.104,-211.129 341.649,-203.691 331.113,-204.8 334.104,-211.129"/>
</g>
<!-- true0 -->
<g id="node5" class="node"><title>true0</title>
<polygon fill="none" stroke="black" points="113,-147 78,-147 78,-122 113,-122 113,-147"/>
<text text-anchor="middle" x="95.5" y="-132" font-family="Verdana" font-size="10.00">true</text>
</g>
<!-- Expression0&#45;&gt;true0 -->
<g id="edge4" class="edge"><title>Expression0&#45;&gt;true0</title>
<path fill="none" stroke="black" d="M114.758,-182.843C111.701,-175.328 107.638,-165.338 104.031,-156.473"/>
<polygon fill="black" stroke="black" points="107.242,-155.076 100.232,-147.132 100.758,-157.714 107.242,-155.076"/>
</g>
<!-- if1 -->
<g id="node9" class="node"><title>if1</title>
<polygon fill="none" stroke="black" points="156,-147 131,-147 131,-122 156,-122 156,-147"/>
<text text-anchor="middle" x="143.5" y="-132" font-family="Verdana" font-size="10.00">if</text>
</g>
<!-- Statement1&#45;&gt;if1 -->
<g id="edge8" class="edge"><title>Statement1&#45;&gt;if1</title>
<path fill="none" stroke="black" d="M256.816,-183.252C233.239,-175.061 200.932,-163.205 165.737,-147.228"/>
<polygon fill="black" stroke="black" points="166.783,-143.856 156.236,-142.846 163.851,-150.213 166.783,-143.856"/>
</g>
<!-- openParen1 -->
<g id="node10" class="node"><title>openParen1</title>
<polygon fill="none" stroke="black" points="199,-147 174,-147 174,-122 199,-122 199,-147"/>
<text text-anchor="middle" x="186.5" y="-132" font-family="Verdana" font-size="10.00">(</text>
</g>
<!-- Statement1&#45;&gt;openParen1 -->
<g id="edge9" class="edge"><title>Statement1&#45;&gt;openParen1</title>
<path fill="none" stroke="black" d="M269.953,-182.843C252.007,-172.663 226.055,-157.94 207.87,-147.623"/>
<polygon fill="black" stroke="black" points="209.577,-144.568 199.152,-142.677 206.123,-150.656 209.577,-144.568"/>
</g>
<!-- Expression1 -->
<g id="node11" class="node"><title>Expression1</title>
<polygon fill="none" stroke="black" points="283.5,-147 217.5,-147 217.5,-122 283.5,-122 283.5,-147"/>
<text text-anchor="middle" x="250.5" y="-132" font-family="Verdana" font-size="10.00">Expression</text>
</g>
<!-- Statement1&#45;&gt;Expression1 -->
<g id="edge10" class="edge"><title>Statement1&#45;&gt;Expression1</title>
<path fill="none" stroke="black" d="M282.597,-182.843C277.338,-175.086 270.291,-164.691 264.139,-155.618"/>
<polygon fill="black" stroke="black" points="266.895,-153.445 258.386,-147.132 261.101,-157.373 266.895,-153.445"/>
</g>
<!-- closeParen1 -->
<g id="node13" class="node"><title>closeParen1</title>
<polygon fill="none" stroke="black" points="327,-147 302,-147 302,-122 327,-122 327,-147"/>
<text text-anchor="middle" x="314.5" y="-132" font-family="Verdana" font-size="10.00">)</text>
</g>
<!-- Statement1&#45;&gt;closeParen1 -->
<g id="edge12" class="edge"><title>Statement1&#45;&gt;closeParen1</title>
<path fill="none" stroke="black" d="M295.242,-182.843C298.299,-175.328 302.362,-165.338 305.969,-156.473"/>
<polygon fill="black" stroke="black" points="309.242,-157.714 309.768,-147.132 302.758,-155.076 309.242,-157.714"/>
</g>
<!-- openCurley1 -->
<g id="node14" class="node"><title>openCurley1</title>
<polygon fill="none" stroke="black" points="370,-147 345,-147 345,-122 370,-122 370,-147"/>
<text text-anchor="middle" x="357.5" y="-132" font-family="Verdana" font-size="10.00">{</text>
</g>
<!-- Statement1&#45;&gt;openCurley1 -->
<g id="edge13" class="edge"><title>Statement1&#45;&gt;openCurley1</title>
<path fill="none" stroke="black" d="M303.737,-182.843C313.219,-174.494 326.169,-163.09 336.984,-153.566"/>
<polygon fill="black" stroke="black" points="339.553,-155.968 344.745,-146.732 334.927,-150.714 339.553,-155.968"/>
</g>
<!-- Statement2 -->
<g id="node15" class="node"><title>Statement2</title>
<polygon fill="none" stroke="black" points="455,-147 388,-147 388,-122 455,-122 455,-147"/>
<text text-anchor="middle" x="421.5" y="-132" font-family="Verdana" font-size="10.00">Statement</text>
</g>
<!-- Statement1&#45;&gt;Statement2 -->
<g id="edge14" class="edge"><title>Statement1&#45;&gt;Statement2</title>
<path fill="none" stroke="black" d="M316.069,-182.984C336.046,-173.987 364.038,-161.38 386.158,-151.417"/>
<polygon fill="black" stroke="black" points="387.867,-154.486 395.548,-147.188 384.992,-148.104 387.867,-154.486"/>
</g>
<!-- closeCurley1 -->
<g id="node22" class="node"><title>closeCurley1</title>
<polygon fill="none" stroke="black" points="498,-147 473,-147 473,-122 498,-122 498,-147"/>
<text text-anchor="middle" x="485.5" y="-132" font-family="Verdana" font-size="10.00">}</text>
</g>
<!-- Statement1&#45;&gt;closeCurley1 -->
<g id="edge21" class="edge"><title>Statement1&#45;&gt;closeCurley1</title>
<path fill="none" stroke="black" d="M324.425,-185.208C327.157,-184.46 329.875,-183.717 332.5,-183 388.18,-167.784 406.282,-169.526 463.345,-146.894"/>
<polygon fill="black" stroke="black" points="464.894,-150.043 472.85,-143.047 462.268,-143.555 464.894,-150.043"/>
</g>
<!-- false1 -->
<g id="node12" class="node"><title>false1</title>
<polygon fill="none" stroke="black" points="269.5,-86 231.5,-86 231.5,-61 269.5,-61 269.5,-86"/>
<text text-anchor="middle" x="250.5" y="-71" font-family="Verdana" font-size="10.00">false</text>
</g>
<!-- Expression1&#45;&gt;false1 -->
<g id="edge11" class="edge"><title>Expression1&#45;&gt;false1</title>
<path fill="none" stroke="black" d="M250.5,-121.843C250.5,-114.571 250.5,-104.98 250.5,-96.3339"/>
<polygon fill="black" stroke="black" points="254,-96.1323 250.5,-86.1323 247,-96.1323 254,-96.1323"/>
</g>
<!-- var2 -->
<g id="node16" class="node"><title>var2</title>
<polygon fill="none" stroke="black" points="324.5,-86 294.5,-86 294.5,-61 324.5,-61 324.5,-86"/>
<text text-anchor="middle" x="309.5" y="-71" font-family="Verdana" font-size="10.00">var</text>
</g>
<!-- Statement2&#45;&gt;var2 -->
<g id="edge15" class="edge"><title>Statement2&#45;&gt;var2</title>
<path fill="none" stroke="black" d="M399.639,-121.984C380.601,-111.955 353.05,-97.4414 333.426,-87.1038"/>
<polygon fill="black" stroke="black" points="334.98,-83.9666 324.501,-82.4025 331.718,-90.1599 334.98,-83.9666"/>
</g>
<!-- zombie2 -->
<g id="node17" class="node"><title>zombie2</title>
<polygon fill="none" stroke="black" points="390.5,-86 342.5,-86 342.5,-61 390.5,-61 390.5,-86"/>
<text text-anchor="middle" x="366.5" y="-71" font-family="Verdana" font-size="10.00">zombie</text>
</g>
<!-- Statement2&#45;&gt;zombie2 -->
<g id="edge16" class="edge"><title>Statement2&#45;&gt;zombie2</title>
<path fill="none" stroke="black" d="M410.634,-121.843C403.101,-113.763 392.9,-102.82 384.204,-93.4912"/>
<polygon fill="black" stroke="black" points="386.723,-91.0604 377.344,-86.1323 381.602,-95.8336 386.723,-91.0604"/>
</g>
<!-- assign2 -->
<g id="node18" class="node"><title>assign2</title>
<polygon fill="none" stroke="black" points="434,-86 409,-86 409,-61 434,-61 434,-86"/>
<text text-anchor="middle" x="421.5" y="-71" font-family="Verdana" font-size="10.00">=</text>
</g>
<!-- Statement2&#45;&gt;assign2 -->
<g id="edge17" class="edge"><title>Statement2&#45;&gt;assign2</title>
<path fill="none" stroke="black" d="M421.5,-121.843C421.5,-114.571 421.5,-104.98 421.5,-96.3339"/>
<polygon fill="black" stroke="black" points="425,-96.1323 421.5,-86.1323 418,-96.1323 425,-96.1323"/>
</g>
<!-- Expression2 -->
<g id="node19" class="node"><title>Expression2</title>
<polygon fill="none" stroke="black" points="518.5,-86 452.5,-86 452.5,-61 518.5,-61 518.5,-86"/>
<text text-anchor="middle" x="485.5" y="-71" font-family="Verdana" font-size="10.00">Expression</text>
</g>
<!-- Statement2&#45;&gt;Expression2 -->
<g id="edge18" class="edge"><title>Statement2&#45;&gt;Expression2</title>
<path fill="none" stroke="black" d="M434.144,-121.843C443.085,-113.601 455.256,-102.382 465.504,-92.9334"/>
<polygon fill="black" stroke="black" points="467.902,-95.4837 472.882,-86.1323 463.157,-90.337 467.902,-95.4837"/>
</g>
<!-- endStatement2 -->
<g id="node21" class="node"><title>endStatement2</title>
<polygon fill="none" stroke="black" points="562,-86 537,-86 537,-61 562,-61 562,-86"/>
<text text-anchor="middle" x="549.5" y="-71" font-family="Verdana" font-size="10.00">;</text>
</g>
<!-- Statement2&#45;&gt;endStatement2 -->
<g id="edge20" class="edge"><title>Statement2&#45;&gt;endStatement2</title>
<path fill="none" stroke="black" d="M448.72,-121.842C470.256,-112.489 501.008,-98.8455 527.5,-86 527.592,-85.9553 527.684,-85.9105 527.777,-85.8656"/>
<polygon fill="black" stroke="black" points="529.188,-89.0738 536.537,-81.4416 526.033,-82.8254 529.188,-89.0738"/>
</g>
<!-- true2 -->
<g id="node20" class="node"><title>true2</title>
<polygon fill="none" stroke="black" points="503,-25 468,-25 468,-0 503,-0 503,-25"/>
<text text-anchor="middle" x="485.5" y="-10" font-family="Verdana" font-size="10.00">true</text>
</g>
<!-- Expression2&#45;&gt;true2 -->
<g id="edge19" class="edge"><title>Expression2&#45;&gt;true2</title>
<path fill="none" stroke="black" d="M485.5,-60.8435C485.5,-53.5707 485.5,-43.9803 485.5,-35.3339"/>
<polygon fill="black" stroke="black" points="489,-35.1323 485.5,-25.1323 482,-35.1323 489,-35.1323"/>
</g>
</g>
</svg>
