<?xml version="1.0" encoding="UTF-8" standalone="no"?>
<!DOCTYPE svg PUBLIC "-//W3C//DTD SVG 1.1//EN"
 "http://www.w3.org/Graphics/SVG/1.1/DTD/svg11.dtd">
<!-- Generated by graphviz version 2.38.0 (20140413.2041)
 -->
<!-- Title: %3 Pages: 1 -->
<svg width="55pt" height="353pt"
 viewBox="0.00 0.00 54.57 353.00" xmlns="http://www.w3.org/2000/svg" xmlns:xlink="http://www.w3.org/1999/xlink">
<g id="graph0" class="graph" transform="scale(1 1) rotate(0) translate(4 349)">
<title>%3</title>
<polygon fill="white" stroke="none" points="-4,4 -4,-349 50.5709,-349 50.5709,4 -4,4"/>
<!-- root -->
<g id="node1" class="node"><title>root</title>
<polygon fill="none" stroke="black" points="35.7854,-345 10.7854,-345 10.7854,-320 35.7854,-320 35.7854,-345"/>
</g>
<!-- s0 -->
<g id="node2" class="node"><title>s0</title>
<polygon fill="none" stroke="black" points="35.7854,-275.322 35.7854,-285.678 28.4631,-293 18.1078,-293 10.7854,-285.678 10.7854,-275.322 18.1078,-268 28.4631,-268 35.7854,-275.322"/>
</g>
<!-- root&#45;&gt;s0 -->
<g id="edge1" class="edge"><title>root&#45;&gt;s0</title>
<path fill="none" stroke="black" d="M23.2854,-319.903C23.2854,-314.981 23.2854,-309.074 23.2854,-303.386"/>
<polygon fill="black" stroke="black" points="26.7855,-303.034 23.2854,-293.034 19.7855,-303.034 26.7855,-303.034"/>
<text text-anchor="middle" x="30.2854" y="-304" font-family="Verdana" font-size="10.00"> e </text>
</g>
<!-- s1 -->
<g id="node3" class="node"><title>s1</title>
<polygon fill="none" stroke="black" points="35.7854,-223.322 35.7854,-233.678 28.4631,-241 18.1078,-241 10.7854,-233.678 10.7854,-223.322 18.1078,-216 28.4631,-216 35.7854,-223.322"/>
</g>
<!-- s0&#45;&gt;s1 -->
<g id="edge2" class="edge"><title>s0&#45;&gt;s1</title>
<path fill="none" stroke="black" d="M23.2854,-267.903C23.2854,-262.981 23.2854,-257.074 23.2854,-251.386"/>
<polygon fill="black" stroke="black" points="26.7855,-251.034 23.2854,-241.034 19.7855,-251.034 26.7855,-251.034"/>
<text text-anchor="middle" x="29.7854" y="-252" font-family="Verdana" font-size="10.00"> x </text>
</g>
<!-- s2 -->
<g id="node4" class="node"><title>s2</title>
<polygon fill="none" stroke="black" points="35.7854,-171.322 35.7854,-181.678 28.4631,-189 18.1078,-189 10.7854,-181.678 10.7854,-171.322 18.1078,-164 28.4631,-164 35.7854,-171.322"/>
</g>
<!-- s1&#45;&gt;s2 -->
<g id="edge3" class="edge"><title>s1&#45;&gt;s2</title>
<path fill="none" stroke="black" d="M23.2854,-215.903C23.2854,-210.981 23.2854,-205.074 23.2854,-199.386"/>
<polygon fill="black" stroke="black" points="26.7855,-199.034 23.2854,-189.034 19.7855,-199.034 26.7855,-199.034"/>
<text text-anchor="middle" x="29.7854" y="-200" font-family="Verdana" font-size="10.00"> t </text>
</g>
<!-- s3 -->
<g id="node5" class="node"><title>s3</title>
<polygon fill="none" stroke="black" points="35.7854,-119.322 35.7854,-129.678 28.4631,-137 18.1078,-137 10.7854,-129.678 10.7854,-119.322 18.1078,-112 28.4631,-112 35.7854,-119.322"/>
</g>
<!-- s2&#45;&gt;s3 -->
<g id="edge4" class="edge"><title>s2&#45;&gt;s3</title>
<path fill="none" stroke="black" d="M23.2854,-163.903C23.2854,-158.981 23.2854,-153.074 23.2854,-147.386"/>
<polygon fill="black" stroke="black" points="26.7855,-147.034 23.2854,-137.034 19.7855,-147.034 26.7855,-147.034"/>
<text text-anchor="middle" x="30.2854" y="-148" font-family="Verdana" font-size="10.00"> e </text>
</g>
<!-- s4 -->
<g id="node6" class="node"><title>s4</title>
<polygon fill="none" stroke="black" points="35.7854,-67.3223 35.7854,-77.6777 28.4631,-85 18.1078,-85 10.7854,-77.6777 10.7854,-67.3223 18.1078,-60 28.4631,-60 35.7854,-67.3223"/>
</g>
<!-- s3&#45;&gt;s4 -->
<g id="edge5" class="edge"><title>s3&#45;&gt;s4</title>
<path fill="none" stroke="black" d="M23.2854,-111.903C23.2854,-106.981 23.2854,-101.074 23.2854,-95.3864"/>
<polygon fill="black" stroke="black" points="26.7855,-95.0338 23.2854,-85.0338 19.7855,-95.0338 26.7855,-95.0338"/>
<text text-anchor="middle" x="29.2854" y="-96" font-family="Verdana" font-size="10.00"> r </text>
</g>
<!-- s5 -->
<g id="node7" class="node"><title>s5</title>
<polygon fill="none" stroke="black" points="42.3948,-11.3223 42.3948,-21.6777 31.2008,-29 15.3701,-29 4.17609,-21.6777 4.17609,-11.3223 15.3701,-4 31.2008,-4 42.3948,-11.3223"/>
<polygon fill="none" stroke="black" points="46.3583,-9.14823 46.3583,-23.8518 32.3729,-33 14.1979,-33 0.212609,-23.8518 0.212609,-9.14823 14.1979,-0 32.3729,-0 46.3583,-9.14823"/>
<text text-anchor="middle" x="23.2854" y="-14" font-family="Verdana" font-size="10.00">extern</text>
</g>
<!-- s4&#45;&gt;s5 -->
<g id="edge6" class="edge"><title>s4&#45;&gt;s5</title>
<path fill="none" stroke="black" d="M23.2854,-59.7828C23.2854,-54.8973 23.2854,-49.0163 23.2854,-43.2147"/>
<polygon fill="black" stroke="black" points="26.7855,-43.0896 23.2854,-33.0896 19.7855,-43.0896 26.7855,-43.0896"/>
<text text-anchor="middle" x="30.2854" y="-44" font-family="Verdana" font-size="10.00"> n </text>
</g>
</g>
</svg>
