<?xml version="1.0" encoding="UTF-8" standalone="no"?>
<!DOCTYPE svg PUBLIC "-//W3C//DTD SVG 1.1//EN"
 "http://www.w3.org/Graphics/SVG/1.1/DTD/svg11.dtd">
<!-- Generated by graphviz version 2.38.0 (20140413.2041)
 -->
<!-- Title: %3 Pages: 1 -->
<svg width="62pt" height="143pt"
 viewBox="0.00 0.00 62.00 143.00" xmlns="http://www.w3.org/2000/svg" xmlns:xlink="http://www.w3.org/1999/xlink">
<g id="graph0" class="graph" transform="scale(1 1) rotate(0) translate(4 139)">
<title>%3</title>
<polygon fill="white" stroke="none" points="-4,4 -4,-139 58,-139 58,4 -4,4"/>
<!-- ... -->
<g id="node1" class="node"><title>...</title>
<polygon fill="none" stroke="black" points="54,-135 0,-135 0,-116 54,-116 54,-135"/>
<text text-anchor="middle" x="27" y="-123" font-family="Verdana" font-size="10.00">...</text>
</g>
<!-- var a\nvar b -->
<g id="node2" class="node"><title>var a\nvar b</title>
<polygon fill="none" stroke="black" points="54,-80 0,-80 0,-50 54,-50 54,-80"/>
<text text-anchor="middle" x="27" y="-68" font-family="Verdana" font-size="10.00">var a</text>
<text text-anchor="middle" x="27" y="-57" font-family="Verdana" font-size="10.00">var b</text>
</g>
<!-- ...&#45;&gt;var a\nvar b -->
<g id="edge1" class="edge"><title>...&#45;&gt;var a\nvar b</title>
<path fill="none" stroke="black" d="M27,-115.868C27,-109.106 27,-99.3536 27,-90.263"/>
<polygon fill="black" stroke="black" points="30.5001,-90.1146 27,-80.1146 23.5001,-90.1146 30.5001,-90.1146"/>
</g>
<g id="node3" class="node"><title></title>
<polygon fill="none" stroke="black" points="54,-14 0,-14 0,8.88178e-016 54,8.88178e-016 54,-14"/>
</g>
<!-- var a\nvar b&#45;&gt; -->
<g id="edge2" class="edge"><title>var a\nvar b&#45;&gt;</title>
<path fill="none" stroke="black" d="M27,-49.8688C27,-42.0287 27,-32.2477 27,-24.1115"/>
<polygon fill="black" stroke="black" points="30.5001,-24.0795 27,-14.0795 23.5001,-24.0796 30.5001,-24.0795"/>
</g>
</g>
</svg>
