<?xml version="1.0" encoding="UTF-8" standalone="no"?>
<!DOCTYPE svg PUBLIC "-//W3C//DTD SVG 1.1//EN"
 "http://www.w3.org/Graphics/SVG/1.1/DTD/svg11.dtd">
<!-- Generated by graphviz version 2.38.0 (20140413.2041)
 -->
<!-- Title: %3 Pages: 1 -->
<svg width="169pt" height="145pt"
 viewBox="0.00 0.00 168.58 145.00" xmlns="http://www.w3.org/2000/svg" xmlns:xlink="http://www.w3.org/1999/xlink">
<g id="graph0" class="graph" transform="scale(1 1) rotate(0) translate(4 141)">
<title>%3</title>
<polygon fill="white" stroke="none" points="-4,4 -4,-141 164.581,-141 164.581,4 -4,4"/>
<!-- root -->
<g id="node1" class="node"><title>root</title>
<polygon fill="none" stroke="black" points="63.9207,-137 38.9207,-137 38.9207,-112 63.9207,-112 63.9207,-137"/>
</g>
<!-- s0 -->
<g id="node2" class="node"><title>s0</title>
<polygon fill="none" stroke="black" points="63.9207,-67.3223 63.9207,-77.6777 56.5984,-85 46.243,-85 38.9207,-77.6777 38.9207,-67.3223 46.243,-60 56.5984,-60 63.9207,-67.3223"/>
</g>
<!-- root&#45;&gt;s0 -->
<g id="edge1" class="edge"><title>root&#45;&gt;s0</title>
<path fill="none" stroke="black" d="M51.4207,-111.903C51.4207,-106.981 51.4207,-101.074 51.4207,-95.3864"/>
<polygon fill="black" stroke="black" points="54.9208,-95.0338 51.4207,-85.0338 47.9208,-95.0338 54.9208,-95.0338"/>
<text text-anchor="middle" x="57.4207" y="-96" font-family="Verdana" font-size="10.00"> &quot; </text>
</g>
<!-- s0&#45;&gt;s0 -->
<g id="edge4" class="edge"><title>s0&#45;&gt;s0</title>
<path fill="none" stroke="black" d="M64.1672,-76.2312C77.6807,-78.568 92.9207,-77.3242 92.9207,-72.5 92.9207,-68.8818 84.3482,-67.2777 74.361,-67.6876"/>
<polygon fill="black" stroke="black" points="73.7422,-64.2335 64.1672,-68.7688 74.4806,-71.1944 73.7422,-64.2335"/>
<text text-anchor="middle" x="114.421" y="-70" font-family="Verdana" font-size="10.00"> default </text>
</g>
<!-- s1 -->
<g id="node3" class="node"><title>s1</title>
<polygon fill="none" stroke="black" points="33.9207,-11.3223 33.9207,-21.6777 26.5984,-29 16.243,-29 8.92071,-21.6777 8.92071,-11.3223 16.243,-4 26.5984,-4 33.9207,-11.3223"/>
</g>
<!-- s0&#45;&gt;s1 -->
<g id="edge2" class="edge"><title>s0&#45;&gt;s1</title>
<path fill="none" stroke="black" d="M38.5019,-70.3091C26.8803,-68.4757 10.4386,-63.8203 2.42071,-52 -1.69605,-45.9309 0.971378,-38.8918 5.46113,-32.7606"/>
<polygon fill="black" stroke="black" points="8.21127,-34.9352 12.2471,-25.1391 2.98323,-30.2803 8.21127,-34.9352"/>
<text text-anchor="middle" x="8.92071" y="-44" font-family="Verdana" font-size="10.00"> \ </text>
</g>
<!-- s2 -->
<g id="node4" class="node"><title>s2</title>
<polygon fill="none" stroke="black" points="156.726,-11.3223 156.726,-21.6777 135.459,-29 105.383,-29 84.1157,-21.6777 84.1157,-11.3223 105.383,-4 135.459,-4 156.726,-11.3223"/>
<polygon fill="none" stroke="black" points="160.742,-8.47281 160.742,-24.5272 136.133,-33 104.708,-33 80.0997,-24.5272 80.0997,-8.47281 104.708,-0 136.133,-0 160.742,-8.47281"/>
<text text-anchor="middle" x="120.421" y="-14" font-family="Verdana" font-size="10.00">StringLiteral</text>
</g>
<!-- s0&#45;&gt;s2 -->
<g id="edge5" class="edge"><title>s0&#45;&gt;s2</title>
<path fill="none" stroke="black" d="M62.0591,-65.4407C68.1885,-61.7959 75.9385,-56.9209 82.4207,-52 87.2402,-48.3414 92.1766,-44.1962 96.8288,-40.08"/>
<polygon fill="black" stroke="black" points="99.2736,-42.5876 104.319,-33.2713 94.565,-37.4079 99.2736,-42.5876"/>
<text text-anchor="middle" x="102.421" y="-44" font-family="Verdana" font-size="10.00"> &quot; </text>
</g>
<!-- s1&#45;&gt;s0 -->
<g id="edge3" class="edge"><title>s1&#45;&gt;s0</title>
<path fill="none" stroke="black" d="M27.4826,-28.4115C31.1811,-35.0687 36.0207,-43.78 40.3799,-51.6265"/>
<polygon fill="black" stroke="black" points="37.4337,-53.5305 45.3498,-60.5723 43.5528,-50.1309 37.4337,-53.5305"/>
<text text-anchor="middle" x="57.9207" y="-44" font-family="Verdana" font-size="10.00"> [nrt&quot;] </text>
</g>
</g>
</svg>
