<?xml version="1.0" encoding="UTF-8" standalone="no"?>
<!DOCTYPE svg PUBLIC "-//W3C//DTD SVG 1.1//EN"
 "http://www.w3.org/Graphics/SVG/1.1/DTD/svg11.dtd">
<!-- Generated by graphviz version 2.38.0 (20140413.2041)
 -->
<!-- Title: %3 Pages: 1 -->
<svg width="170pt" height="137pt"
 viewBox="0.00 0.00 170.00 137.00" xmlns="http://www.w3.org/2000/svg" xmlns:xlink="http://www.w3.org/1999/xlink">
<g id="graph0" class="graph" transform="scale(1 1) rotate(0) translate(4 133)">
<title>%3</title>
<polygon fill="white" stroke="none" points="-4,4 -4,-133 166,-133 166,4 -4,4"/>
<!-- + -->
<g id="node1" class="node"><title>+</title>
<polygon fill="none" stroke="black" points="90,-129 36,-129 36,-110 90,-110 90,-129"/>
<text text-anchor="middle" x="63" y="-117" font-family="Verdana" font-size="10.00">+</text>
</g>
<!-- 6 -->
<g id="node2" class="node"><title>6</title>
<polygon fill="none" stroke="black" points="54,-74 0,-74 0,-55 54,-55 54,-74"/>
<text text-anchor="middle" x="27" y="-62" font-family="Verdana" font-size="10.00">6</text>
</g>
<!-- +&#45;&gt;6 -->
<g id="edge1" class="edge"><title>+&#45;&gt;6</title>
<path fill="none" stroke="black" d="M57.0553,-109.748C52.0227,-102.339 44.6632,-91.5042 38.4865,-82.4107"/>
<polygon fill="black" stroke="black" points="41.3482,-80.3946 32.8341,-74.089 35.5577,-84.3278 41.3482,-80.3946"/>
</g>
<!-- * -->
<g id="node3" class="node"><title>*</title>
<polygon fill="none" stroke="black" points="126,-74 72,-74 72,-55 126,-55 126,-74"/>
<text text-anchor="middle" x="99" y="-62" font-family="Verdana" font-size="10.00">*</text>
</g>
<!-- +&#45;&gt;* -->
<g id="edge2" class="edge"><title>+&#45;&gt;*</title>
<path fill="none" stroke="black" d="M68.9447,-109.748C73.9773,-102.339 81.3368,-91.5042 87.5135,-82.4107"/>
<polygon fill="black" stroke="black" points="90.4423,-84.3278 93.1659,-74.089 84.6518,-80.3946 90.4423,-84.3278"/>
</g>
<!-- 2 -->
<g id="node4" class="node"><title>2</title>
<polygon fill="none" stroke="black" points="90,-19 36,-19 36,-0 90,-0 90,-19"/>
<text text-anchor="middle" x="63" y="-7" font-family="Verdana" font-size="10.00">2</text>
</g>
<!-- *&#45;&gt;2 -->
<g id="edge3" class="edge"><title>*&#45;&gt;2</title>
<path fill="none" stroke="black" d="M93.0553,-54.7481C88.0227,-47.339 80.6632,-36.5042 74.4865,-27.4107"/>
<polygon fill="black" stroke="black" points="77.3482,-25.3946 68.8341,-19.089 71.5577,-29.3278 77.3482,-25.3946"/>
</g>
<!-- 4 -->
<g id="node5" class="node"><title>4</title>
<polygon fill="none" stroke="black" points="162,-19 108,-19 108,-0 162,-0 162,-19"/>
<text text-anchor="middle" x="135" y="-7" font-family="Verdana" font-size="10.00">4</text>
</g>
<!-- *&#45;&gt;4 -->
<g id="edge4" class="edge"><title>*&#45;&gt;4</title>
<path fill="none" stroke="black" d="M104.945,-54.7481C109.977,-47.339 117.337,-36.5042 123.513,-27.4107"/>
<polygon fill="black" stroke="black" points="126.442,-29.3278 129.166,-19.089 120.652,-25.3946 126.442,-29.3278"/>
</g>
</g>
</svg>
