<?xml version="1.0" encoding="UTF-8" standalone="no"?>
<!DOCTYPE svg PUBLIC "-//W3C//DTD SVG 1.1//EN"
 "http://www.w3.org/Graphics/SVG/1.1/DTD/svg11.dtd">
<!-- Generated by graphviz version 2.38.0 (20140413.2041)
 -->
<!-- Title: %3 Pages: 1 -->
<svg width="334pt" height="236pt"
 viewBox="0.00 0.00 333.50 236.00" xmlns="http://www.w3.org/2000/svg" xmlns:xlink="http://www.w3.org/1999/xlink">
<g id="graph0" class="graph" transform="scale(1 1) rotate(0) translate(4 232)">
<title>%3</title>
<polygon fill="white" stroke="none" points="-4,4 -4,-232 329.5,-232 329.5,4 -4,4"/>
<!-- [If]\nA -->
<g id="node1" class="node"><title>[If]\nA</title>
<polygon fill="none" stroke="black" points="140,-228 86,-228 86,-198 140,-198 140,-228"/>
<text text-anchor="middle" x="113" y="-216" font-family="Verdana" font-size="10.00">[If]</text>
<text text-anchor="middle" x="113" y="-205" font-family="Verdana" font-size="10.00">A</text>
</g>
<!-- [Name]\nA -->
<g id="node2" class="node"><title>[Name]\nA</title>
<polygon fill="none" stroke="black" points="54,-162 0,-162 0,-132 54,-132 54,-162"/>
<text text-anchor="middle" x="27" y="-150" font-family="Verdana" font-size="10.00">[Name]</text>
<text text-anchor="middle" x="27" y="-139" font-family="Verdana" font-size="10.00">A</text>
</g>
<!-- [If]\nA&#45;&gt;[Name]\nA -->
<g id="edge1" class="edge"><title>[If]\nA&#45;&gt;[Name]\nA</title>
<path fill="none" stroke="black" d="M93.9138,-197.796C82.223,-189.096 67.0742,-177.823 54.1478,-168.203"/>
<polygon fill="black" stroke="black" points="56.1447,-165.326 46.0328,-162.164 51.9656,-170.942 56.1447,-165.326"/>
</g>
<!-- [ScopeNode]\nA... -->
<g id="node3" class="node"><title>[ScopeNode]\nA...</title>
<polygon fill="none" stroke="black" points="153.5,-162 72.5,-162 72.5,-132 153.5,-132 153.5,-162"/>
<text text-anchor="middle" x="113" y="-150" font-family="Verdana" font-size="10.00">[ScopeNode]</text>
<text text-anchor="middle" x="113" y="-139" font-family="Verdana" font-size="10.00">A...</text>
</g>
<!-- [If]\nA&#45;&gt;[ScopeNode]\nA... -->
<g id="edge2" class="edge"><title>[If]\nA&#45;&gt;[ScopeNode]\nA...</title>
<path fill="none" stroke="black" d="M113,-197.796C113,-190.339 113,-180.991 113,-172.415"/>
<polygon fill="black" stroke="black" points="116.5,-172.164 113,-162.164 109.5,-172.164 116.5,-172.164"/>
</g>
<!-- [If]\nB -->
<g id="node4" class="node"><title>[If]\nB</title>
<polygon fill="none" stroke="black" points="226,-162 172,-162 172,-132 226,-132 226,-162"/>
<text text-anchor="middle" x="199" y="-150" font-family="Verdana" font-size="10.00">[If]</text>
<text text-anchor="middle" x="199" y="-139" font-family="Verdana" font-size="10.00">B</text>
</g>
<!-- [If]\nA&#45;&gt;[If]\nB -->
<g id="edge3" class="edge"><title>[If]\nA&#45;&gt;[If]\nB</title>
<path fill="none" stroke="black" d="M132.086,-197.796C143.777,-189.096 158.926,-177.823 171.852,-168.203"/>
<polygon fill="black" stroke="black" points="174.034,-170.942 179.967,-162.164 169.855,-165.326 174.034,-170.942"/>
</g>
<!-- [Name]\nB -->
<g id="node5" class="node"><title>[Name]\nB</title>
<polygon fill="none" stroke="black" points="140,-96 86,-96 86,-66 140,-66 140,-96"/>
<text text-anchor="middle" x="113" y="-84" font-family="Verdana" font-size="10.00">[Name]</text>
<text text-anchor="middle" x="113" y="-73" font-family="Verdana" font-size="10.00">B</text>
</g>
<!-- [If]\nB&#45;&gt;[Name]\nB -->
<g id="edge4" class="edge"><title>[If]\nB&#45;&gt;[Name]\nB</title>
<path fill="none" stroke="black" d="M179.914,-131.796C168.223,-123.096 153.074,-111.823 140.148,-102.203"/>
<polygon fill="black" stroke="black" points="142.145,-99.3263 132.033,-96.164 137.966,-104.942 142.145,-99.3263"/>
</g>
<!-- [ScopeNode]\nB... -->
<g id="node6" class="node"><title>[ScopeNode]\nB...</title>
<polygon fill="none" stroke="black" points="239.5,-96 158.5,-96 158.5,-66 239.5,-66 239.5,-96"/>
<text text-anchor="middle" x="199" y="-84" font-family="Verdana" font-size="10.00">[ScopeNode]</text>
<text text-anchor="middle" x="199" y="-73" font-family="Verdana" font-size="10.00">B...</text>
</g>
<!-- [If]\nB&#45;&gt;[ScopeNode]\nB... -->
<g id="edge5" class="edge"><title>[If]\nB&#45;&gt;[ScopeNode]\nB...</title>
<path fill="none" stroke="black" d="M199,-131.796C199,-124.339 199,-114.991 199,-106.415"/>
<polygon fill="black" stroke="black" points="202.5,-106.164 199,-96.164 195.5,-106.164 202.5,-106.164"/>
</g>
<!-- [If]\nC -->
<g id="node7" class="node"><title>[If]\nC</title>
<polygon fill="none" stroke="black" points="312,-96 258,-96 258,-66 312,-66 312,-96"/>
<text text-anchor="middle" x="285" y="-84" font-family="Verdana" font-size="10.00">[If]</text>
<text text-anchor="middle" x="285" y="-73" font-family="Verdana" font-size="10.00">C</text>
</g>
<!-- [If]\nB&#45;&gt;[If]\nC -->
<g id="edge6" class="edge"><title>[If]\nB&#45;&gt;[If]\nC</title>
<path fill="none" stroke="black" d="M218.086,-131.796C229.777,-123.096 244.926,-111.823 257.852,-102.203"/>
<polygon fill="black" stroke="black" points="260.034,-104.942 265.967,-96.164 255.855,-99.3263 260.034,-104.942"/>
</g>
<!-- [ScopeNode]\nC... -->
<g id="node8" class="node"><title>[ScopeNode]\nC...</title>
<polygon fill="none" stroke="black" points="325.5,-30 244.5,-30 244.5,-0 325.5,-0 325.5,-30"/>
<text text-anchor="middle" x="285" y="-18" font-family="Verdana" font-size="10.00">[ScopeNode]</text>
<text text-anchor="middle" x="285" y="-7" font-family="Verdana" font-size="10.00">C...</text>
</g>
<!-- [If]\nC&#45;&gt;[ScopeNode]\nC... -->
<g id="edge7" class="edge"><title>[If]\nC&#45;&gt;[ScopeNode]\nC...</title>
<path fill="none" stroke="black" d="M285,-65.7963C285,-58.3391 285,-48.9911 285,-40.4146"/>
<polygon fill="black" stroke="black" points="288.5,-40.1639 285,-30.164 281.5,-40.164 288.5,-40.1639"/>
</g>
</g>
</svg>
