<?xml version="1.0" encoding="UTF-8" standalone="no"?>
<!DOCTYPE svg PUBLIC "-//W3C//DTD SVG 1.1//EN"
 "http://www.w3.org/Graphics/SVG/1.1/DTD/svg11.dtd">
<!-- Generated by graphviz version 2.38.0 (20140413.2041)
 -->
<!-- Title: %3 Pages: 1 -->
<svg width="62pt" height="137pt"
 viewBox="0.00 0.00 62.00 137.00" xmlns="http://www.w3.org/2000/svg" xmlns:xlink="http://www.w3.org/1999/xlink">
<g id="graph0" class="graph" transform="scale(1 1) rotate(0) translate(4 133)">
<title>%3</title>
<polygon fill="white" stroke="none" points="-4,4 -4,-133 58,-133 58,4 -4,4"/>
<!-- ... -->
<g id="node1" class="node"><title>...</title>
<polygon fill="none" stroke="black" points="54,-129 0,-129 0,-110 54,-110 54,-129"/>
<text text-anchor="middle" x="27" y="-117" font-family="Verdana" font-size="10.00">...</text>
</g>
<!-- var a -->
<g id="node2" class="node"><title>var a</title>
<polygon fill="none" stroke="black" points="54,-74 0,-74 0,-55 54,-55 54,-74"/>
<text text-anchor="middle" x="27" y="-62" font-family="Verdana" font-size="10.00">var a</text>
</g>
<!-- ...&#45;&gt;var a -->
<g id="edge1" class="edge"><title>...&#45;&gt;var a</title>
<path fill="none" stroke="black" d="M27,-109.748C27,-102.802 27,-92.8451 27,-84.1349"/>
<polygon fill="black" stroke="black" points="30.5001,-84.089 27,-74.089 23.5001,-84.0891 30.5001,-84.089"/>
</g>
<!-- S -->
<g id="node3" class="node"><title>S</title>
<polygon fill="none" stroke="black" points="54,-19 0,-19 0,-0 54,-0 54,-19"/>
<text text-anchor="middle" x="27" y="-7" font-family="Verdana" font-size="10.00">var a</text>
</g>
<!-- var a&#45;&gt;S -->
<g id="edge2" class="edge"><title>var a&#45;&gt;S</title>
<path fill="none" stroke="black" d="M27,-54.7481C27,-47.8021 27,-37.8451 27,-29.1349"/>
<polygon fill="black" stroke="black" points="30.5001,-29.089 27,-19.089 23.5001,-29.0891 30.5001,-29.089"/>
</g>
</g>
</svg>
