<?xml version="1.0" encoding="UTF-8" standalone="no"?>
<!DOCTYPE svg PUBLIC "-//W3C//DTD SVG 1.1//EN"
 "http://www.w3.org/Graphics/SVG/1.1/DTD/svg11.dtd">
<!-- Generated by graphviz version 2.38.0 (20140413.2041)
 -->
<!-- Title: %3 Pages: 1 -->
<svg width="251pt" height="216pt"
 viewBox="0.00 0.00 250.50 216.00" xmlns="http://www.w3.org/2000/svg" xmlns:xlink="http://www.w3.org/1999/xlink">
<g id="graph0" class="graph" transform="scale(1 1) rotate(0) translate(4 212)">
<title>%3</title>
<polygon fill="white" stroke="none" points="-4,4 -4,-212 246.5,-212 246.5,4 -4,4"/>
<!-- Expression0 -->
<g id="node1" class="node"><title>Expression0</title>
<polygon fill="none" stroke="black" points="130,-208 64,-208 64,-183 130,-183 130,-208"/>
<text text-anchor="middle" x="97" y="-193" font-family="Verdana" font-size="10.00">Expression</text>
</g>
<!-- Expression1 -->
<g id="node2" class="node"><title>Expression1</title>
<polygon fill="none" stroke="black" points="66,-147 0,-147 0,-122 66,-122 66,-147"/>
<text text-anchor="middle" x="33" y="-132" font-family="Verdana" font-size="10.00">Expression</text>
</g>
<!-- Expression0&#45;&gt;Expression1 -->
<g id="edge1" class="edge"><title>Expression0&#45;&gt;Expression1</title>
<path fill="none" stroke="black" d="M84.3557,-182.843C75.4147,-174.601 63.2444,-163.382 52.9956,-153.933"/>
<polygon fill="black" stroke="black" points="55.3429,-151.337 45.6181,-147.132 50.5982,-156.484 55.3429,-151.337"/>
</g>
<!-- minus1 -->
<g id="node5" class="node"><title>minus1</title>
<polygon fill="none" stroke="black" points="109.5,-147 84.5,-147 84.5,-122 109.5,-122 109.5,-147"/>
<text text-anchor="middle" x="97" y="-132" font-family="Verdana" font-size="10.00">&#45;</text>
</g>
<!-- Expression0&#45;&gt;minus1 -->
<g id="edge4" class="edge"><title>Expression0&#45;&gt;minus1</title>
<path fill="none" stroke="black" d="M97,-182.843C97,-175.571 97,-165.98 97,-157.334"/>
<polygon fill="black" stroke="black" points="100.5,-157.132 97,-147.132 93.5001,-157.132 100.5,-157.132"/>
</g>
<!-- Expression2 -->
<g id="node6" class="node"><title>Expression2</title>
<polygon fill="none" stroke="black" points="194,-147 128,-147 128,-122 194,-122 194,-147"/>
<text text-anchor="middle" x="161" y="-132" font-family="Verdana" font-size="10.00">Expression</text>
</g>
<!-- Expression0&#45;&gt;Expression2 -->
<g id="edge5" class="edge"><title>Expression0&#45;&gt;Expression2</title>
<path fill="none" stroke="black" d="M109.644,-182.843C118.585,-174.601 130.756,-163.382 141.004,-153.933"/>
<polygon fill="black" stroke="black" points="143.402,-156.484 148.382,-147.132 138.657,-151.337 143.402,-156.484"/>
</g>
<!-- Integer2 -->
<g id="node3" class="node"><title>Integer2</title>
<polygon fill="none" stroke="black" points="58.5,-86 7.5,-86 7.5,-61 58.5,-61 58.5,-86"/>
<text text-anchor="middle" x="33" y="-71" font-family="Verdana" font-size="10.00">Integer</text>
</g>
<!-- Expression1&#45;&gt;Integer2 -->
<g id="edge2" class="edge"><title>Expression1&#45;&gt;Integer2</title>
<path fill="none" stroke="black" d="M33,-121.843C33,-114.571 33,-104.98 33,-96.3339"/>
<polygon fill="black" stroke="black" points="36.5001,-96.1323 33,-86.1323 29.5001,-96.1323 36.5001,-96.1323"/>
</g>
<!-- 8 -->
<g id="node4" class="node"><title>8</title>
<polygon fill="none" stroke="black" points="45.5,-25 20.5,-25 20.5,-0 45.5,-0 45.5,-25"/>
<text text-anchor="middle" x="33" y="-10" font-family="Verdana" font-size="10.00">8</text>
</g>
<!-- Integer2&#45;&gt;8 -->
<g id="edge3" class="edge"><title>Integer2&#45;&gt;8</title>
<path fill="none" stroke="black" d="M33,-60.8435C33,-53.5707 33,-43.9803 33,-35.3339"/>
<polygon fill="black" stroke="black" points="36.5001,-35.1323 33,-25.1323 29.5001,-35.1323 36.5001,-35.1323"/>
</g>
<!-- Integer0 -->
<g id="node7" class="node"><title>Integer0</title>
<polygon fill="none" stroke="black" points="130.5,-86 79.5,-86 79.5,-61 130.5,-61 130.5,-86"/>
<text text-anchor="middle" x="105" y="-71" font-family="Verdana" font-size="10.00">Integer</text>
</g>
<!-- Expression2&#45;&gt;Integer0 -->
<g id="edge6" class="edge"><title>Expression2&#45;&gt;Integer0</title>
<path fill="none" stroke="black" d="M149.936,-121.843C142.266,-113.763 131.88,-102.82 123.026,-93.4912"/>
<polygon fill="black" stroke="black" points="125.464,-90.9759 116.041,-86.1323 120.387,-95.7949 125.464,-90.9759"/>
</g>
<!-- minus0 -->
<g id="node9" class="node"><title>minus0</title>
<polygon fill="none" stroke="black" points="173.5,-86 148.5,-86 148.5,-61 173.5,-61 173.5,-86"/>
<text text-anchor="middle" x="161" y="-71" font-family="Verdana" font-size="10.00">&#45;</text>
</g>
<!-- Expression2&#45;&gt;minus0 -->
<g id="edge8" class="edge"><title>Expression2&#45;&gt;minus0</title>
<path fill="none" stroke="black" d="M161,-121.843C161,-114.571 161,-104.98 161,-96.3339"/>
<polygon fill="black" stroke="black" points="164.5,-96.1323 161,-86.1323 157.5,-96.1323 164.5,-96.1323"/>
</g>
<!-- Integer1 -->
<g id="node10" class="node"><title>Integer1</title>
<polygon fill="none" stroke="black" points="242.5,-86 191.5,-86 191.5,-61 242.5,-61 242.5,-86"/>
<text text-anchor="middle" x="217" y="-71" font-family="Verdana" font-size="10.00">Integer</text>
</g>
<!-- Expression2&#45;&gt;Integer1 -->
<g id="edge9" class="edge"><title>Expression2&#45;&gt;Integer1</title>
<path fill="none" stroke="black" d="M172.064,-121.843C179.734,-113.763 190.12,-102.82 198.974,-93.4912"/>
<polygon fill="black" stroke="black" points="201.613,-95.7949 205.959,-86.1323 196.536,-90.9759 201.613,-95.7949"/>
</g>
<!-- 6 -->
<g id="node8" class="node"><title>6</title>
<polygon fill="none" stroke="black" points="117.5,-25 92.5,-25 92.5,-0 117.5,-0 117.5,-25"/>
<text text-anchor="middle" x="105" y="-10" font-family="Verdana" font-size="10.00">6</text>
</g>
<!-- Integer0&#45;&gt;6 -->
<g id="edge7" class="edge"><title>Integer0&#45;&gt;6</title>
<path fill="none" stroke="black" d="M105,-60.8435C105,-53.5707 105,-43.9803 105,-35.3339"/>
<polygon fill="black" stroke="black" points="108.5,-35.1323 105,-25.1323 101.5,-35.1323 108.5,-35.1323"/>
</g>
<!-- 1 -->
<g id="node11" class="node"><title>1</title>
<polygon fill="none" stroke="black" points="229.5,-25 204.5,-25 204.5,-0 229.5,-0 229.5,-25"/>
<text text-anchor="middle" x="217" y="-10" font-family="Verdana" font-size="10.00">1</text>
</g>
<!-- Integer1&#45;&gt;1 -->
<g id="edge10" class="edge"><title>Integer1&#45;&gt;1</title>
<path fill="none" stroke="black" d="M217,-60.8435C217,-53.5707 217,-43.9803 217,-35.3339"/>
<polygon fill="black" stroke="black" points="220.5,-35.1323 217,-25.1323 213.5,-35.1323 220.5,-35.1323"/>
</g>
</g>
</svg>
