<?xml version="1.0" encoding="UTF-8" standalone="no"?>
<!DOCTYPE svg PUBLIC "-//W3C//DTD SVG 1.1//EN"
 "http://www.w3.org/Graphics/SVG/1.1/DTD/svg11.dtd">
<!-- Generated by graphviz version 2.38.0 (20140413.2041)
 -->
<!-- Title: %3 Pages: 1 -->
<svg width="206pt" height="273pt"
 viewBox="0.00 0.00 205.96 273.00" xmlns="http://www.w3.org/2000/svg" xmlns:xlink="http://www.w3.org/1999/xlink">
<g id="graph0" class="graph" transform="scale(1 1) rotate(0) translate(4 269)">
<title>%3</title>
<polygon fill="white" stroke="none" points="-4,4 -4,-269 201.963,-269 201.963,4 -4,4"/>
<!-- root -->
<g id="node1" class="node"><title>root</title>
<polygon fill="none" stroke="black" points="116.482,-265 91.4815,-265 91.4815,-240 116.482,-240 116.482,-265"/>
</g>
<!-- s0 -->
<g id="node2" class="node"><title>s0</title>
<polygon fill="none" stroke="black" points="116.482,-171.322 116.482,-181.678 109.159,-189 98.8039,-189 91.4815,-181.678 91.4815,-171.322 98.8039,-164 109.159,-164 116.482,-171.322"/>
<polygon fill="none" stroke="black" points="120.482,-169.665 120.482,-183.335 110.816,-193 97.147,-193 87.4815,-183.335 87.4815,-169.665 97.147,-160 110.816,-160 120.482,-169.665"/>
<text text-anchor="middle" x="103.982" y="-174" font-family="Verdana" font-size="10.00">int</text>
</g>
<!-- root&#45;&gt;s0 -->
<g id="edge1" class="edge"><title>root&#45;&gt;s0</title>
<path fill="none" stroke="black" d="M103.982,-239.938C103.982,-230.191 103.982,-215.881 103.982,-203.418"/>
<polygon fill="black" stroke="black" points="107.482,-203.103 103.982,-193.103 100.482,-203.103 107.482,-203.103"/>
<text text-anchor="middle" x="120.982" y="-214" font-family="Verdana" font-size="10.00"> [0&#45;9] </text>
</g>
<!-- s0&#45;&gt;s0 -->
<g id="edge2" class="edge"><title>s0&#45;&gt;s0</title>
<path fill="none" stroke="black" d="M120.309,-183.588C129.72,-185.035 138.482,-182.672 138.482,-176.5 138.482,-172.739 135.228,-170.393 130.557,-169.461"/>
<polygon fill="black" stroke="black" points="130.325,-165.96 120.309,-169.412 130.292,-172.959 130.325,-165.96"/>
<text text-anchor="middle" x="155.482" y="-174" font-family="Verdana" font-size="10.00"> [0&#45;9] </text>
</g>
<!-- s1 -->
<g id="node3" class="node"><title>s1</title>
<polygon fill="none" stroke="black" points="90.5318,-91.3223 90.5318,-101.678 69.1211,-109 38.8419,-109 17.4313,-101.678 17.4313,-91.3223 38.8419,-84 69.1211,-84 90.5318,-91.3223"/>
<polygon fill="none" stroke="black" points="94.5086,-88.4575 94.5086,-104.543 69.7788,-113 38.1843,-113 13.4545,-104.543 13.4545,-88.4575 38.1843,-80 69.7788,-80 94.5086,-88.4575"/>
<text text-anchor="middle" x="53.9815" y="-94" font-family="Verdana" font-size="10.00">unsigned int</text>
</g>
<!-- s0&#45;&gt;s1 -->
<g id="edge3" class="edge"><title>s0&#45;&gt;s1</title>
<path fill="none" stroke="black" d="M95.0425,-161.555C87.9675,-150.518 77.9164,-134.838 69.5296,-121.755"/>
<polygon fill="black" stroke="black" points="72.3895,-119.731 64.0462,-113.201 66.4963,-123.509 72.3895,-119.731"/>
<text text-anchor="middle" x="96.9815" y="-134" font-family="Verdana" font-size="10.00"> [uU] </text>
</g>
<!-- s3 -->
<g id="node5" class="node"><title>s3</title>
<polygon fill="none" stroke="black" points="157.757,-91.3223 157.757,-101.678 150.273,-109 139.69,-109 132.206,-101.678 132.206,-91.3223 139.69,-84 150.273,-84 157.757,-91.3223"/>
<polygon fill="none" stroke="black" points="161.795,-89.6509 161.795,-103.349 151.931,-113 138.032,-113 128.168,-103.349 128.168,-89.6509 138.032,-80 151.931,-80 161.795,-89.6509"/>
<text text-anchor="middle" x="144.982" y="-94" font-family="Verdana" font-size="10.00">long</text>
</g>
<!-- s0&#45;&gt;s3 -->
<g id="edge5" class="edge"><title>s0&#45;&gt;s3</title>
<path fill="none" stroke="black" d="M111.693,-160.829C117.498,-149.787 125.579,-134.412 132.326,-121.577"/>
<polygon fill="black" stroke="black" points="135.61,-122.851 137.165,-112.371 129.414,-119.594 135.61,-122.851"/>
<text text-anchor="middle" x="139.482" y="-134" font-family="Verdana" font-size="10.00"> [lL] </text>
</g>
<!-- s2 -->
<g id="node4" class="node"><title>s2</title>
<polygon fill="none" stroke="black" points="85.9463,-11.3223 85.9463,-21.6777 61.9497,-29 28.0134,-29 4.01681,-21.6777 4.01681,-11.3223 28.0134,-4 61.9497,-4 85.9463,-11.3223"/>
<polygon fill="none" stroke="black" points="89.9446,-8.36046 89.9446,-24.6395 62.5459,-33 27.4172,-33 0.0184489,-24.6395 0.0184489,-8.36046 27.4172,-0 62.5459,-0 89.9446,-8.36046"/>
<text text-anchor="middle" x="44.9815" y="-14" font-family="Verdana" font-size="10.00">unsigned long</text>
</g>
<!-- s1&#45;&gt;s2 -->
<g id="edge4" class="edge"><title>s1&#45;&gt;s2</title>
<path fill="none" stroke="black" d="M52.1603,-79.7155C50.9526,-69.2489 49.3402,-55.2747 47.9494,-43.2219"/>
<polygon fill="black" stroke="black" points="51.4234,-42.7939 46.8001,-33.261 44.4695,-43.5963 51.4234,-42.7939"/>
<text text-anchor="middle" x="63.4815" y="-54" font-family="Verdana" font-size="10.00"> [lL] </text>
</g>
<!-- s4 -->
<g id="node6" class="node"><title>s4</title>
<polygon fill="none" stroke="black" points="193.946,-11.3223 193.946,-21.6777 169.95,-29 136.013,-29 112.017,-21.6777 112.017,-11.3223 136.013,-4 169.95,-4 193.946,-11.3223"/>
<polygon fill="none" stroke="black" points="197.945,-8.36046 197.945,-24.6395 170.546,-33 135.417,-33 108.018,-24.6395 108.018,-8.36046 135.417,-0 170.546,-0 197.945,-8.36046"/>
<text text-anchor="middle" x="152.982" y="-14" font-family="Verdana" font-size="10.00">unsigned long</text>
</g>
<!-- s3&#45;&gt;s4 -->
<g id="edge6" class="edge"><title>s3&#45;&gt;s4</title>
<path fill="none" stroke="black" d="M146.6,-79.7155C147.674,-69.2489 149.107,-55.2747 150.343,-43.2219"/>
<polygon fill="black" stroke="black" points="153.826,-43.5659 151.365,-33.261 146.863,-42.8517 153.826,-43.5659"/>
<text text-anchor="middle" x="164.982" y="-54" font-family="Verdana" font-size="10.00"> [uU] </text>
</g>
</g>
</svg>
