<?xml version="1.0" encoding="UTF-8" standalone="no"?>
<!DOCTYPE svg PUBLIC "-//W3C//DTD SVG 1.1//EN"
 "http://www.w3.org/Graphics/SVG/1.1/DTD/svg11.dtd">
<!-- Generated by graphviz version 2.38.0 (20140413.2041)
 -->
<!-- Title: %3 Pages: 1 -->
<svg width="559pt" height="242pt"
 viewBox="0.00 0.00 559.00 242.00" xmlns="http://www.w3.org/2000/svg" xmlns:xlink="http://www.w3.org/1999/xlink">
<g id="graph0" class="graph" transform="scale(1 1) rotate(0) translate(4 238)">
<title>%3</title>
<polygon fill="white" stroke="none" points="-4,4 -4,-238 555,-238 555,4 -4,4"/>
<!-- f0 -->
<g id="node1" class="node"><title>f0</title>
<polygon fill="none" stroke="black" points="249,-234 195,-234 195,-215 249,-215 249,-234"/>
<text text-anchor="middle" x="222" y="-222" font-family="Verdana" font-size="10.00">[If]</text>
</g>
<!-- f1 -->
<g id="node2" class="node"><title>f1</title>
<polygon fill="none" stroke="black" points="301,-165.5 247,-165.5 247,-146.5 301,-146.5 301,-165.5"/>
<text text-anchor="middle" x="274" y="-153.5" font-family="Verdana" font-size="10.00">[If]</text>
</g>
<!-- f0&#45;&gt;f1 -->
<g id="edge2" class="edge"><title>f0&#45;&gt;f1</title>
<path fill="none" stroke="black" d="M228.798,-214.806C236.851,-204.508 250.455,-187.11 260.64,-174.086"/>
<polygon fill="black" stroke="black" points="263.631,-175.942 267.034,-165.908 258.117,-171.63 263.631,-175.942"/>
<text text-anchor="middle" x="267.5" y="-191.4" font-family="Verdana" font-size="7.00">statement</text>
</g>
<!-- b0 -->
<g id="node3" class="node"><title>b0</title>
<polygon fill="none" stroke="black" points="209.5,-171 102.5,-171 102.5,-141 209.5,-141 209.5,-171"/>
<text text-anchor="middle" x="156" y="-159" font-family="Verdana" font-size="10.00">[BinaryExpression]</text>
<text text-anchor="middle" x="156" y="-148" font-family="Verdana" font-size="10.00">=</text>
</g>
<!-- f0&#45;&gt;b0 -->
<g id="edge1" class="edge"><title>f0&#45;&gt;b0</title>
<path fill="none" stroke="black" d="M213.372,-214.806C204.228,-205.593 189.444,-190.697 177.174,-178.334"/>
<polygon fill="black" stroke="black" points="179.46,-175.669 169.931,-171.037 174.492,-180.6 179.46,-175.669"/>
<text text-anchor="middle" x="212.5" y="-191.4" font-family="Verdana" font-size="7.00">condition</text>
</g>
<!-- b1 -->
<g id="node4" class="node"><title>b1</title>
<polygon fill="none" stroke="black" points="327.5,-97 220.5,-97 220.5,-67 327.5,-67 327.5,-97"/>
<text text-anchor="middle" x="274" y="-85" font-family="Verdana" font-size="10.00">[BinaryExpression]</text>
<text text-anchor="middle" x="274" y="-74" font-family="Verdana" font-size="10.00">&gt;</text>
</g>
<!-- f1&#45;&gt;b1 -->
<g id="edge3" class="edge"><title>f1&#45;&gt;b1</title>
<path fill="none" stroke="black" d="M274,-146.458C274,-136.876 274,-120.904 274,-107.382"/>
<polygon fill="black" stroke="black" points="277.5,-107.232 274,-97.2316 270.5,-107.232 277.5,-107.232"/>
<text text-anchor="middle" x="291.5" y="-117.4" font-family="Verdana" font-size="7.00">condition</text>
</g>
<!-- b2 -->
<g id="node5" class="node"><title>b2</title>
<polygon fill="none" stroke="black" points="452.5,-97 345.5,-97 345.5,-67 452.5,-67 452.5,-97"/>
<text text-anchor="middle" x="399" y="-85" font-family="Verdana" font-size="10.00">[BinaryExpression]</text>
<text text-anchor="middle" x="399" y="-74" font-family="Verdana" font-size="10.00">&lt;</text>
</g>
<!-- f1&#45;&gt;b2 -->
<g id="edge4" class="edge"><title>f1&#45;&gt;b2</title>
<path fill="none" stroke="black" d="M288.83,-146.458C307.607,-135.643 340.516,-116.687 365.491,-102.301"/>
<polygon fill="black" stroke="black" points="367.374,-105.256 374.292,-97.2316 363.88,-99.19 367.374,-105.256"/>
<text text-anchor="middle" x="360.5" y="-117.4" font-family="Verdana" font-size="7.00">statement</text>
</g>
<!-- b0l -->
<g id="node6" class="node"><title>b0l</title>
<polygon fill="none" stroke="black" points="92,-97 0,-97 0,-67 92,-67 92,-97"/>
<text text-anchor="middle" x="46" y="-85" font-family="Verdana" font-size="10.00">[VariableName]</text>
<text text-anchor="middle" x="46" y="-74" font-family="Verdana" font-size="10.00">b</text>
</g>
<!-- b0&#45;&gt;b0l -->
<g id="edge5" class="edge"><title>b0&#45;&gt;b0l</title>
<path fill="none" stroke="black" d="M134.53,-140.947C117.797,-129.995 94.37,-114.66 75.8177,-102.517"/>
<polygon fill="black" stroke="black" points="77.6999,-99.566 67.4161,-97.0178 73.8663,-105.423 77.6999,-99.566"/>
</g>
<!-- b0r -->
<g id="node7" class="node"><title>b0r</title>
<polygon fill="none" stroke="black" points="202,-97 110,-97 110,-67 202,-67 202,-97"/>
<text text-anchor="middle" x="156" y="-85" font-family="Verdana" font-size="10.00">[VariableName]</text>
<text text-anchor="middle" x="156" y="-74" font-family="Verdana" font-size="10.00">b</text>
</g>
<!-- b0&#45;&gt;b0r -->
<g id="edge6" class="edge"><title>b0&#45;&gt;b0r</title>
<path fill="none" stroke="black" d="M156,-140.775C156,-131.21 156,-118.359 156,-107.206"/>
<polygon fill="black" stroke="black" points="159.5,-107.195 156,-97.1953 152.5,-107.195 159.5,-107.195"/>
</g>
<!-- b1l -->
<g id="node8" class="node"><title>b1l</title>
<polygon fill="none" stroke="black" points="217,-30 125,-30 125,-0 217,-0 217,-30"/>
<text text-anchor="middle" x="171" y="-18" font-family="Verdana" font-size="10.00">[VariableName]</text>
<text text-anchor="middle" x="171" y="-7" font-family="Verdana" font-size="10.00">b</text>
</g>
<!-- b1&#45;&gt;b1l -->
<g id="edge7" class="edge"><title>b1&#45;&gt;b1l</title>
<path fill="none" stroke="black" d="M251.651,-66.896C237.073,-57.6968 217.85,-45.5658 201.828,-35.4546"/>
<polygon fill="black" stroke="black" points="203.631,-32.4535 193.306,-30.0765 199.895,-38.3733 203.631,-32.4535"/>
</g>
<!-- b1r -->
<g id="node9" class="node"><title>b1r</title>
<polygon fill="none" stroke="black" points="327,-30 235,-30 235,-0 327,-0 327,-30"/>
<text text-anchor="middle" x="281" y="-18" font-family="Verdana" font-size="10.00">[VariableName]</text>
<text text-anchor="middle" x="281" y="-7" font-family="Verdana" font-size="10.00">b</text>
</g>
<!-- b1&#45;&gt;b1r -->
<g id="edge8" class="edge"><title>b1&#45;&gt;b1r</title>
<path fill="none" stroke="black" d="M275.519,-66.896C276.363,-59.0597 277.436,-49.0958 278.408,-40.0653"/>
<polygon fill="black" stroke="black" points="281.893,-40.3938 279.484,-30.0765 274.933,-39.6442 281.893,-40.3938"/>
</g>
<!-- b2l -->
<g id="node10" class="node"><title>b2l</title>
<polygon fill="none" stroke="black" points="441,-30 349,-30 349,-0 441,-0 441,-30"/>
<text text-anchor="middle" x="395" y="-18" font-family="Verdana" font-size="10.00">[VariableName]</text>
<text text-anchor="middle" x="395" y="-7" font-family="Verdana" font-size="10.00">b</text>
</g>
<!-- b2&#45;&gt;b2l -->
<g id="edge9" class="edge"><title>b2&#45;&gt;b2l</title>
<path fill="none" stroke="black" d="M398.132,-66.896C397.65,-59.0597 397.037,-49.0958 396.481,-40.0653"/>
<polygon fill="black" stroke="black" points="399.974,-39.8426 395.866,-30.0765 392.987,-40.2726 399.974,-39.8426"/>
</g>
<!-- b2r -->
<g id="node11" class="node"><title>b2r</title>
<polygon fill="none" stroke="black" points="551,-30 459,-30 459,-0 551,-0 551,-30"/>
<text text-anchor="middle" x="505" y="-18" font-family="Verdana" font-size="10.00">[VariableName]</text>
<text text-anchor="middle" x="505" y="-7" font-family="Verdana" font-size="10.00">b</text>
</g>
<!-- b2&#45;&gt;b2r -->
<g id="edge10" class="edge"><title>b2&#45;&gt;b2r</title>
<path fill="none" stroke="black" d="M422,-66.896C437.002,-57.6968 456.785,-45.5658 473.274,-35.4546"/>
<polygon fill="black" stroke="black" points="475.349,-38.2878 482.044,-30.0765 471.69,-32.3204 475.349,-38.2878"/>
</g>
</g>
</svg>
