<?xml version="1.0" encoding="UTF-8" standalone="no"?>
<!DOCTYPE svg PUBLIC "-//W3C//DTD SVG 1.1//EN"
 "http://www.w3.org/Graphics/SVG/1.1/DTD/svg11.dtd">
<!-- Generated by graphviz version 2.38.0 (20140413.2041)
 -->
<!-- Title: %3 Pages: 1 -->
<svg width="212pt" height="104pt"
 viewBox="0.00 0.00 212.00 104.00" xmlns="http://www.w3.org/2000/svg" xmlns:xlink="http://www.w3.org/1999/xlink">
<g id="graph0" class="graph" transform="scale(1 1) rotate(0) translate(4 100)">
<title>%3</title>
<polygon fill="white" stroke="none" points="-4,4 -4,-100 208,-100 208,4 -4,4"/>
<!-- [BinaryOperator]\n= -->
<g id="node1" class="node"><title>[BinaryOperator]\n=</title>
<polygon fill="none" stroke="black" points="153.5,-96 54.5,-96 54.5,-66 153.5,-66 153.5,-96"/>
<text text-anchor="middle" x="104" y="-84" font-family="Verdana" font-size="10.00">[BinaryOperator]</text>
<text text-anchor="middle" x="104" y="-73" font-family="Verdana" font-size="10.00">=</text>
</g>
<!-- [VariableName]\n&#39;a&#39; of type &#39;float&#39; -->
<g id="node2" class="node"><title>[VariableName]\n&#39;a&#39; of type &#39;float&#39;</title>
<polygon fill="none" stroke="black" points="98,-30 0,-30 0,-0 98,-0 98,-30"/>
<text text-anchor="middle" x="49" y="-18" font-family="Verdana" font-size="10.00">[VariableName]</text>
<text text-anchor="middle" x="49" y="-7" font-family="Verdana" font-size="10.00">&#39;a&#39; of type &#39;float&#39;</text>
</g>
<!-- [BinaryOperator]\n=&#45;&gt;[VariableName]\n&#39;a&#39; of type &#39;float&#39; -->
<g id="edge1" class="edge"><title>[BinaryOperator]\n=&#45;&gt;[VariableName]\n&#39;a&#39; of type &#39;float&#39;</title>
<path fill="none" stroke="black" d="M91.7937,-65.7963C84.7443,-57.5933 75.7288,-47.1027 67.7924,-37.8675"/>
<polygon fill="black" stroke="black" points="70.3443,-35.467 61.1722,-30.164 65.0354,-40.0294 70.3443,-35.467"/>
</g>
<!-- [Literal]\n&#39;5&#39; of type &#39;int&#39; -->
<g id="node3" class="node"><title>[Literal]\n&#39;5&#39; of type &#39;int&#39;</title>
<polygon fill="none" stroke="black" points="204,-30 116,-30 116,-0 204,-0 204,-30"/>
<text text-anchor="middle" x="160" y="-18" font-family="Verdana" font-size="10.00">[Literal]</text>
<text text-anchor="middle" x="160" y="-7" font-family="Verdana" font-size="10.00">&#39;5&#39; of type &#39;int&#39;</text>
</g>
<!-- [BinaryOperator]\n=&#45;&gt;[Literal]\n&#39;5&#39; of type &#39;int&#39; -->
<g id="edge2" class="edge"><title>[BinaryOperator]\n=&#45;&gt;[Literal]\n&#39;5&#39; of type &#39;int&#39;</title>
<path fill="none" stroke="black" d="M116.428,-65.7963C123.606,-57.5933 132.785,-47.1027 140.866,-37.8675"/>
<polygon fill="black" stroke="black" points="143.655,-39.9945 147.607,-30.164 138.387,-35.385 143.655,-39.9945"/>
</g>
</g>
</svg>
