<?xml version="1.0" encoding="UTF-8" standalone="no"?>
<!DOCTYPE svg PUBLIC "-//W3C//DTD SVG 1.1//EN"
 "http://www.w3.org/Graphics/SVG/1.1/DTD/svg11.dtd">
<!-- Generated by graphviz version 2.38.0 (20140413.2041)
 -->
<!-- Title: %3 Pages: 1 -->
<svg width="92pt" height="329pt"
 viewBox="0.00 0.00 92.00 329.00" xmlns="http://www.w3.org/2000/svg" xmlns:xlink="http://www.w3.org/1999/xlink">
<g id="graph0" class="graph" transform="scale(1 1) rotate(0) translate(4 325)">
<title>%3</title>
<polygon fill="white" stroke="none" points="-4,4 -4,-325 88,-325 88,4 -4,4"/>
<!-- s0 -->
<g id="node1" class="node"><title>s0</title>
<polygon fill="none" stroke="black" points="56.5,-321 30.5,-321 30.5,-296 56.5,-296 56.5,-321"/>
<text text-anchor="middle" x="43.5" y="-306" font-family="Verdana" font-size="10.00">s0</text>
</g>
<!-- s1 -->
<g id="node2" class="node"><title>s1</title>
<polygon fill="none" stroke="black" points="56,-231.322 56,-241.678 48.6777,-249 38.3223,-249 31,-241.678 31,-231.322 38.3223,-224 48.6777,-224 56,-231.322"/>
<text text-anchor="middle" x="43.5" y="-234" font-family="Verdana" font-size="10.00">s1</text>
</g>
<!-- s0&#45;&gt;s1 -->
<g id="edge1" class="edge"><title>s0&#45;&gt;s1</title>
<path fill="none" stroke="black" d="M43.5,-295.941C43.5,-286.07 43.5,-271.596 43.5,-259.523"/>
<polygon fill="black" stroke="black" points="47.0001,-259.31 43.5,-249.31 40.0001,-259.31 47.0001,-259.31"/>
<text text-anchor="middle" x="50" y="-270" font-family="Verdana" font-size="10.00"> t </text>
</g>
<!-- s2 -->
<g id="node3" class="node"><title>s2</title>
<polygon fill="none" stroke="black" points="56,-159.322 56,-169.678 48.6777,-177 38.3223,-177 31,-169.678 31,-159.322 38.3223,-152 48.6777,-152 56,-159.322"/>
<text text-anchor="middle" x="43.5" y="-162" font-family="Verdana" font-size="10.00">s2</text>
</g>
<!-- s1&#45;&gt;s2 -->
<g id="edge2" class="edge"><title>s1&#45;&gt;s2</title>
<path fill="none" stroke="black" d="M43.5,-223.941C43.5,-214.07 43.5,-199.596 43.5,-187.523"/>
<polygon fill="black" stroke="black" points="47.0001,-187.31 43.5,-177.31 40.0001,-187.31 47.0001,-187.31"/>
<text text-anchor="middle" x="50.5" y="-198" font-family="Verdana" font-size="10.00"> h </text>
</g>
<!-- s3 -->
<g id="node4" class="node"><title>s3</title>
<polygon fill="none" stroke="black" points="31,-87.3223 31,-97.6777 23.6777,-105 13.3223,-105 6,-97.6777 6,-87.3223 13.3223,-80 23.6777,-80 31,-87.3223"/>
<text text-anchor="middle" x="18.5" y="-90" font-family="Verdana" font-size="10.00">s3</text>
</g>
<!-- s2&#45;&gt;s3 -->
<g id="edge3" class="edge"><title>s2&#45;&gt;s3</title>
<path fill="none" stroke="black" d="M39.3718,-151.941C35.7746,-141.869 30.4656,-127.004 26.1023,-114.786"/>
<polygon fill="black" stroke="black" points="29.3775,-113.55 22.7179,-105.31 22.7853,-115.905 29.3775,-113.55"/>
<text text-anchor="middle" x="36.5" y="-126" font-family="Verdana" font-size="10.00"> i </text>
</g>
<!-- s5 -->
<g id="node6" class="node"><title>s5</title>
<polygon fill="none" stroke="black" points="78,-87.3223 78,-97.6777 70.6777,-105 60.3223,-105 53,-97.6777 53,-87.3223 60.3223,-80 70.6777,-80 78,-87.3223"/>
<text text-anchor="middle" x="65.5" y="-90" font-family="Verdana" font-size="10.00">s5</text>
</g>
<!-- s2&#45;&gt;s5 -->
<g id="edge5" class="edge"><title>s2&#45;&gt;s5</title>
<path fill="none" stroke="black" d="M47.1329,-151.941C50.2667,-141.97 54.877,-127.3 58.6945,-115.154"/>
<polygon fill="black" stroke="black" points="62.1289,-115.9 61.7882,-105.31 55.4509,-113.801 62.1289,-115.9"/>
<text text-anchor="middle" x="62.5" y="-126" font-family="Verdana" font-size="10.00"> a </text>
</g>
<!-- s4 -->
<g id="node5" class="node"><title>s4</title>
<polygon fill="none" stroke="black" points="29,-11.3223 29,-21.6777 21.6777,-29 11.3223,-29 4,-21.6777 4,-11.3223 11.3223,-4 21.6777,-4 29,-11.3223"/>
<polygon fill="none" stroke="black" points="33,-9.66548 33,-23.3345 23.3345,-33 9.66548,-33 0,-23.3345 0,-9.66548 9.66548,-0 23.3345,-0 33,-9.66548"/>
<text text-anchor="middle" x="16.5" y="-14" font-family="Verdana" font-size="10.00">s4</text>
</g>
<!-- s3&#45;&gt;s4 -->
<g id="edge4" class="edge"><title>s3&#45;&gt;s4</title>
<path fill="none" stroke="black" d="M18.1875,-79.9375C17.9241,-70.1912 17.5373,-55.8807 17.2005,-43.4182"/>
<polygon fill="black" stroke="black" points="20.6907,-43.0048 16.9217,-33.1031 13.6932,-43.194 20.6907,-43.0048"/>
<text text-anchor="middle" x="25" y="-54" font-family="Verdana" font-size="10.00"> s </text>
</g>
<!-- s6 -->
<g id="node7" class="node"><title>s6</title>
<polygon fill="none" stroke="black" points="80,-11.3223 80,-21.6777 72.6777,-29 62.3223,-29 55,-21.6777 55,-11.3223 62.3223,-4 72.6777,-4 80,-11.3223"/>
<polygon fill="none" stroke="black" points="84,-9.66548 84,-23.3345 74.3345,-33 60.6655,-33 51,-23.3345 51,-9.66548 60.6655,-0 74.3345,-0 84,-9.66548"/>
<text text-anchor="middle" x="67.5" y="-14" font-family="Verdana" font-size="10.00">s6</text>
</g>
<!-- s5&#45;&gt;s6 -->
<g id="edge6" class="edge"><title>s5&#45;&gt;s6</title>
<path fill="none" stroke="black" d="M65.8125,-79.9375C66.0759,-70.1912 66.4627,-55.8807 66.7995,-43.4182"/>
<polygon fill="black" stroke="black" points="70.3068,-43.194 67.0783,-33.1031 63.3093,-43.0048 70.3068,-43.194"/>
<text text-anchor="middle" x="73" y="-54" font-family="Verdana" font-size="10.00"> t </text>
</g>
</g>
</svg>
