<?xml version="1.0" encoding="UTF-8" standalone="no"?>
<!DOCTYPE svg PUBLIC "-//W3C//DTD SVG 1.1//EN"
 "http://www.w3.org/Graphics/SVG/1.1/DTD/svg11.dtd">
<!-- Generated by graphviz version 2.38.0 (20140413.2041)
 -->
<!-- Title: %3 Pages: 1 -->
<svg width="166pt" height="153pt"
 viewBox="0.00 0.00 165.73 153.00" xmlns="http://www.w3.org/2000/svg" xmlns:xlink="http://www.w3.org/1999/xlink">
<g id="graph0" class="graph" transform="scale(1 1) rotate(0) translate(4 149)">
<title>%3</title>
<polygon fill="white" stroke="none" points="-4,4 -4,-149 161.727,-149 161.727,4 -4,4"/>
<!-- root -->
<g id="node1" class="node"><title>root</title>
<polygon fill="none" stroke="black" points="114.727,-145 89.7269,-145 89.7269,-120 114.727,-120 114.727,-145"/>
</g>
<!-- s00 -->
<g id="node2" class="node"><title>s00</title>
<polygon fill="none" stroke="black" points="90.4003,-71.3223 90.4003,-81.6777 73.8967,-89 50.5571,-89 34.0536,-81.6777 34.0536,-71.3223 50.5571,-64 73.8967,-64 90.4003,-71.3223"/>
<polygon fill="none" stroke="black" points="94.3788,-68.7154 94.3788,-84.2846 74.7356,-93 49.7183,-93 30.075,-84.2846 30.075,-68.7154 49.7183,-60 74.7356,-60 94.3788,-68.7154"/>
<text text-anchor="middle" x="62.2269" y="-74" font-family="Verdana" font-size="10.00">LessThan</text>
</g>
<!-- root&#45;&gt;s00 -->
<g id="edge1" class="edge"><title>root&#45;&gt;s00</title>
<path fill="none" stroke="black" d="M93.5475,-119.783C89.5667,-114.409 84.6937,-107.83 79.9882,-101.478"/>
<polygon fill="black" stroke="black" points="82.5395,-99.0419 73.7748,-93.0896 76.9146,-103.208 82.5395,-99.0419"/>
<text text-anchor="middle" x="94.7269" y="-104" font-family="Verdana" font-size="10.00"> &lt; </text>
</g>
<!-- s02 -->
<g id="node4" class="node"><title>s02</title>
<polygon fill="none" stroke="black" points="146.727,-71.3223 146.727,-81.6777 139.405,-89 129.049,-89 121.727,-81.6777 121.727,-71.3223 129.049,-64 139.405,-64 146.727,-71.3223"/>
<text text-anchor="middle" x="134.227" y="-74" font-family="Verdana" font-size="10.00">S0</text>
</g>
<!-- root&#45;&gt;s02 -->
<g id="edge3" class="edge"><title>root&#45;&gt;s02</title>
<path fill="none" stroke="black" d="M109.17,-119.783C113.143,-113.079 118.227,-104.5 122.775,-96.8246"/>
<polygon fill="black" stroke="black" points="125.861,-98.4834 127.948,-88.0962 119.839,-94.9148 125.861,-98.4834"/>
<text text-anchor="middle" x="127.227" y="-104" font-family="Verdana" font-size="10.00"> h </text>
</g>
<!-- s01 -->
<g id="node3" class="node"><title>s01</title>
<polygon fill="none" stroke="black" points="106.665,-11.3223 106.665,-21.6777 76.5334,-29 33.9205,-29 3.78864,-21.6777 3.78864,-11.3223 33.9205,-4 76.5334,-4 106.665,-11.3223"/>
<polygon fill="none" stroke="black" points="110.682,-8.18102 110.682,-24.819 77.0163,-33 33.4375,-33 -0.227866,-24.819 -0.227866,-8.18102 33.4375,-0 77.0163,-0 110.682,-8.18102"/>
<text text-anchor="middle" x="55.2269" y="-14" font-family="Verdana" font-size="10.00">LessThanOrEqual</text>
</g>
<!-- s00&#45;&gt;s01 -->
<g id="edge2" class="edge"><title>s00&#45;&gt;s01</title>
<path fill="none" stroke="black" d="M60.3511,-59.9571C59.7233,-54.756 59.0061,-48.8129 58.311,-43.0537"/>
<polygon fill="black" stroke="black" points="61.7811,-42.5944 57.108,-33.0858 54.8315,-43.4332 61.7811,-42.5944"/>
<text text-anchor="middle" x="67.7269" y="-44" font-family="Verdana" font-size="10.00"> = </text>
</g>
<!-- s03 -->
<g id="node5" class="node"><title>s03</title>
<polygon fill="none" stroke="black" points="153.727,-11.3223 153.727,-21.6777 146.405,-29 136.049,-29 128.727,-21.6777 128.727,-11.3223 136.049,-4 146.405,-4 153.727,-11.3223"/>
<polygon fill="none" stroke="black" points="157.727,-9.66548 157.727,-23.3345 148.061,-33 134.392,-33 124.727,-23.3345 124.727,-9.66548 134.392,-0 148.061,-0 157.727,-9.66548"/>
<text text-anchor="middle" x="141.227" y="-14" font-family="Verdana" font-size="10.00">Hi</text>
</g>
<!-- s02&#45;&gt;s03 -->
<g id="edge4" class="edge"><title>s02&#45;&gt;s03</title>
<path fill="none" stroke="black" d="M135.643,-63.7628C136.352,-57.8915 137.24,-50.5359 138.098,-43.4291"/>
<polygon fill="black" stroke="black" points="141.585,-43.744 139.308,-33.3967 134.635,-42.9052 141.585,-43.744"/>
<text text-anchor="middle" x="144.227" y="-44" font-family="Verdana" font-size="10.00"> i </text>
</g>
</g>
</svg>
