<?xml version="1.0" encoding="UTF-8" standalone="no"?>
<!DOCTYPE svg PUBLIC "-//W3C//DTD SVG 1.1//EN"
 "http://www.w3.org/Graphics/SVG/1.1/DTD/svg11.dtd">
<!-- Generated by graphviz version 2.38.0 (20140413.2041)
 -->
<!-- Title: %3 Pages: 1 -->
<svg width="59pt" height="193pt"
 viewBox="0.00 0.00 58.50 193.00" xmlns="http://www.w3.org/2000/svg" xmlns:xlink="http://www.w3.org/1999/xlink">
<g id="graph0" class="graph" transform="scale(1 1) rotate(0) translate(4 189)">
<title>%3</title>
<polygon fill="white" stroke="none" points="-4,4 -4,-189 54.5,-189 54.5,4 -4,4"/>
<!-- root -->
<g id="node1" class="node"><title>root</title>
<polygon fill="none" stroke="black" points="29,-185 4,-185 4,-160 29,-160 29,-185"/>
</g>
<!-- s0 -->
<g id="node2" class="node"><title>s0</title>
<polygon fill="none" stroke="black" points="29,-91.3223 29,-101.678 21.6777,-109 11.3223,-109 4,-101.678 4,-91.3223 11.3223,-84 21.6777,-84 29,-91.3223"/>
<polygon fill="none" stroke="black" points="33,-89.6655 33,-103.335 23.3345,-113 9.66548,-113 0,-103.335 0,-89.6655 9.66548,-80 23.3345,-80 33,-89.6655"/>
</g>
<!-- root&#45;&gt;s0 -->
<g id="edge1" class="edge"><title>root&#45;&gt;s0</title>
<path fill="none" stroke="black" d="M16.5,-159.938C16.5,-150.191 16.5,-135.881 16.5,-123.418"/>
<polygon fill="black" stroke="black" points="20.0001,-123.103 16.5,-113.103 13.0001,-123.103 20.0001,-123.103"/>
<text text-anchor="middle" x="33.5" y="-134" font-family="Verdana" font-size="10.00"> [0&#45;9] </text>
</g>
<!-- s1 -->
<g id="node3" class="node"><title>s1</title>
<polygon fill="none" stroke="black" points="29,-11.3223 29,-21.6777 21.6777,-29 11.3223,-29 4,-21.6777 4,-11.3223 11.3223,-4 21.6777,-4 29,-11.3223"/>
<polygon fill="none" stroke="black" points="33,-9.66548 33,-23.3345 23.3345,-33 9.66548,-33 0,-23.3345 0,-9.66548 9.66548,-0 23.3345,-0 33,-9.66548"/>
</g>
<!-- s0&#45;&gt;s1 -->
<g id="edge2" class="edge"><title>s0&#45;&gt;s1</title>
<path fill="none" stroke="black" d="M16.5,-79.7155C16.5,-69.3546 16.5,-55.5567 16.5,-43.5877"/>
<polygon fill="black" stroke="black" points="20.0001,-43.261 16.5,-33.261 13.0001,-43.261 20.0001,-43.261"/>
<text text-anchor="middle" x="33.5" y="-54" font-family="Verdana" font-size="10.00"> [0&#45;9] </text>
</g>
</g>
</svg>
