<?xml version="1.0" encoding="UTF-8" standalone="no"?>
<!DOCTYPE svg PUBLIC "-//W3C//DTD SVG 1.1//EN"
 "http://www.w3.org/Graphics/SVG/1.1/DTD/svg11.dtd">
<!-- Generated by graphviz version 2.38.0 (20140413.2041)
 -->
<!-- Title: %3 Pages: 1 -->
<svg width="262pt" height="513pt"
 viewBox="0.00 0.00 261.83 513.00" xmlns="http://www.w3.org/2000/svg" xmlns:xlink="http://www.w3.org/1999/xlink">
<g id="graph0" class="graph" transform="scale(1 1) rotate(0) translate(4 509)">
<title>%3</title>
<polygon fill="white" stroke="none" points="-4,4 -4,-509 257.83,-509 257.83,4 -4,4"/>
<!-- root -->
<g id="node1" class="node"><title>root</title>
<polygon fill="none" stroke="black" points="104.415,-505 79.4148,-505 79.4148,-480 104.415,-480 104.415,-505"/>
</g>
<!-- s00 -->
<g id="node2" class="node"><title>s00</title>
<polygon fill="none" stroke="black" points="81.756,-431.322 81.756,-441.678 66.6186,-449 45.211,-449 30.0736,-441.678 30.0736,-431.322 45.211,-424 66.6186,-424 81.756,-431.322"/>
<polygon fill="none" stroke="black" points="85.7446,-428.811 85.7446,-444.189 67.5303,-453 44.2993,-453 26.085,-444.189 26.085,-428.811 44.2993,-420 67.5303,-420 85.7446,-428.811"/>
<text text-anchor="middle" x="55.9148" y="-434" font-family="Verdana" font-size="10.00">identifier</text>
</g>
<!-- root&#45;&gt;s00 -->
<g id="edge1" class="edge"><title>root&#45;&gt;s00</title>
<path fill="none" stroke="blue" d="M80.3438,-479.964C78.0827,-477.442 75.8237,-474.713 73.9148,-472 71.7256,-468.889 69.6285,-465.477 67.689,-462.047"/>
<polygon fill="blue" stroke="blue" points="70.7374,-460.324 62.9679,-453.121 64.5496,-463.597 70.7374,-460.324"/>
<text text-anchor="middle" x="90.4148" y="-464" font-family="Verdana" font-size="10.00"> (0) e </text>
</g>
<!-- s0 -->
<g id="node14" class="node"><title>s0</title>
<polygon fill="none" stroke="black" points="155.756,-431.322 155.756,-441.678 140.619,-449 119.211,-449 104.074,-441.678 104.074,-431.322 119.211,-424 140.619,-424 155.756,-431.322"/>
<polygon fill="none" stroke="black" points="159.745,-428.811 159.745,-444.189 141.53,-453 118.299,-453 100.085,-444.189 100.085,-428.811 118.299,-420 141.53,-420 159.745,-428.811"/>
<text text-anchor="middle" x="129.915" y="-434" font-family="Verdana" font-size="10.00">identifier</text>
</g>
<!-- root&#45;&gt;s0 -->
<g id="edge13" class="edge"><title>root&#45;&gt;s0</title>
<path fill="none" stroke="blue" d="M100.234,-479.972C102.11,-477.356 104.087,-474.587 105.915,-472 108.264,-468.676 110.729,-465.163 113.147,-461.701"/>
<polygon fill="blue" stroke="blue" points="116.13,-463.542 118.972,-453.336 110.385,-459.542 116.13,-463.542"/>
<text text-anchor="middle" x="152.415" y="-464" font-family="Verdana" font-size="10.00"> (1) [a&#45;zA&#45;Z_] </text>
</g>
<!-- s01 -->
<g id="node3" class="node"><title>s01</title>
<polygon fill="none" stroke="black" points="81.756,-371.322 81.756,-381.678 66.6186,-389 45.211,-389 30.0736,-381.678 30.0736,-371.322 45.211,-364 66.6186,-364 81.756,-371.322"/>
<polygon fill="none" stroke="black" points="85.7446,-368.811 85.7446,-384.189 67.5303,-393 44.2993,-393 26.085,-384.189 26.085,-368.811 44.2993,-360 67.5303,-360 85.7446,-368.811"/>
<text text-anchor="middle" x="55.9148" y="-374" font-family="Verdana" font-size="10.00">identifier</text>
</g>
<!-- s00&#45;&gt;s01 -->
<g id="edge2" class="edge"><title>s00&#45;&gt;s01</title>
<path fill="none" stroke="black" d="M55.9148,-419.957C55.9148,-414.886 55.9148,-409.11 55.9148,-403.486"/>
<polygon fill="black" stroke="black" points="59.4149,-403.086 55.9148,-393.086 52.4149,-403.086 59.4149,-403.086"/>
<text text-anchor="middle" x="62.4148" y="-404" font-family="Verdana" font-size="10.00"> x </text>
</g>
<!-- s02 -->
<g id="node4" class="node"><title>s02</title>
<polygon fill="none" stroke="black" points="55.756,-311.322 55.756,-321.678 40.6186,-329 19.211,-329 4.0736,-321.678 4.0736,-311.322 19.211,-304 40.6186,-304 55.756,-311.322"/>
<polygon fill="none" stroke="black" points="59.7446,-308.811 59.7446,-324.189 41.5303,-333 18.2993,-333 0.0849584,-324.189 0.0849584,-308.811 18.2993,-300 41.5303,-300 59.7446,-308.811"/>
<text text-anchor="middle" x="29.9148" y="-314" font-family="Verdana" font-size="10.00">identifier</text>
</g>
<!-- s01&#45;&gt;s02 -->
<g id="edge3" class="edge"><title>s01&#45;&gt;s02</title>
<path fill="none" stroke="black" d="M48.9473,-359.957C46.5575,-354.626 43.8182,-348.515 41.1765,-342.622"/>
<polygon fill="black" stroke="black" points="44.186,-340.779 36.9016,-333.086 37.7984,-343.643 44.186,-340.779"/>
<text text-anchor="middle" x="52.4148" y="-344" font-family="Verdana" font-size="10.00"> t </text>
</g>
<!-- s06 -->
<g id="node8" class="node"><title>s06</title>
<polygon fill="none" stroke="black" points="129.756,-311.322 129.756,-321.678 114.619,-329 93.211,-329 78.0736,-321.678 78.0736,-311.322 93.211,-304 114.619,-304 129.756,-311.322"/>
<polygon fill="none" stroke="black" points="133.745,-308.811 133.745,-324.189 115.53,-333 92.2993,-333 74.085,-324.189 74.085,-308.811 92.2993,-300 115.53,-300 133.745,-308.811"/>
<text text-anchor="middle" x="103.915" y="-314" font-family="Verdana" font-size="10.00">identifier</text>
</g>
<!-- s01&#45;&gt;s06 -->
<g id="edge7" class="edge"><title>s01&#45;&gt;s06</title>
<path fill="none" stroke="black" d="M68.5262,-360.261C73.4479,-354.314 79.2013,-347.362 84.6215,-340.813"/>
<polygon fill="black" stroke="black" points="87.5416,-342.774 91.2209,-332.838 82.1488,-338.311 87.5416,-342.774"/>
<text text-anchor="middle" x="91.9148" y="-344" font-family="Verdana" font-size="10.00"> p </text>
</g>
<!-- s03 -->
<g id="node5" class="node"><title>s03</title>
<polygon fill="none" stroke="black" points="55.756,-251.322 55.756,-261.678 40.6186,-269 19.211,-269 4.0736,-261.678 4.0736,-251.322 19.211,-244 40.6186,-244 55.756,-251.322"/>
<polygon fill="none" stroke="black" points="59.7446,-248.811 59.7446,-264.189 41.5303,-273 18.2993,-273 0.0849584,-264.189 0.0849584,-248.811 18.2993,-240 41.5303,-240 59.7446,-248.811"/>
<text text-anchor="middle" x="29.9148" y="-254" font-family="Verdana" font-size="10.00">identifier</text>
</g>
<!-- s02&#45;&gt;s03 -->
<g id="edge4" class="edge"><title>s02&#45;&gt;s03</title>
<path fill="none" stroke="black" d="M29.9148,-299.957C29.9148,-294.886 29.9148,-289.11 29.9148,-283.486"/>
<polygon fill="black" stroke="black" points="33.4149,-283.086 29.9148,-273.086 26.4149,-283.086 33.4149,-283.086"/>
<text text-anchor="middle" x="36.9148" y="-284" font-family="Verdana" font-size="10.00"> e </text>
</g>
<!-- s04 -->
<g id="node6" class="node"><title>s04</title>
<polygon fill="none" stroke="black" points="55.756,-191.322 55.756,-201.678 40.6186,-209 19.211,-209 4.0736,-201.678 4.0736,-191.322 19.211,-184 40.6186,-184 55.756,-191.322"/>
<polygon fill="none" stroke="black" points="59.7446,-188.811 59.7446,-204.189 41.5303,-213 18.2993,-213 0.0849584,-204.189 0.0849584,-188.811 18.2993,-180 41.5303,-180 59.7446,-188.811"/>
<text text-anchor="middle" x="29.9148" y="-194" font-family="Verdana" font-size="10.00">identifier</text>
</g>
<!-- s03&#45;&gt;s04 -->
<g id="edge5" class="edge"><title>s03&#45;&gt;s04</title>
<path fill="none" stroke="black" d="M29.9148,-239.957C29.9148,-234.886 29.9148,-229.11 29.9148,-223.486"/>
<polygon fill="black" stroke="black" points="33.4149,-223.086 29.9148,-213.086 26.4149,-223.086 33.4149,-223.086"/>
<text text-anchor="middle" x="35.9148" y="-224" font-family="Verdana" font-size="10.00"> r </text>
</g>
<!-- s05 -->
<g id="node7" class="node"><title>s05</title>
<polygon fill="none" stroke="black" points="49.0241,-131.322 49.0241,-141.678 37.8301,-149 21.9994,-149 10.8055,-141.678 10.8055,-131.322 21.9994,-124 37.8301,-124 49.0241,-131.322"/>
<polygon fill="none" stroke="black" points="52.9876,-129.148 52.9876,-143.852 39.0023,-153 20.8273,-153 6.84198,-143.852 6.84198,-129.148 20.8273,-120 39.0023,-120 52.9876,-129.148"/>
<text text-anchor="middle" x="29.9148" y="-134" font-family="Verdana" font-size="10.00">extern</text>
</g>
<!-- s04&#45;&gt;s05 -->
<g id="edge6" class="edge"><title>s04&#45;&gt;s05</title>
<path fill="none" stroke="black" d="M29.9148,-179.957C29.9148,-174.886 29.9148,-169.11 29.9148,-163.486"/>
<polygon fill="black" stroke="black" points="33.4149,-163.086 29.9148,-153.086 26.4149,-163.086 33.4149,-163.086"/>
<text text-anchor="middle" x="36.9148" y="-164" font-family="Verdana" font-size="10.00"> n </text>
</g>
<!-- s07 -->
<g id="node9" class="node"><title>s07</title>
<polygon fill="none" stroke="black" points="129.756,-251.322 129.756,-261.678 114.619,-269 93.211,-269 78.0736,-261.678 78.0736,-251.322 93.211,-244 114.619,-244 129.756,-251.322"/>
<polygon fill="none" stroke="black" points="133.745,-248.811 133.745,-264.189 115.53,-273 92.2993,-273 74.085,-264.189 74.085,-248.811 92.2993,-240 115.53,-240 133.745,-248.811"/>
<text text-anchor="middle" x="103.915" y="-254" font-family="Verdana" font-size="10.00">identifier</text>
</g>
<!-- s06&#45;&gt;s07 -->
<g id="edge8" class="edge"><title>s06&#45;&gt;s07</title>
<path fill="none" stroke="black" d="M103.915,-299.957C103.915,-294.886 103.915,-289.11 103.915,-283.486"/>
<polygon fill="black" stroke="black" points="107.415,-283.086 103.915,-273.086 100.415,-283.086 107.415,-283.086"/>
<text text-anchor="middle" x="108.915" y="-284" font-family="Verdana" font-size="10.00"> l </text>
</g>
<!-- s08 -->
<g id="node10" class="node"><title>s08</title>
<polygon fill="none" stroke="black" points="129.756,-191.322 129.756,-201.678 114.619,-209 93.211,-209 78.0736,-201.678 78.0736,-191.322 93.211,-184 114.619,-184 129.756,-191.322"/>
<polygon fill="none" stroke="black" points="133.745,-188.811 133.745,-204.189 115.53,-213 92.2993,-213 74.085,-204.189 74.085,-188.811 92.2993,-180 115.53,-180 133.745,-188.811"/>
<text text-anchor="middle" x="103.915" y="-194" font-family="Verdana" font-size="10.00">identifier</text>
</g>
<!-- s07&#45;&gt;s08 -->
<g id="edge9" class="edge"><title>s07&#45;&gt;s08</title>
<path fill="none" stroke="black" d="M103.915,-239.957C103.915,-234.886 103.915,-229.11 103.915,-223.486"/>
<polygon fill="black" stroke="black" points="107.415,-223.086 103.915,-213.086 100.415,-223.086 107.415,-223.086"/>
<text text-anchor="middle" x="108.915" y="-224" font-family="Verdana" font-size="10.00"> i </text>
</g>
<!-- s09 -->
<g id="node11" class="node"><title>s09</title>
<polygon fill="none" stroke="black" points="129.756,-131.322 129.756,-141.678 114.619,-149 93.211,-149 78.0736,-141.678 78.0736,-131.322 93.211,-124 114.619,-124 129.756,-131.322"/>
<polygon fill="none" stroke="black" points="133.745,-128.811 133.745,-144.189 115.53,-153 92.2993,-153 74.085,-144.189 74.085,-128.811 92.2993,-120 115.53,-120 133.745,-128.811"/>
<text text-anchor="middle" x="103.915" y="-134" font-family="Verdana" font-size="10.00">identifier</text>
</g>
<!-- s08&#45;&gt;s09 -->
<g id="edge10" class="edge"><title>s08&#45;&gt;s09</title>
<path fill="none" stroke="black" d="M103.915,-179.957C103.915,-174.886 103.915,-169.11 103.915,-163.486"/>
<polygon fill="black" stroke="black" points="107.415,-163.086 103.915,-153.086 100.415,-163.086 107.415,-163.086"/>
<text text-anchor="middle" x="110.915" y="-164" font-family="Verdana" font-size="10.00"> c </text>
</g>
<!-- s10 -->
<g id="node12" class="node"><title>s10</title>
<polygon fill="none" stroke="black" points="129.756,-71.3223 129.756,-81.6777 114.619,-89 93.211,-89 78.0736,-81.6777 78.0736,-71.3223 93.211,-64 114.619,-64 129.756,-71.3223"/>
<polygon fill="none" stroke="black" points="133.745,-68.8107 133.745,-84.1893 115.53,-93 92.2993,-93 74.085,-84.1893 74.085,-68.8107 92.2993,-60 115.53,-60 133.745,-68.8107"/>
<text text-anchor="middle" x="103.915" y="-74" font-family="Verdana" font-size="10.00">identifier</text>
</g>
<!-- s09&#45;&gt;s10 -->
<g id="edge11" class="edge"><title>s09&#45;&gt;s10</title>
<path fill="none" stroke="black" d="M103.915,-119.957C103.915,-114.886 103.915,-109.11 103.915,-103.486"/>
<polygon fill="black" stroke="black" points="107.415,-103.086 103.915,-93.0858 100.415,-103.086 107.415,-103.086"/>
<text text-anchor="middle" x="108.915" y="-104" font-family="Verdana" font-size="10.00"> i </text>
</g>
<!-- s11 -->
<g id="node13" class="node"><title>s11</title>
<polygon fill="none" stroke="black" points="125.087,-11.3223 125.087,-21.6777 112.685,-29 95.145,-29 82.7425,-21.6777 82.7425,-11.3223 95.145,-4 112.685,-4 125.087,-11.3223"/>
<polygon fill="none" stroke="black" points="129.102,-9.04313 129.102,-23.9569 113.785,-33 94.0447,-33 78.7276,-23.9569 78.7276,-9.04313 94.0447,3.55271e-015 113.785,-0 129.102,-9.04313"/>
<text text-anchor="middle" x="103.915" y="-14" font-family="Verdana" font-size="10.00">explicit</text>
</g>
<!-- s10&#45;&gt;s11 -->
<g id="edge12" class="edge"><title>s10&#45;&gt;s11</title>
<path fill="none" stroke="black" d="M103.915,-59.9571C103.915,-54.886 103.915,-49.1096 103.915,-43.486"/>
<polygon fill="black" stroke="black" points="107.415,-43.0858 103.915,-33.0858 100.415,-43.0859 107.415,-43.0858"/>
<text text-anchor="middle" x="110.415" y="-44" font-family="Verdana" font-size="10.00"> t </text>
</g>
<!-- s0&#45;&gt;s0 -->
<g id="edge14" class="edge"><title>s0&#45;&gt;s0</title>
<path fill="none" stroke="black" d="M159.882,-442.076C167.818,-441.757 173.83,-439.898 173.83,-436.5 173.83,-434.801 172.327,-433.487 169.832,-432.557"/>
<polygon fill="black" stroke="black" points="170.317,-429.09 159.882,-430.924 169.183,-435.998 170.317,-429.09"/>
<text text-anchor="middle" x="211.83" y="-434" font-family="Verdana" font-size="10.00"> [a&#45;zA&#45;Z_0&#45;9] </text>
</g>
</g>
</svg>
