<?xml version="1.0" encoding="UTF-8" standalone="no"?>
<!DOCTYPE svg PUBLIC "-//W3C//DTD SVG 1.1//EN"
 "http://www.w3.org/Graphics/SVG/1.1/DTD/svg11.dtd">
<!-- Generated by graphviz version 2.38.0 (20140413.2041)
 -->
<!-- Title: %3 Pages: 1 -->
<svg width="62pt" height="198pt"
 viewBox="0.00 0.00 62.00 198.00" xmlns="http://www.w3.org/2000/svg" xmlns:xlink="http://www.w3.org/1999/xlink">
<g id="graph0" class="graph" transform="scale(1 1) rotate(0) translate(4 194)">
<title>%3</title>
<polygon fill="white" stroke="none" points="-4,4 -4,-194 58,-194 58,4 -4,4"/>
<!-- ... -->
<g id="node1" class="node"><title>...</title>
<polygon fill="none" stroke="black" points="54,-190 0,-190 0,-171 54,-171 54,-190"/>
<text text-anchor="middle" x="27" y="-178" font-family="Verdana" font-size="10.00">...</text>
</g>
<!-- var a\nvar b -->
<g id="node2" class="node"><title>var a\nvar b</title>
<polygon fill="none" stroke="black" points="54,-135 0,-135 0,-105 54,-105 54,-135"/>
<text text-anchor="middle" x="27" y="-123" font-family="Verdana" font-size="10.00">var a</text>
<text text-anchor="middle" x="27" y="-112" font-family="Verdana" font-size="10.00">var b</text>
</g>
<!-- ...&#45;&gt;var a\nvar b -->
<g id="edge1" class="edge"><title>...&#45;&gt;var a\nvar b</title>
<path fill="none" stroke="black" d="M27,-170.868C27,-164.106 27,-154.354 27,-145.263"/>
<polygon fill="black" stroke="black" points="30.5001,-145.115 27,-135.115 23.5001,-145.115 30.5001,-145.115"/>
</g>
<!-- var c -->
<g id="node3" class="node"><title>var c</title>
<polygon fill="none" stroke="black" points="54,-69 0,-69 0,-50 54,-50 54,-69"/>
<text text-anchor="middle" x="27" y="-57" font-family="Verdana" font-size="10.00">var c</text>
</g>
<!-- var a\nvar b&#45;&gt;var c -->
<g id="edge2" class="edge"><title>var a\nvar b&#45;&gt;var c</title>
<path fill="none" stroke="black" d="M27,-104.839C27,-97.2135 27,-87.7043 27,-79.4497"/>
<polygon fill="black" stroke="black" points="30.5001,-79.2659 27,-69.2659 23.5001,-79.266 30.5001,-79.2659"/>
</g>
<g id="node4" class="node"><title></title>
<polygon fill="none" stroke="black" points="54,-14 0,-14 0,8.88178e-016 54,8.88178e-016 54,-14"/>
</g>
<!-- var c&#45;&gt; -->
<g id="edge3" class="edge"><title>var c&#45;&gt;</title>
<path fill="none" stroke="black" d="M27,-49.7036C27,-42.7095 27,-32.7322 27,-24.2902"/>
<polygon fill="black" stroke="black" points="30.5001,-24.1544 27,-14.1544 23.5001,-24.1544 30.5001,-24.1544"/>
</g>
</g>
</svg>
