<?xml version="1.0" encoding="UTF-8" standalone="no"?>
<!DOCTYPE svg PUBLIC "-//W3C//DTD SVG 1.1//EN"
 "http://www.w3.org/Graphics/SVG/1.1/DTD/svg11.dtd">
<!-- Generated by graphviz version 2.38.0 (20140413.2041)
 -->
<!-- Title: %3 Pages: 1 -->
<svg width="206pt" height="192pt"
 viewBox="0.00 0.00 206.00 192.00" xmlns="http://www.w3.org/2000/svg" xmlns:xlink="http://www.w3.org/1999/xlink">
<g id="graph0" class="graph" transform="scale(1 1) rotate(0) translate(4 188)">
<title>%3</title>
<polygon fill="white" stroke="none" points="-4,4 -4,-188 202,-188 202,4 -4,4"/>
<!-- &#45; -->
<g id="node1" class="node"><title>&#45;</title>
<polygon fill="none" stroke="black" points="162,-184 108,-184 108,-165 162,-165 162,-184"/>
<text text-anchor="middle" x="135" y="-172" font-family="Verdana" font-size="10.00">&#45;</text>
</g>
<!-- + -->
<g id="node2" class="node"><title>+</title>
<polygon fill="none" stroke="black" points="126,-129 72,-129 72,-110 126,-110 126,-129"/>
<text text-anchor="middle" x="99" y="-117" font-family="Verdana" font-size="10.00">+</text>
</g>
<!-- &#45;&#45;&gt;+ -->
<g id="edge1" class="edge"><title>&#45;&#45;&gt;+</title>
<path fill="none" stroke="black" d="M129.055,-164.748C124.023,-157.339 116.663,-146.504 110.487,-137.411"/>
<polygon fill="black" stroke="black" points="113.348,-135.395 104.834,-129.089 107.558,-139.328 113.348,-135.395"/>
</g>
<!-- 1 -->
<g id="node3" class="node"><title>1</title>
<polygon fill="none" stroke="black" points="198,-129 144,-129 144,-110 198,-110 198,-129"/>
<text text-anchor="middle" x="171" y="-117" font-family="Verdana" font-size="10.00">1</text>
</g>
<!-- &#45;&#45;&gt;1 -->
<g id="edge2" class="edge"><title>&#45;&#45;&gt;1</title>
<path fill="none" stroke="black" d="M140.945,-164.748C145.977,-157.339 153.337,-146.504 159.513,-137.411"/>
<polygon fill="black" stroke="black" points="162.442,-139.328 165.166,-129.089 156.652,-135.395 162.442,-139.328"/>
</g>
<!-- * -->
<g id="node4" class="node"><title>*</title>
<polygon fill="none" stroke="black" points="90,-74 36,-74 36,-55 90,-55 90,-74"/>
<text text-anchor="middle" x="63" y="-62" font-family="Verdana" font-size="10.00">*</text>
</g>
<!-- +&#45;&gt;* -->
<g id="edge3" class="edge"><title>+&#45;&gt;*</title>
<path fill="none" stroke="black" d="M93.0553,-109.748C88.0227,-102.339 80.6632,-91.5042 74.4865,-82.4107"/>
<polygon fill="black" stroke="black" points="77.3482,-80.3946 68.8341,-74.089 71.5577,-84.3278 77.3482,-80.3946"/>
</g>
<!-- 3 -->
<g id="node5" class="node"><title>3</title>
<polygon fill="none" stroke="black" points="162,-74 108,-74 108,-55 162,-55 162,-74"/>
<text text-anchor="middle" x="135" y="-62" font-family="Verdana" font-size="10.00">3</text>
</g>
<!-- +&#45;&gt;3 -->
<g id="edge4" class="edge"><title>+&#45;&gt;3</title>
<path fill="none" stroke="black" d="M104.945,-109.748C109.977,-102.339 117.337,-91.5042 123.513,-82.4107"/>
<polygon fill="black" stroke="black" points="126.442,-84.3278 129.166,-74.089 120.652,-80.3946 126.442,-84.3278"/>
</g>
<!-- 4 -->
<g id="node6" class="node"><title>4</title>
<polygon fill="none" stroke="black" points="54,-19 0,-19 0,-0 54,-0 54,-19"/>
<text text-anchor="middle" x="27" y="-7" font-family="Verdana" font-size="10.00">4</text>
</g>
<!-- *&#45;&gt;4 -->
<g id="edge5" class="edge"><title>*&#45;&gt;4</title>
<path fill="none" stroke="black" d="M57.0553,-54.7481C52.0227,-47.339 44.6632,-36.5042 38.4865,-27.4107"/>
<polygon fill="black" stroke="black" points="41.3482,-25.3946 32.8341,-19.089 35.5577,-29.3278 41.3482,-25.3946"/>
</g>
<!-- 10 -->
<g id="node7" class="node"><title>10</title>
<polygon fill="none" stroke="black" points="126,-19 72,-19 72,-0 126,-0 126,-19"/>
<text text-anchor="middle" x="99" y="-7" font-family="Verdana" font-size="10.00">10</text>
</g>
<!-- *&#45;&gt;10 -->
<g id="edge6" class="edge"><title>*&#45;&gt;10</title>
<path fill="none" stroke="black" d="M68.9447,-54.7481C73.9773,-47.339 81.3368,-36.5042 87.5135,-27.4107"/>
<polygon fill="black" stroke="black" points="90.4423,-29.3278 93.1659,-19.089 84.6518,-25.3946 90.4423,-29.3278"/>
</g>
</g>
</svg>
