<?xml version="1.0" encoding="UTF-8" standalone="no"?>
<!DOCTYPE svg PUBLIC "-//W3C//DTD SVG 1.1//EN"
 "http://www.w3.org/Graphics/SVG/1.1/DTD/svg11.dtd">
<!-- Generated by graphviz version 2.38.0 (20140413.2041)
 -->
<!-- Title: %3 Pages: 1 -->
<svg width="138pt" height="302pt"
 viewBox="0.00 0.00 138.00 302.00" xmlns="http://www.w3.org/2000/svg" xmlns:xlink="http://www.w3.org/1999/xlink">
<g id="graph0" class="graph" transform="scale(1 1) rotate(0) translate(4 298)">
<title>%3</title>
<polygon fill="white" stroke="none" points="-4,4 -4,-298 134,-298 134,4 -4,4"/>
<!-- Stack -->
<g id="node1" class="node"><title>Stack</title>
<polygon fill="none" stroke="black" points="58,-294 4,-294 4,-275 58,-275 58,-294"/>
<text text-anchor="middle" x="31" y="-282" font-family="Verdana" font-size="10.00">Stack</text>
</g>
<!-- Player -->
<g id="node2" class="node"><title>Player</title>
<polygon fill="none" stroke="black" points="58,-184 4,-184 4,-165 58,-165 58,-184"/>
<text text-anchor="middle" x="31" y="-172" font-family="Verdana" font-size="10.00">Player</text>
</g>
<!-- Stack&#45;&gt;Player -->
<g id="edge1" class="edge"><title>Stack&#45;&gt;Player</title>
<path fill="none" stroke="black" d="M28.7353,-274.894C25.7972,-262.704 21.2433,-239.7 23,-220 23.7582,-211.497 25.3159,-202.188 26.857,-194.292"/>
<polygon fill="black" stroke="black" points="30.325,-194.806 28.9394,-184.303 23.4723,-193.378 30.325,-194.806"/>
</g>
<!-- Enemy -->
<g id="node7" class="node"><title>Enemy</title>
<polygon fill="none" stroke="black" points="86,-239 32,-239 32,-220 86,-220 86,-239"/>
<text text-anchor="middle" x="59" y="-227" font-family="Verdana" font-size="10.00">Enemy</text>
</g>
<!-- Stack&#45;&gt;Enemy -->
<g id="edge7" class="edge"><title>Stack&#45;&gt;Enemy</title>
<path fill="none" stroke="black" d="M35.6236,-274.748C39.4563,-267.493 45.0242,-256.954 49.7646,-247.981"/>
<polygon fill="black" stroke="black" points="52.8858,-249.566 54.4624,-239.089 46.6965,-246.296 52.8858,-249.566"/>
</g>
<!-- Gun -->
<g id="node3" class="node"><title>Gun</title>
<polygon fill="none" stroke="black" points="58,-129 4,-129 4,-110 58,-110 58,-129"/>
<text text-anchor="middle" x="31" y="-117" font-family="Verdana" font-size="10.00">Gun</text>
</g>
<!-- Player&#45;&gt;Gun -->
<g id="edge2" class="edge"><title>Player&#45;&gt;Gun</title>
<path fill="none" stroke="black" d="M25.8337,-164.748C24.3407,-157.802 23.9034,-147.845 24.5215,-139.135"/>
<polygon fill="black" stroke="black" points="28.0084,-139.466 25.869,-129.089 21.0705,-138.535 28.0084,-139.466"/>
</g>
<!-- Armor -->
<g id="node4" class="node"><title>Armor</title>
<polygon fill="none" stroke="black" points="130,-129 76,-129 76,-110 130,-110 130,-129"/>
<text text-anchor="middle" x="103" y="-117" font-family="Verdana" font-size="10.00">Armor</text>
</g>
<!-- Player&#45;&gt;Armor -->
<g id="edge3" class="edge"><title>Player&#45;&gt;Armor</title>
<path fill="none" stroke="black" d="M42.568,-164.985C53.4202,-156.996 69.8807,-144.88 82.8834,-135.308"/>
<polygon fill="black" stroke="black" points="85.243,-137.917 91.2215,-129.17 81.0932,-132.28 85.243,-137.917"/>
</g>
<!-- Gun&#45;&gt;Player -->
<g id="edge4" class="edge"><title>Gun&#45;&gt;Player</title>
<path fill="none" stroke="black" d="M36.131,-129.089C37.6405,-135.988 38.0944,-145.93 37.4928,-154.66"/>
<polygon fill="black" stroke="black" points="34,-154.377 36.1663,-164.748 40.9403,-155.29 34,-154.377"/>
</g>
<!-- Magazine -->
<g id="node5" class="node"><title>Magazine</title>
<polygon fill="none" stroke="black" points="62,-74 0,-74 0,-55 62,-55 62,-74"/>
<text text-anchor="middle" x="31" y="-62" font-family="Verdana" font-size="10.00">Magazine</text>
</g>
<!-- Gun&#45;&gt;Magazine -->
<g id="edge5" class="edge"><title>Gun&#45;&gt;Magazine</title>
<path fill="none" stroke="black" d="M31,-109.748C31,-102.802 31,-92.8451 31,-84.1349"/>
<polygon fill="black" stroke="black" points="34.5001,-84.089 31,-74.089 27.5001,-84.0891 34.5001,-84.089"/>
</g>
<!-- Bullet -->
<g id="node6" class="node"><title>Bullet</title>
<polygon fill="none" stroke="black" points="58,-19 4,-19 4,-0 58,-0 58,-19"/>
<text text-anchor="middle" x="31" y="-7" font-family="Verdana" font-size="10.00">Bullet</text>
</g>
<!-- Magazine&#45;&gt;Bullet -->
<g id="edge6" class="edge"><title>Magazine&#45;&gt;Bullet</title>
<path fill="none" stroke="black" d="M31,-54.7481C31,-47.8021 31,-37.8451 31,-29.1349"/>
<polygon fill="black" stroke="black" points="34.5001,-29.089 31,-19.089 27.5001,-29.0891 34.5001,-29.089"/>
</g>
<!-- Enemy&#45;&gt;Player -->
<g id="edge8" class="edge"><title>Enemy&#45;&gt;Player</title>
<path fill="none" stroke="black" d="M54.3764,-219.748C50.5437,-212.493 44.9758,-201.954 40.2354,-192.981"/>
<polygon fill="black" stroke="black" points="43.3035,-191.296 35.5376,-184.089 37.1142,-194.566 43.3035,-191.296"/>
</g>
</g>
</svg>
