<?xml version="1.0" encoding="UTF-8" standalone="no"?>
<!DOCTYPE svg PUBLIC "-//W3C//DTD SVG 1.1//EN"
 "http://www.w3.org/Graphics/SVG/1.1/DTD/svg11.dtd">
<!-- Generated by graphviz version 2.38.0 (20140413.2041)
 -->
<!-- Title: %3 Pages: 1 -->
<svg width="205pt" height="170pt"
 viewBox="0.00 0.00 205.00 170.00" xmlns="http://www.w3.org/2000/svg" xmlns:xlink="http://www.w3.org/1999/xlink">
<g id="graph0" class="graph" transform="scale(1 1) rotate(0) translate(4 166)">
<title>%3</title>
<polygon fill="white" stroke="none" points="-4,4 -4,-166 201,-166 201,4 -4,4"/>
<!-- [BinaryOperator]\n= -->
<g id="node1" class="node"><title>[BinaryOperator]\n=</title>
<polygon fill="none" stroke="black" points="150.5,-162 51.5,-162 51.5,-132 150.5,-132 150.5,-162"/>
<text text-anchor="middle" x="101" y="-150" font-family="Verdana" font-size="10.00">[BinaryOperator]</text>
<text text-anchor="middle" x="101" y="-139" font-family="Verdana" font-size="10.00">=</text>
</g>
<!-- [VariableName]\n&#39;a&#39; of type &#39;float&#39; -->
<g id="node2" class="node"><title>[VariableName]\n&#39;a&#39; of type &#39;float&#39;</title>
<polygon fill="none" stroke="black" points="98,-96 0,-96 0,-66 98,-66 98,-96"/>
<text text-anchor="middle" x="49" y="-84" font-family="Verdana" font-size="10.00">[VariableName]</text>
<text text-anchor="middle" x="49" y="-73" font-family="Verdana" font-size="10.00">&#39;a&#39; of type &#39;float&#39;</text>
</g>
<!-- [BinaryOperator]\n=&#45;&gt;[VariableName]\n&#39;a&#39; of type &#39;float&#39; -->
<g id="edge1" class="edge"><title>[BinaryOperator]\n=&#45;&gt;[VariableName]\n&#39;a&#39; of type &#39;float&#39;</title>
<path fill="none" stroke="black" d="M89.4595,-131.796C82.8619,-123.676 74.4429,-113.314 66.995,-104.148"/>
<polygon fill="black" stroke="black" points="69.5306,-101.718 60.5082,-96.164 64.0978,-106.132 69.5306,-101.718"/>
</g>
<!-- [TypeCast]\nfloat -->
<g id="node3" class="node"><title>[TypeCast]\nfloat</title>
<polygon fill="none" stroke="black" points="189.5,-96 116.5,-96 116.5,-66 189.5,-66 189.5,-96"/>
<text text-anchor="middle" x="153" y="-84" font-family="Verdana" font-size="10.00">[TypeCast]</text>
<text text-anchor="middle" x="153" y="-73" font-family="Verdana" font-size="10.00">float</text>
</g>
<!-- [BinaryOperator]\n=&#45;&gt;[TypeCast]\nfloat -->
<g id="edge2" class="edge"><title>[BinaryOperator]\n=&#45;&gt;[TypeCast]\nfloat</title>
<path fill="none" stroke="black" d="M112.54,-131.796C119.138,-123.676 127.557,-113.314 135.005,-104.148"/>
<polygon fill="black" stroke="black" points="137.902,-106.132 141.492,-96.164 132.469,-101.718 137.902,-106.132"/>
</g>
<!-- [Literal]\n&#39;5&#39; of type &#39;int&#39; -->
<g id="node4" class="node"><title>[Literal]\n&#39;5&#39; of type &#39;int&#39;</title>
<polygon fill="none" stroke="black" points="197,-30 109,-30 109,-0 197,-0 197,-30"/>
<text text-anchor="middle" x="153" y="-18" font-family="Verdana" font-size="10.00">[Literal]</text>
<text text-anchor="middle" x="153" y="-7" font-family="Verdana" font-size="10.00">&#39;5&#39; of type &#39;int&#39;</text>
</g>
<!-- [TypeCast]\nfloat&#45;&gt;[Literal]\n&#39;5&#39; of type &#39;int&#39; -->
<g id="edge3" class="edge"><title>[TypeCast]\nfloat&#45;&gt;[Literal]\n&#39;5&#39; of type &#39;int&#39;</title>
<path fill="none" stroke="black" d="M153,-65.7963C153,-58.3391 153,-48.9911 153,-40.4146"/>
<polygon fill="black" stroke="black" points="156.5,-40.1639 153,-30.164 149.5,-40.164 156.5,-40.1639"/>
</g>
</g>
</svg>
