<?xml version="1.0" encoding="UTF-8" standalone="no"?>
<!DOCTYPE svg PUBLIC "-//W3C//DTD SVG 1.1//EN"
 "http://www.w3.org/Graphics/SVG/1.1/DTD/svg11.dtd">
<!-- Generated by graphviz version 2.38.0 (20140413.2041)
 -->
<!-- Title: %3 Pages: 1 -->
<svg width="229pt" height="277pt"
 viewBox="0.00 0.00 229.00 277.00" xmlns="http://www.w3.org/2000/svg" xmlns:xlink="http://www.w3.org/1999/xlink">
<g id="graph0" class="graph" transform="scale(1 1) rotate(0) translate(4 273)">
<title>%3</title>
<polygon fill="white" stroke="none" points="-4,4 -4,-273 225,-273 225,4 -4,4"/>
<!-- List0 -->
<g id="node1" class="node"><title>List0</title>
<polygon fill="none" stroke="black" points="109.5,-269 77.5,-269 77.5,-244 109.5,-244 109.5,-269"/>
<text text-anchor="middle" x="93.5" y="-254" font-family="Verdana" font-size="10.00">List</text>
</g>
<!-- Identifier0 -->
<g id="node2" class="node"><title>Identifier0</title>
<polygon fill="none" stroke="black" points="59,-208 0,-208 0,-183 59,-183 59,-208"/>
<text text-anchor="middle" x="29.5" y="-193" font-family="Verdana" font-size="10.00">Identifier</text>
</g>
<!-- List0&#45;&gt;Identifier0 -->
<g id="edge1" class="edge"><title>List0&#45;&gt;Identifier0</title>
<path fill="none" stroke="black" d="M80.8557,-243.843C71.9147,-235.601 59.7444,-224.382 49.4956,-214.933"/>
<polygon fill="black" stroke="black" points="51.8429,-212.337 42.1181,-208.132 47.0982,-217.484 51.8429,-212.337"/>
</g>
<!-- comma0 -->
<g id="node4" class="node"><title>comma0</title>
<polygon fill="none" stroke="black" points="106,-208 81,-208 81,-183 106,-183 106,-208"/>
<text text-anchor="middle" x="93.5" y="-193" font-family="Verdana" font-size="10.00">,</text>
</g>
<!-- List0&#45;&gt;comma0 -->
<g id="edge3" class="edge"><title>List0&#45;&gt;comma0</title>
<path fill="none" stroke="black" d="M93.5,-243.843C93.5,-236.571 93.5,-226.98 93.5,-218.334"/>
<polygon fill="black" stroke="black" points="97.0001,-218.132 93.5,-208.132 90.0001,-218.132 97.0001,-218.132"/>
</g>
<!-- List1 -->
<g id="node5" class="node"><title>List1</title>
<polygon fill="none" stroke="black" points="158.5,-208 126.5,-208 126.5,-183 158.5,-183 158.5,-208"/>
<text text-anchor="middle" x="142.5" y="-193" font-family="Verdana" font-size="10.00">List</text>
</g>
<!-- List0&#45;&gt;List1 -->
<g id="edge4" class="edge"><title>List0&#45;&gt;List1</title>
<path fill="none" stroke="black" d="M103.181,-243.843C109.758,-235.924 118.617,-225.257 126.261,-216.053"/>
<polygon fill="black" stroke="black" points="129.143,-218.061 132.839,-208.132 123.758,-213.589 129.143,-218.061"/>
</g>
<!-- foo0 -->
<g id="node3" class="node"><title>foo0</title>
<polygon fill="none" stroke="black" points="36.5,-147 6.5,-147 6.5,-122 36.5,-122 36.5,-147"/>
<text text-anchor="middle" x="21.5" y="-132" font-family="Verdana" font-size="10.00">foo</text>
</g>
<!-- Identifier0&#45;&gt;foo0 -->
<g id="edge2" class="edge"><title>Identifier0&#45;&gt;foo0</title>
<path fill="none" stroke="black" d="M27.9195,-182.843C26.9224,-175.49 25.604,-165.767 24.4215,-157.046"/>
<polygon fill="black" stroke="black" points="27.8892,-156.571 23.0773,-147.132 20.9527,-157.512 27.8892,-156.571"/>
</g>
<!-- Identifier1 -->
<g id="node6" class="node"><title>Identifier1</title>
<polygon fill="none" stroke="black" points="114,-147 55,-147 55,-122 114,-122 114,-147"/>
<text text-anchor="middle" x="84.5" y="-132" font-family="Verdana" font-size="10.00">Identifier</text>
</g>
<!-- List1&#45;&gt;Identifier1 -->
<g id="edge5" class="edge"><title>List1&#45;&gt;Identifier1</title>
<path fill="none" stroke="black" d="M131.041,-182.843C123.097,-174.763 112.34,-163.82 103.169,-154.491"/>
<polygon fill="black" stroke="black" points="105.441,-151.81 95.9351,-147.132 100.45,-156.717 105.441,-151.81"/>
</g>
<!-- comma1 -->
<g id="node8" class="node"><title>comma1</title>
<polygon fill="none" stroke="black" points="157,-147 132,-147 132,-122 157,-122 157,-147"/>
<text text-anchor="middle" x="144.5" y="-132" font-family="Verdana" font-size="10.00">,</text>
</g>
<!-- List1&#45;&gt;comma1 -->
<g id="edge7" class="edge"><title>List1&#45;&gt;comma1</title>
<path fill="none" stroke="black" d="M142.895,-182.843C143.142,-175.571 143.467,-165.98 143.76,-157.334"/>
<polygon fill="black" stroke="black" points="147.265,-157.245 144.106,-147.132 140.269,-157.008 147.265,-157.245"/>
</g>
<!-- List2 -->
<g id="node9" class="node"><title>List2</title>
<polygon fill="none" stroke="black" points="207.5,-147 175.5,-147 175.5,-122 207.5,-122 207.5,-147"/>
<text text-anchor="middle" x="191.5" y="-132" font-family="Verdana" font-size="10.00">List</text>
</g>
<!-- List1&#45;&gt;List2 -->
<g id="edge8" class="edge"><title>List1&#45;&gt;List2</title>
<path fill="none" stroke="black" d="M152.181,-182.843C158.758,-174.924 167.617,-164.257 175.261,-155.053"/>
<polygon fill="black" stroke="black" points="178.143,-157.061 181.839,-147.132 172.758,-152.589 178.143,-157.061"/>
</g>
<!-- bar0 -->
<g id="node7" class="node"><title>bar0</title>
<polygon fill="none" stroke="black" points="99.5,-86 69.5,-86 69.5,-61 99.5,-61 99.5,-86"/>
<text text-anchor="middle" x="84.5" y="-71" font-family="Verdana" font-size="10.00">bar</text>
</g>
<!-- Identifier1&#45;&gt;bar0 -->
<g id="edge6" class="edge"><title>Identifier1&#45;&gt;bar0</title>
<path fill="none" stroke="black" d="M84.5,-121.843C84.5,-114.571 84.5,-104.98 84.5,-96.3339"/>
<polygon fill="black" stroke="black" points="88.0001,-96.1323 84.5,-86.1323 81.0001,-96.1323 88.0001,-96.1323"/>
</g>
<!-- Identifier2 -->
<g id="node10" class="node"><title>Identifier2</title>
<polygon fill="none" stroke="black" points="221,-86 162,-86 162,-61 221,-61 221,-86"/>
<text text-anchor="middle" x="191.5" y="-71" font-family="Verdana" font-size="10.00">Identifier</text>
</g>
<!-- List2&#45;&gt;Identifier2 -->
<g id="edge9" class="edge"><title>List2&#45;&gt;Identifier2</title>
<path fill="none" stroke="black" d="M191.5,-121.843C191.5,-114.571 191.5,-104.98 191.5,-96.3339"/>
<polygon fill="black" stroke="black" points="195,-96.1323 191.5,-86.1323 188,-96.1323 195,-96.1323"/>
</g>
<!-- baz0 -->
<g id="node11" class="node"><title>baz0</title>
<polygon fill="none" stroke="black" points="207.5,-25 175.5,-25 175.5,-0 207.5,-0 207.5,-25"/>
<text text-anchor="middle" x="191.5" y="-10" font-family="Verdana" font-size="10.00">baz</text>
</g>
<!-- Identifier2&#45;&gt;baz0 -->
<g id="edge10" class="edge"><title>Identifier2&#45;&gt;baz0</title>
<path fill="none" stroke="black" d="M191.5,-60.8435C191.5,-53.5707 191.5,-43.9803 191.5,-35.3339"/>
<polygon fill="black" stroke="black" points="195,-35.1323 191.5,-25.1323 188,-35.1323 195,-35.1323"/>
</g>
</g>
</svg>
