<?xml version="1.0" encoding="UTF-8" standalone="no"?>
<!DOCTYPE svg PUBLIC "-//W3C//DTD SVG 1.1//EN"
 "http://www.w3.org/Graphics/SVG/1.1/DTD/svg11.dtd">
<!-- Generated by graphviz version 2.38.0 (20140413.2041)
 -->
<!-- Title: %3 Pages: 1 -->
<svg width="59pt" height="113pt"
 viewBox="0.00 0.00 58.50 113.00" xmlns="http://www.w3.org/2000/svg" xmlns:xlink="http://www.w3.org/1999/xlink">
<g id="graph0" class="graph" transform="scale(1 1) rotate(0) translate(4 109)">
<title>%3</title>
<polygon fill="white" stroke="none" points="-4,4 -4,-109 54.5,-109 54.5,4 -4,4"/>
<!-- root -->
<g id="node1" class="node"><title>root</title>
<polygon fill="none" stroke="black" points="31,-105 2,-105 2,-80 31,-80 31,-105"/>
</g>
<!-- s0 -->
<g id="node2" class="node"><title>s0</title>
<polygon fill="none" stroke="black" points="29,-11.3223 29,-21.6777 21.6777,-29 11.3223,-29 4,-21.6777 4,-11.3223 11.3223,-4 21.6777,-4 29,-11.3223"/>
<polygon fill="none" stroke="black" points="33,-9.66548 33,-23.3345 23.3345,-33 9.66548,-33 0,-23.3345 0,-9.66548 9.66548,-0 23.3345,-0 33,-9.66548"/>
</g>
<!-- root&#45;&gt;s0 -->
<g id="edge1" class="edge"><title>root&#45;&gt;s0</title>
<path fill="none" stroke="black" d="M16.5,-79.9375C16.5,-70.1912 16.5,-55.8807 16.5,-43.4182"/>
<polygon fill="black" stroke="black" points="20.0001,-43.103 16.5,-33.1031 13.0001,-43.1031 20.0001,-43.103"/>
<text text-anchor="middle" x="33.5" y="-54" font-family="Verdana" font-size="10.00"> [0&#45;9] </text>
</g>
</g>
</svg>
