<?xml version="1.0" encoding="UTF-8" standalone="no"?>
<!DOCTYPE svg PUBLIC "-//W3C//DTD SVG 1.1//EN"
 "http://www.w3.org/Graphics/SVG/1.1/DTD/svg11.dtd">
<!-- Generated by graphviz version 2.38.0 (20140413.2041)
 -->
<!-- Title: %3 Pages: 1 -->
<svg width="106pt" height="465pt"
 viewBox="0.00 0.00 106.38 465.00" xmlns="http://www.w3.org/2000/svg" xmlns:xlink="http://www.w3.org/1999/xlink">
<g id="graph0" class="graph" transform="scale(1 1) rotate(0) translate(4 461)">
<title>%3</title>
<polygon fill="white" stroke="none" points="-4,4 -4,-461 102.379,-461 102.379,4 -4,4"/>
<!-- root -->
<g id="node1" class="node"><title>root</title>
<polygon fill="none" stroke="black" points="58.7854,-457 33.7854,-457 33.7854,-432 58.7854,-432 58.7854,-457"/>
</g>
<!-- s00 -->
<g id="node2" class="node"><title>s00</title>
<polygon fill="none" stroke="black" points="58.7854,-387.322 58.7854,-397.678 51.4631,-405 41.1078,-405 33.7854,-397.678 33.7854,-387.322 41.1078,-380 51.4631,-380 58.7854,-387.322"/>
</g>
<!-- root&#45;&gt;s00 -->
<g id="edge1" class="edge"><title>root&#45;&gt;s00</title>
<path fill="none" stroke="black" d="M46.2854,-431.903C46.2854,-426.981 46.2854,-421.074 46.2854,-415.386"/>
<polygon fill="black" stroke="black" points="49.7855,-415.034 46.2854,-405.034 42.7855,-415.034 49.7855,-415.034"/>
<text text-anchor="middle" x="53.2854" y="-416" font-family="Verdana" font-size="10.00"> e </text>
</g>
<!-- s01 -->
<g id="node3" class="node"><title>s01</title>
<polygon fill="none" stroke="black" points="58.7854,-335.322 58.7854,-345.678 51.4631,-353 41.1078,-353 33.7854,-345.678 33.7854,-335.322 41.1078,-328 51.4631,-328 58.7854,-335.322"/>
</g>
<!-- s00&#45;&gt;s01 -->
<g id="edge2" class="edge"><title>s00&#45;&gt;s01</title>
<path fill="none" stroke="black" d="M46.2854,-379.903C46.2854,-374.981 46.2854,-369.074 46.2854,-363.386"/>
<polygon fill="black" stroke="black" points="49.7855,-363.034 46.2854,-353.034 42.7855,-363.034 49.7855,-363.034"/>
<text text-anchor="middle" x="52.7854" y="-364" font-family="Verdana" font-size="10.00"> x </text>
</g>
<!-- s02 -->
<g id="node4" class="node"><title>s02</title>
<polygon fill="none" stroke="black" points="38.7854,-283.322 38.7854,-293.678 31.4631,-301 21.1078,-301 13.7854,-293.678 13.7854,-283.322 21.1078,-276 31.4631,-276 38.7854,-283.322"/>
</g>
<!-- s01&#45;&gt;s02 -->
<g id="edge3" class="edge"><title>s01&#45;&gt;s02</title>
<path fill="none" stroke="black" d="M41.5199,-327.963C40.4487,-325.347 39.3223,-322.58 38.2854,-320 37.0728,-316.982 35.8035,-313.792 34.5632,-310.656"/>
<polygon fill="black" stroke="black" points="37.7228,-309.126 30.8047,-301.102 31.2087,-311.689 37.7228,-309.126"/>
<text text-anchor="middle" x="44.7854" y="-312" font-family="Verdana" font-size="10.00"> t </text>
</g>
<!-- s06 -->
<g id="node8" class="node"><title>s06</title>
<polygon fill="none" stroke="black" points="77.7854,-283.322 77.7854,-293.678 70.4631,-301 60.1078,-301 52.7854,-293.678 52.7854,-283.322 60.1078,-276 70.4631,-276 77.7854,-283.322"/>
</g>
<!-- s01&#45;&gt;s06 -->
<g id="edge7" class="edge"><title>s01&#45;&gt;s06</title>
<path fill="none" stroke="black" d="M50.6922,-327.903C52.6586,-322.729 55.0383,-316.466 57.3004,-310.513"/>
<polygon fill="black" stroke="black" points="60.6221,-311.625 60.9026,-301.034 54.0786,-309.138 60.6221,-311.625"/>
<text text-anchor="middle" x="64.2854" y="-312" font-family="Verdana" font-size="10.00"> p </text>
</g>
<!-- s03 -->
<g id="node5" class="node"><title>s03</title>
<polygon fill="none" stroke="black" points="38.7854,-231.322 38.7854,-241.678 31.4631,-249 21.1078,-249 13.7854,-241.678 13.7854,-231.322 21.1078,-224 31.4631,-224 38.7854,-231.322"/>
</g>
<!-- s02&#45;&gt;s03 -->
<g id="edge4" class="edge"><title>s02&#45;&gt;s03</title>
<path fill="none" stroke="black" d="M26.2854,-275.903C26.2854,-270.981 26.2854,-265.074 26.2854,-259.386"/>
<polygon fill="black" stroke="black" points="29.7855,-259.034 26.2854,-249.034 22.7855,-259.034 29.7855,-259.034"/>
<text text-anchor="middle" x="33.2854" y="-260" font-family="Verdana" font-size="10.00"> e </text>
</g>
<!-- s04 -->
<g id="node6" class="node"><title>s04</title>
<polygon fill="none" stroke="black" points="38.7854,-179.322 38.7854,-189.678 31.4631,-197 21.1078,-197 13.7854,-189.678 13.7854,-179.322 21.1078,-172 31.4631,-172 38.7854,-179.322"/>
</g>
<!-- s03&#45;&gt;s04 -->
<g id="edge5" class="edge"><title>s03&#45;&gt;s04</title>
<path fill="none" stroke="black" d="M26.2854,-223.903C26.2854,-218.981 26.2854,-213.074 26.2854,-207.386"/>
<polygon fill="black" stroke="black" points="29.7855,-207.034 26.2854,-197.034 22.7855,-207.034 29.7855,-207.034"/>
<text text-anchor="middle" x="32.2854" y="-208" font-family="Verdana" font-size="10.00"> r </text>
</g>
<!-- s05 -->
<g id="node7" class="node"><title>s05</title>
<polygon fill="none" stroke="black" points="42.3948,-123.322 42.3948,-133.678 31.2008,-141 15.3701,-141 4.17609,-133.678 4.17609,-123.322 15.3701,-116 31.2008,-116 42.3948,-123.322"/>
<polygon fill="none" stroke="black" points="46.3583,-121.148 46.3583,-135.852 32.3729,-145 14.1979,-145 0.212609,-135.852 0.212609,-121.148 14.1979,-112 32.3729,-112 46.3583,-121.148"/>
<text text-anchor="middle" x="23.2854" y="-126" font-family="Verdana" font-size="10.00">extern</text>
</g>
<!-- s04&#45;&gt;s05 -->
<g id="edge6" class="edge"><title>s04&#45;&gt;s05</title>
<path fill="none" stroke="black" d="M25.6345,-171.783C25.3631,-166.897 25.0363,-161.016 24.714,-155.215"/>
<polygon fill="black" stroke="black" points="28.2009,-154.88 24.1515,-145.09 21.2117,-155.268 28.2009,-154.88"/>
<text text-anchor="middle" x="32.2854" y="-156" font-family="Verdana" font-size="10.00"> n </text>
</g>
<!-- s07 -->
<g id="node9" class="node"><title>s07</title>
<polygon fill="none" stroke="black" points="77.7854,-231.322 77.7854,-241.678 70.4631,-249 60.1078,-249 52.7854,-241.678 52.7854,-231.322 60.1078,-224 70.4631,-224 77.7854,-231.322"/>
</g>
<!-- s06&#45;&gt;s07 -->
<g id="edge8" class="edge"><title>s06&#45;&gt;s07</title>
<path fill="none" stroke="black" d="M65.2854,-275.903C65.2854,-270.981 65.2854,-265.074 65.2854,-259.386"/>
<polygon fill="black" stroke="black" points="68.7855,-259.034 65.2854,-249.034 61.7855,-259.034 68.7855,-259.034"/>
<text text-anchor="middle" x="70.2854" y="-260" font-family="Verdana" font-size="10.00"> l </text>
</g>
<!-- s08 -->
<g id="node10" class="node"><title>s08</title>
<polygon fill="none" stroke="black" points="78.7854,-179.322 78.7854,-189.678 71.4631,-197 61.1078,-197 53.7854,-189.678 53.7854,-179.322 61.1078,-172 71.4631,-172 78.7854,-179.322"/>
</g>
<!-- s07&#45;&gt;s08 -->
<g id="edge9" class="edge"><title>s07&#45;&gt;s08</title>
<path fill="none" stroke="black" d="M65.5174,-223.903C65.6158,-218.981 65.7339,-213.074 65.8477,-207.386"/>
<polygon fill="black" stroke="black" points="69.354,-207.102 66.0548,-197.034 62.3554,-206.962 69.354,-207.102"/>
<text text-anchor="middle" x="70.2854" y="-208" font-family="Verdana" font-size="10.00"> i </text>
</g>
<!-- s09 -->
<g id="node11" class="node"><title>s09</title>
<polygon fill="none" stroke="black" points="85.7854,-123.322 85.7854,-133.678 78.4631,-141 68.1078,-141 60.7854,-133.678 60.7854,-123.322 68.1078,-116 78.4631,-116 85.7854,-123.322"/>
</g>
<!-- s08&#45;&gt;s09 -->
<g id="edge10" class="edge"><title>s08&#45;&gt;s09</title>
<path fill="none" stroke="black" d="M67.8043,-171.783C68.5749,-165.839 69.5364,-158.421 70.438,-151.466"/>
<polygon fill="black" stroke="black" points="73.9548,-151.561 71.7695,-141.194 67.0129,-150.661 73.9548,-151.561"/>
<text text-anchor="middle" x="76.2854" y="-156" font-family="Verdana" font-size="10.00"> c </text>
</g>
<!-- s10 -->
<g id="node12" class="node"><title>s10</title>
<polygon fill="none" stroke="black" points="85.7854,-67.3223 85.7854,-77.6777 78.4631,-85 68.1078,-85 60.7854,-77.6777 60.7854,-67.3223 68.1078,-60 78.4631,-60 85.7854,-67.3223"/>
</g>
<!-- s09&#45;&gt;s10 -->
<g id="edge11" class="edge"><title>s09&#45;&gt;s10</title>
<path fill="none" stroke="black" d="M73.2854,-115.783C73.2854,-109.839 73.2854,-102.421 73.2854,-95.4658"/>
<polygon fill="black" stroke="black" points="76.7855,-95.1943 73.2854,-85.1943 69.7855,-95.1944 76.7855,-95.1943"/>
<text text-anchor="middle" x="78.2854" y="-96" font-family="Verdana" font-size="10.00"> i </text>
</g>
<!-- s11 -->
<g id="node13" class="node"><title>s11</title>
<polygon fill="none" stroke="black" points="94.4577,-11.3223 94.4577,-21.6777 82.0553,-29 64.5156,-29 52.1132,-21.6777 52.1132,-11.3223 64.5156,-4 82.0553,-4 94.4577,-11.3223"/>
<polygon fill="none" stroke="black" points="98.4727,-9.04313 98.4727,-23.9569 83.1556,-33 63.4153,-33 48.0982,-23.9569 48.0982,-9.04313 63.4153,3.55271e-015 83.1556,-0 98.4727,-9.04313"/>
<text text-anchor="middle" x="73.2854" y="-14" font-family="Verdana" font-size="10.00">explicit</text>
</g>
<!-- s10&#45;&gt;s11 -->
<g id="edge12" class="edge"><title>s10&#45;&gt;s11</title>
<path fill="none" stroke="black" d="M73.2854,-59.7828C73.2854,-54.8973 73.2854,-49.0163 73.2854,-43.2147"/>
<polygon fill="black" stroke="black" points="76.7855,-43.0896 73.2854,-33.0896 69.7855,-43.0896 76.7855,-43.0896"/>
<text text-anchor="middle" x="79.7854" y="-44" font-family="Verdana" font-size="10.00"> t </text>
</g>
</g>
</svg>
