<?xml version="1.0" encoding="UTF-8" standalone="no"?>
<!DOCTYPE svg PUBLIC "-//W3C//DTD SVG 1.1//EN"
 "http://www.w3.org/Graphics/SVG/1.1/DTD/svg11.dtd">
<!-- Generated by graphviz version 2.38.0 (20140413.2041)
 -->
<!-- Title: %3 Pages: 1 -->
<svg width="466pt" height="302pt"
 viewBox="0.00 0.00 466.00 302.00" xmlns="http://www.w3.org/2000/svg" xmlns:xlink="http://www.w3.org/1999/xlink">
<g id="graph0" class="graph" transform="scale(1 1) rotate(0) translate(4 298)">
<title>%3</title>
<polygon fill="white" stroke="none" points="-4,4 -4,-298 462,-298 462,4 -4,4"/>
<!-- [Class]\nPlayer -->
<g id="node1" class="node"><title>[Class]\nPlayer</title>
<polygon fill="none" stroke="black" points="171,-294 117,-294 117,-264 171,-264 171,-294"/>
<text text-anchor="middle" x="144" y="-282" font-family="Verdana" font-size="10.00">[Class]</text>
<text text-anchor="middle" x="144" y="-271" font-family="Verdana" font-size="10.00">Player</text>
</g>
<!-- [Variable]\nHealth -->
<g id="node2" class="node"><title>[Variable]\nHealth</title>
<polygon fill="none" stroke="black" points="130.5,-228 65.5,-228 65.5,-198 130.5,-198 130.5,-228"/>
<text text-anchor="middle" x="98" y="-216" font-family="Verdana" font-size="10.00">[Variable]</text>
<text text-anchor="middle" x="98" y="-205" font-family="Verdana" font-size="10.00">Health</text>
</g>
<!-- [Class]\nPlayer&#45;&gt;[Variable]\nHealth -->
<g id="edge1" class="edge"><title>[Class]\nPlayer&#45;&gt;[Variable]\nHealth</title>
<path fill="none" stroke="black" d="M133.791,-263.796C128.014,-255.759 120.659,-245.526 114.121,-236.429"/>
<polygon fill="black" stroke="black" points="116.859,-234.241 108.18,-228.164 111.175,-238.327 116.859,-234.241"/>
</g>
<!-- [Function]\nApplyDamage -->
<g id="node5" class="node"><title>[Function]\nApplyDamage</title>
<polygon fill="none" stroke="black" points="231.5,-228 148.5,-228 148.5,-198 231.5,-198 231.5,-228"/>
<text text-anchor="middle" x="190" y="-216" font-family="Verdana" font-size="10.00">[Function]</text>
<text text-anchor="middle" x="190" y="-205" font-family="Verdana" font-size="10.00">ApplyDamage</text>
</g>
<!-- [Class]\nPlayer&#45;&gt;[Function]\nApplyDamage -->
<g id="edge4" class="edge"><title>[Class]\nPlayer&#45;&gt;[Function]\nApplyDamage</title>
<path fill="none" stroke="black" d="M154.209,-263.796C159.986,-255.759 167.341,-245.526 173.879,-236.429"/>
<polygon fill="black" stroke="black" points="176.825,-238.327 179.82,-228.164 171.141,-234.241 176.825,-238.327"/>
</g>
<!-- [Type]\nFloat -->
<g id="node3" class="node"><title>[Type]\nFloat</title>
<polygon fill="none" stroke="black" points="54,-162 0,-162 0,-132 54,-132 54,-162"/>
<text text-anchor="middle" x="27" y="-150" font-family="Verdana" font-size="10.00">[Type]</text>
<text text-anchor="middle" x="27" y="-139" font-family="Verdana" font-size="10.00">Float</text>
</g>
<!-- [Variable]\nHealth&#45;&gt;[Type]\nFloat -->
<g id="edge2" class="edge"><title>[Variable]\nHealth&#45;&gt;[Type]\nFloat</title>
<path fill="none" stroke="black" d="M82.2428,-197.796C72.8668,-189.345 60.7968,-178.465 50.3318,-169.031"/>
<polygon fill="black" stroke="black" points="52.4843,-166.26 42.7132,-162.164 47.7975,-171.459 52.4843,-166.26"/>
</g>
<!-- [Literal]\n100.0f -->
<g id="node4" class="node"><title>[Literal]\n100.0f</title>
<polygon fill="none" stroke="black" points="128,-162 72,-162 72,-132 128,-132 128,-162"/>
<text text-anchor="middle" x="100" y="-150" font-family="Verdana" font-size="10.00">[Literal]</text>
<text text-anchor="middle" x="100" y="-139" font-family="Verdana" font-size="10.00">100.0f</text>
</g>
<!-- [Variable]\nHealth&#45;&gt;[Literal]\n100.0f -->
<g id="edge3" class="edge"><title>[Variable]\nHealth&#45;&gt;[Literal]\n100.0f</title>
<path fill="none" stroke="black" d="M98.4439,-197.796C98.6769,-190.339 98.969,-180.991 99.237,-172.415"/>
<polygon fill="black" stroke="black" points="102.743,-172.268 99.5574,-162.164 95.7466,-172.05 102.743,-172.268"/>
</g>
<!-- [Parameter]\namount -->
<g id="node6" class="node"><title>[Parameter]\namount</title>
<polygon fill="none" stroke="black" points="226,-162 150,-162 150,-132 226,-132 226,-162"/>
<text text-anchor="middle" x="188" y="-150" font-family="Verdana" font-size="10.00">[Parameter]</text>
<text text-anchor="middle" x="188" y="-139" font-family="Verdana" font-size="10.00">amount</text>
</g>
<!-- [Function]\nApplyDamage&#45;&gt;[Parameter]\namount -->
<g id="edge5" class="edge"><title>[Function]\nApplyDamage&#45;&gt;[Parameter]\namount</title>
<path fill="none" stroke="black" d="M189.556,-197.796C189.323,-190.339 189.031,-180.991 188.763,-172.415"/>
<polygon fill="black" stroke="black" points="192.253,-172.05 188.443,-162.164 185.257,-172.268 192.253,-172.05"/>
</g>
<!-- [BinaryOperator]\n&#45;= -->
<g id="node8" class="node"><title>[BinaryOperator]\n&#45;=</title>
<polygon fill="none" stroke="black" points="343.5,-162 244.5,-162 244.5,-132 343.5,-132 343.5,-162"/>
<text text-anchor="middle" x="294" y="-150" font-family="Verdana" font-size="10.00">[BinaryOperator]</text>
<text text-anchor="middle" x="294" y="-139" font-family="Verdana" font-size="10.00">&#45;=</text>
</g>
<!-- [Function]\nApplyDamage&#45;&gt;[BinaryOperator]\n&#45;= -->
<g id="edge7" class="edge"><title>[Function]\nApplyDamage&#45;&gt;[BinaryOperator]\n&#45;=</title>
<path fill="none" stroke="black" d="M212.823,-197.955C227.454,-188.951 246.641,-177.144 262.687,-167.269"/>
<polygon fill="black" stroke="black" points="264.548,-170.234 271.23,-162.012 260.879,-164.273 264.548,-170.234"/>
</g>
<!-- [Type]\nFloat  -->
<g id="node7" class="node"><title>[Type]\nFloat </title>
<polygon fill="none" stroke="black" points="215,-96 161,-96 161,-66 215,-66 215,-96"/>
<text text-anchor="middle" x="188" y="-84" font-family="Verdana" font-size="10.00">[Type]</text>
<text text-anchor="middle" x="188" y="-73" font-family="Verdana" font-size="10.00">Float </text>
</g>
<!-- [Parameter]\namount&#45;&gt;[Type]\nFloat  -->
<g id="edge6" class="edge"><title>[Parameter]\namount&#45;&gt;[Type]\nFloat </title>
<path fill="none" stroke="black" d="M188,-131.796C188,-124.339 188,-114.991 188,-106.415"/>
<polygon fill="black" stroke="black" points="191.5,-106.164 188,-96.164 184.5,-106.164 191.5,-106.164"/>
</g>
<!-- [MemberAccess]\n.Health -->
<g id="node9" class="node"><title>[MemberAccess]\n.Health</title>
<polygon fill="none" stroke="black" points="337.5,-96 238.5,-96 238.5,-66 337.5,-66 337.5,-96"/>
<text text-anchor="middle" x="288" y="-84" font-family="Verdana" font-size="10.00">[MemberAccess]</text>
<text text-anchor="middle" x="288" y="-73" font-family="Verdana" font-size="10.00">.Health</text>
</g>
<!-- [BinaryOperator]\n&#45;=&#45;&gt;[MemberAccess]\n.Health -->
<g id="edge8" class="edge"><title>[BinaryOperator]\n&#45;=&#45;&gt;[MemberAccess]\n.Health</title>
<path fill="none" stroke="black" d="M292.668,-131.796C291.962,-124.256 291.073,-114.783 290.262,-106.129"/>
<polygon fill="black" stroke="black" points="293.746,-105.794 289.328,-96.164 286.777,-106.447 293.746,-105.794"/>
</g>
<!-- [NameReference]\namount -->
<g id="node11" class="node"><title>[NameReference]\namount</title>
<polygon fill="none" stroke="black" points="458,-96 356,-96 356,-66 458,-66 458,-96"/>
<text text-anchor="middle" x="407" y="-84" font-family="Verdana" font-size="10.00">[NameReference]</text>
<text text-anchor="middle" x="407" y="-73" font-family="Verdana" font-size="10.00">amount</text>
</g>
<!-- [BinaryOperator]\n&#45;=&#45;&gt;[NameReference]\namount -->
<g id="edge10" class="edge"><title>[BinaryOperator]\n&#45;=&#45;&gt;[NameReference]\namount</title>
<path fill="none" stroke="black" d="M318.798,-131.955C334.842,-122.868 355.929,-110.925 373.461,-100.996"/>
<polygon fill="black" stroke="black" points="375.283,-103.986 382.26,-96.0123 371.833,-97.8951 375.283,-103.986"/>
</g>
<!-- [NameReference]\nthis -->
<g id="node10" class="node"><title>[NameReference]\nthis</title>
<polygon fill="none" stroke="black" points="339,-30 237,-30 237,-0 339,-0 339,-30"/>
<text text-anchor="middle" x="288" y="-18" font-family="Verdana" font-size="10.00">[NameReference]</text>
<text text-anchor="middle" x="288" y="-7" font-family="Verdana" font-size="10.00">this</text>
</g>
<!-- [MemberAccess]\n.Health&#45;&gt;[NameReference]\nthis -->
<g id="edge9" class="edge"><title>[MemberAccess]\n.Health&#45;&gt;[NameReference]\nthis</title>
<path fill="none" stroke="black" d="M288,-65.7963C288,-58.3391 288,-48.9911 288,-40.4146"/>
<polygon fill="black" stroke="black" points="291.5,-40.1639 288,-30.164 284.5,-40.164 291.5,-40.1639"/>
</g>
</g>
</svg>
