<?xml version="1.0" encoding="UTF-8" standalone="no"?>
<!DOCTYPE svg PUBLIC "-//W3C//DTD SVG 1.1//EN"
 "http://www.w3.org/Graphics/SVG/1.1/DTD/svg11.dtd">
<!-- Generated by graphviz version 2.38.0 (20140413.2041)
 -->
<!-- Title: %3 Pages: 1 -->
<svg width="544pt" height="302pt"
 viewBox="0.00 0.00 544.00 302.00" xmlns="http://www.w3.org/2000/svg" xmlns:xlink="http://www.w3.org/1999/xlink">
<g id="graph0" class="graph" transform="scale(1 1) rotate(0) translate(4 298)">
<title>%3</title>
<polygon fill="white" stroke="none" points="-4,4 -4,-298 540,-298 540,4 -4,4"/>
<!-- [Class]\nAnimal -->
<g id="node1" class="node"><title>[Class]\nAnimal</title>
<polygon fill="none" stroke="black" points="170,-294 116,-294 116,-264 170,-264 170,-294"/>
<text text-anchor="middle" x="143" y="-282" font-family="Verdana" font-size="10.00">[Class]</text>
<text text-anchor="middle" x="143" y="-271" font-family="Verdana" font-size="10.00">Animal</text>
</g>
<!-- [Variable]\nHealth -->
<g id="node2" class="node"><title>[Variable]\nHealth</title>
<polygon fill="none" stroke="black" points="130.5,-228 65.5,-228 65.5,-198 130.5,-198 130.5,-228"/>
<text text-anchor="middle" x="98" y="-216" font-family="Verdana" font-size="10.00">[Variable]</text>
<text text-anchor="middle" x="98" y="-205" font-family="Verdana" font-size="10.00">Health</text>
</g>
<!-- [Class]\nAnimal&#45;&gt;[Variable]\nHealth -->
<g id="edge1" class="edge"><title>[Class]\nAnimal&#45;&gt;[Variable]\nHealth</title>
<path fill="none" stroke="black" d="M133.013,-263.796C127.362,-255.759 120.166,-245.526 113.77,-236.429"/>
<polygon fill="black" stroke="black" points="116.574,-234.331 107.959,-228.164 110.848,-238.357 116.574,-234.331"/>
</g>
<!-- [Function]\nTakeDamage -->
<g id="node5" class="node"><title>[Function]\nTakeDamage</title>
<polygon fill="none" stroke="black" points="229,-228 149,-228 149,-198 229,-198 229,-228"/>
<text text-anchor="middle" x="189" y="-216" font-family="Verdana" font-size="10.00">[Function]</text>
<text text-anchor="middle" x="189" y="-205" font-family="Verdana" font-size="10.00">TakeDamage</text>
</g>
<!-- [Class]\nAnimal&#45;&gt;[Function]\nTakeDamage -->
<g id="edge4" class="edge"><title>[Class]\nAnimal&#45;&gt;[Function]\nTakeDamage</title>
<path fill="none" stroke="black" d="M153.209,-263.796C158.986,-255.759 166.341,-245.526 172.879,-236.429"/>
<polygon fill="black" stroke="black" points="175.825,-238.327 178.82,-228.164 170.141,-234.241 175.825,-238.327"/>
</g>
<!-- [Type]\nReal -->
<g id="node3" class="node"><title>[Type]\nReal</title>
<polygon fill="none" stroke="black" points="54,-162 0,-162 0,-132 54,-132 54,-162"/>
<text text-anchor="middle" x="27" y="-150" font-family="Verdana" font-size="10.00">[Type]</text>
<text text-anchor="middle" x="27" y="-139" font-family="Verdana" font-size="10.00">Real</text>
</g>
<!-- [Variable]\nHealth&#45;&gt;[Type]\nReal -->
<g id="edge2" class="edge"><title>[Variable]\nHealth&#45;&gt;[Type]\nReal</title>
<path fill="none" stroke="black" d="M82.2428,-197.796C72.8668,-189.345 60.7968,-178.465 50.3318,-169.031"/>
<polygon fill="black" stroke="black" points="52.4843,-166.26 42.7132,-162.164 47.7975,-171.459 52.4843,-166.26"/>
</g>
<!-- [Literal]\n100.0 -->
<g id="node4" class="node"><title>[Literal]\n100.0</title>
<polygon fill="none" stroke="black" points="128,-162 72,-162 72,-132 128,-132 128,-162"/>
<text text-anchor="middle" x="100" y="-150" font-family="Verdana" font-size="10.00">[Literal]</text>
<text text-anchor="middle" x="100" y="-139" font-family="Verdana" font-size="10.00">100.0</text>
</g>
<!-- [Variable]\nHealth&#45;&gt;[Literal]\n100.0 -->
<g id="edge3" class="edge"><title>[Variable]\nHealth&#45;&gt;[Literal]\n100.0</title>
<path fill="none" stroke="black" d="M98.4439,-197.796C98.6769,-190.339 98.969,-180.991 99.237,-172.415"/>
<polygon fill="black" stroke="black" points="102.743,-172.268 99.5574,-162.164 95.7466,-172.05 102.743,-172.268"/>
</g>
<!-- [Parameter]\namount -->
<g id="node6" class="node"><title>[Parameter]\namount</title>
<polygon fill="none" stroke="black" points="225,-162 149,-162 149,-132 225,-132 225,-162"/>
<text text-anchor="middle" x="187" y="-150" font-family="Verdana" font-size="10.00">[Parameter]</text>
<text text-anchor="middle" x="187" y="-139" font-family="Verdana" font-size="10.00">amount</text>
</g>
<!-- [Function]\nTakeDamage&#45;&gt;[Parameter]\namount -->
<g id="edge5" class="edge"><title>[Function]\nTakeDamage&#45;&gt;[Parameter]\namount</title>
<path fill="none" stroke="black" d="M188.556,-197.796C188.323,-190.339 188.031,-180.991 187.763,-172.415"/>
<polygon fill="black" stroke="black" points="191.253,-172.05 187.443,-162.164 184.257,-172.268 191.253,-172.05"/>
</g>
<!-- [BinaryOperator]\n&#45;= -->
<g id="node8" class="node"><title>[BinaryOperator]\n&#45;=</title>
<polygon fill="none" stroke="black" points="342.5,-162 243.5,-162 243.5,-132 342.5,-132 342.5,-162"/>
<text text-anchor="middle" x="293" y="-150" font-family="Verdana" font-size="10.00">[BinaryOperator]</text>
<text text-anchor="middle" x="293" y="-139" font-family="Verdana" font-size="10.00">&#45;=</text>
</g>
<!-- [Function]\nTakeDamage&#45;&gt;[BinaryOperator]\n&#45;= -->
<g id="edge7" class="edge"><title>[Function]\nTakeDamage&#45;&gt;[BinaryOperator]\n&#45;=</title>
<path fill="none" stroke="black" d="M211.823,-197.955C226.454,-188.951 245.641,-177.144 261.687,-167.269"/>
<polygon fill="black" stroke="black" points="263.548,-170.234 270.23,-162.012 259.879,-164.273 263.548,-170.234"/>
</g>
<!-- [Type]\nReal  -->
<g id="node7" class="node"><title>[Type]\nReal </title>
<polygon fill="none" stroke="black" points="214,-96 160,-96 160,-66 214,-66 214,-96"/>
<text text-anchor="middle" x="187" y="-84" font-family="Verdana" font-size="10.00">[Type]</text>
<text text-anchor="middle" x="187" y="-73" font-family="Verdana" font-size="10.00">Real </text>
</g>
<!-- [Parameter]\namount&#45;&gt;[Type]\nReal  -->
<g id="edge6" class="edge"><title>[Parameter]\namount&#45;&gt;[Type]\nReal </title>
<path fill="none" stroke="black" d="M187,-131.796C187,-124.339 187,-114.991 187,-106.415"/>
<polygon fill="black" stroke="black" points="190.5,-106.164 187,-96.164 183.5,-106.164 190.5,-106.164"/>
</g>
<!-- [MemberAccess]\n.Health -->
<g id="node9" class="node"><title>[MemberAccess]\n.Health</title>
<polygon fill="none" stroke="black" points="336.5,-96 237.5,-96 237.5,-66 336.5,-66 336.5,-96"/>
<text text-anchor="middle" x="287" y="-84" font-family="Verdana" font-size="10.00">[MemberAccess]</text>
<text text-anchor="middle" x="287" y="-73" font-family="Verdana" font-size="10.00">.Health</text>
</g>
<!-- [BinaryOperator]\n&#45;=&#45;&gt;[MemberAccess]\n.Health -->
<g id="edge8" class="edge"><title>[BinaryOperator]\n&#45;=&#45;&gt;[MemberAccess]\n.Health</title>
<path fill="none" stroke="black" d="M291.668,-131.796C290.962,-124.256 290.073,-114.783 289.262,-106.129"/>
<polygon fill="black" stroke="black" points="292.746,-105.794 288.328,-96.164 285.777,-106.447 292.746,-105.794"/>
</g>
<!-- [BinaryOperator]\n* -->
<g id="node11" class="node"><title>[BinaryOperator]\n*</title>
<polygon fill="none" stroke="black" points="457.5,-96 358.5,-96 358.5,-66 457.5,-66 457.5,-96"/>
<text text-anchor="middle" x="408" y="-84" font-family="Verdana" font-size="10.00">[BinaryOperator]</text>
<text text-anchor="middle" x="408" y="-73" font-family="Verdana" font-size="10.00">*</text>
</g>
<!-- [BinaryOperator]\n&#45;=&#45;&gt;[BinaryOperator]\n* -->
<g id="edge10" class="edge"><title>[BinaryOperator]\n&#45;=&#45;&gt;[BinaryOperator]\n*</title>
<path fill="none" stroke="black" d="M318.237,-131.955C334.565,-122.868 356.025,-110.925 373.867,-100.996"/>
<polygon fill="black" stroke="black" points="375.786,-103.934 382.822,-96.0123 372.382,-97.8169 375.786,-103.934"/>
</g>
<!-- [NamedReference]\nthis -->
<g id="node10" class="node"><title>[NamedReference]\nthis</title>
<polygon fill="none" stroke="black" points="336,-30 228,-30 228,-0 336,-0 336,-30"/>
<text text-anchor="middle" x="282" y="-18" font-family="Verdana" font-size="10.00">[NamedReference]</text>
<text text-anchor="middle" x="282" y="-7" font-family="Verdana" font-size="10.00">this</text>
</g>
<!-- [MemberAccess]\n.Health&#45;&gt;[NamedReference]\nthis -->
<g id="edge9" class="edge"><title>[MemberAccess]\n.Health&#45;&gt;[NamedReference]\nthis</title>
<path fill="none" stroke="black" d="M285.89,-65.7963C285.308,-58.3391 284.577,-48.9911 283.907,-40.4146"/>
<polygon fill="black" stroke="black" points="287.375,-39.861 283.107,-30.164 280.396,-40.4062 287.375,-39.861"/>
</g>
<!-- [NamedReference]\namount -->
<g id="node12" class="node"><title>[NamedReference]\namount</title>
<polygon fill="none" stroke="black" points="462,-30 354,-30 354,-0 462,-0 462,-30"/>
<text text-anchor="middle" x="408" y="-18" font-family="Verdana" font-size="10.00">[NamedReference]</text>
<text text-anchor="middle" x="408" y="-7" font-family="Verdana" font-size="10.00">amount</text>
</g>
<!-- [BinaryOperator]\n*&#45;&gt;[NamedReference]\namount -->
<g id="edge11" class="edge"><title>[BinaryOperator]\n*&#45;&gt;[NamedReference]\namount</title>
<path fill="none" stroke="black" d="M408,-65.7963C408,-58.3391 408,-48.9911 408,-40.4146"/>
<polygon fill="black" stroke="black" points="411.5,-40.1639 408,-30.164 404.5,-40.164 411.5,-40.1639"/>
</g>
<!-- [Literal]\n10.0 -->
<g id="node13" class="node"><title>[Literal]\n10.0</title>
<polygon fill="none" stroke="black" points="536,-30 480,-30 480,-0 536,-0 536,-30"/>
<text text-anchor="middle" x="508" y="-18" font-family="Verdana" font-size="10.00">[Literal]</text>
<text text-anchor="middle" x="508" y="-7" font-family="Verdana" font-size="10.00">10.0</text>
</g>
<!-- [BinaryOperator]\n*&#45;&gt;[Literal]\n10.0 -->
<g id="edge12" class="edge"><title>[BinaryOperator]\n*&#45;&gt;[Literal]\n10.0</title>
<path fill="none" stroke="black" d="M430.193,-65.7963C444.046,-56.9305 462.075,-45.3923 477.289,-35.6551"/>
<polygon fill="black" stroke="black" points="479.333,-38.5025 485.869,-30.164 475.559,-32.6066 479.333,-38.5025"/>
</g>
</g>
</svg>
