<?xml version="1.0" encoding="UTF-8" standalone="no"?>
<!DOCTYPE svg PUBLIC "-//W3C//DTD SVG 1.1//EN"
 "http://www.w3.org/Graphics/SVG/1.1/DTD/svg11.dtd">
<!-- Generated by graphviz version 2.38.0 (20140413.2041)
 -->
<!-- Title: %3 Pages: 1 -->
<svg width="331pt" height="170pt"
 viewBox="0.00 0.00 331.00 170.00" xmlns="http://www.w3.org/2000/svg" xmlns:xlink="http://www.w3.org/1999/xlink">
<g id="graph0" class="graph" transform="scale(1 1) rotate(0) translate(4 166)">
<title>%3</title>
<polygon fill="white" stroke="none" points="-4,4 -4,-166 327,-166 327,4 -4,4"/>
<!-- [Function]\nTest -->
<g id="node1" class="node"><title>[Function]\nTest</title>
<polygon fill="none" stroke="black" points="183,-162 115,-162 115,-132 183,-132 183,-162"/>
<text text-anchor="middle" x="149" y="-150" font-family="Verdana" font-size="10.00">[Function]</text>
<text text-anchor="middle" x="149" y="-139" font-family="Verdana" font-size="10.00">Test</text>
</g>
<!-- [Variable]\na -->
<g id="node2" class="node"><title>[Variable]\na</title>
<polygon fill="none" stroke="black" points="131.5,-96 66.5,-96 66.5,-66 131.5,-66 131.5,-96"/>
<text text-anchor="middle" x="99" y="-84" font-family="Verdana" font-size="10.00">[Variable]</text>
<text text-anchor="middle" x="99" y="-73" font-family="Verdana" font-size="10.00">a</text>
</g>
<!-- [Function]\nTest&#45;&gt;[Variable]\na -->
<g id="edge1" class="edge"><title>[Function]\nTest&#45;&gt;[Variable]\na</title>
<path fill="none" stroke="black" d="M137.903,-131.796C131.56,-123.676 123.464,-113.314 116.303,-104.148"/>
<polygon fill="black" stroke="black" points="118.98,-101.889 110.066,-96.164 113.464,-106.199 118.98,-101.889"/>
</g>
<!-- [BinaryOperator]\n+= -->
<g id="node3" class="node"><title>[BinaryOperator]\n+=</title>
<polygon fill="none" stroke="black" points="248.5,-96 149.5,-96 149.5,-66 248.5,-66 248.5,-96"/>
<text text-anchor="middle" x="199" y="-84" font-family="Verdana" font-size="10.00">[BinaryOperator]</text>
<text text-anchor="middle" x="199" y="-73" font-family="Verdana" font-size="10.00">+=</text>
</g>
<!-- [Function]\nTest&#45;&gt;[BinaryOperator]\n+= -->
<g id="edge2" class="edge"><title>[Function]\nTest&#45;&gt;[BinaryOperator]\n+=</title>
<path fill="none" stroke="black" d="M160.097,-131.796C166.44,-123.676 174.536,-113.314 181.697,-104.148"/>
<polygon fill="black" stroke="black" points="184.536,-106.199 187.934,-96.164 179.02,-101.889 184.536,-106.199"/>
</g>
<!-- [Type]\nInteger -->
<g id="node4" class="node"><title>[Type]\nInteger</title>
<polygon fill="none" stroke="black" points="54,-30 0,-30 0,-0 54,-0 54,-30"/>
<text text-anchor="middle" x="27" y="-18" font-family="Verdana" font-size="10.00">[Type]</text>
<text text-anchor="middle" x="27" y="-7" font-family="Verdana" font-size="10.00">Integer</text>
</g>
<!-- [Variable]\na&#45;&gt;[Type]\nInteger -->
<g id="edge3" class="edge"><title>[Variable]\na&#45;&gt;[Type]\nInteger</title>
<path fill="none" stroke="black" d="M83.0209,-65.7963C73.5128,-57.3448 61.2728,-46.4648 50.6604,-37.0315"/>
<polygon fill="black" stroke="black" points="52.7339,-34.1917 42.9345,-30.164 48.0833,-39.4236 52.7339,-34.1917"/>
</g>
<!-- [Literal]\n100 -->
<g id="node5" class="node"><title>[Literal]\n100</title>
<polygon fill="none" stroke="black" points="128,-30 72,-30 72,-0 128,-0 128,-30"/>
<text text-anchor="middle" x="100" y="-18" font-family="Verdana" font-size="10.00">[Literal]</text>
<text text-anchor="middle" x="100" y="-7" font-family="Verdana" font-size="10.00">100</text>
</g>
<!-- [Variable]\na&#45;&gt;[Literal]\n100 -->
<g id="edge4" class="edge"><title>[Variable]\na&#45;&gt;[Literal]\n100</title>
<path fill="none" stroke="black" d="M99.2219,-65.7963C99.3385,-58.3391 99.4845,-48.9911 99.6185,-40.4146"/>
<polygon fill="black" stroke="black" points="103.122,-40.2175 99.7787,-30.164 96.1228,-40.108 103.122,-40.2175"/>
</g>
<!-- [NameReference]\na -->
<g id="node6" class="node"><title>[NameReference]\na</title>
<polygon fill="none" stroke="black" points="249,-30 147,-30 147,-0 249,-0 249,-30"/>
<text text-anchor="middle" x="198" y="-18" font-family="Verdana" font-size="10.00">[NameReference]</text>
<text text-anchor="middle" x="198" y="-7" font-family="Verdana" font-size="10.00">a</text>
</g>
<!-- [BinaryOperator]\n+=&#45;&gt;[NameReference]\na -->
<g id="edge5" class="edge"><title>[BinaryOperator]\n+=&#45;&gt;[NameReference]\na</title>
<path fill="none" stroke="black" d="M198.778,-65.7963C198.662,-58.3391 198.515,-48.9911 198.381,-40.4146"/>
<polygon fill="black" stroke="black" points="201.877,-40.108 198.221,-30.164 194.878,-40.2175 201.877,-40.108"/>
</g>
<!-- [Literal]\n20.0f -->
<g id="node7" class="node"><title>[Literal]\n20.0f</title>
<polygon fill="none" stroke="black" points="323,-30 267,-30 267,-0 323,-0 323,-30"/>
<text text-anchor="middle" x="295" y="-18" font-family="Verdana" font-size="10.00">[Literal]</text>
<text text-anchor="middle" x="295" y="-7" font-family="Verdana" font-size="10.00">20.0f</text>
</g>
<!-- [BinaryOperator]\n+=&#45;&gt;[Literal]\n20.0f -->
<g id="edge6" class="edge"><title>[BinaryOperator]\n+=&#45;&gt;[Literal]\n20.0f</title>
<path fill="none" stroke="black" d="M220.306,-65.7963C233.48,-57.0133 250.588,-45.6077 265.107,-35.9286"/>
<polygon fill="black" stroke="black" points="267.375,-38.6232 273.754,-30.164 263.492,-32.7988 267.375,-38.6232"/>
</g>
</g>
</svg>
