<?xml version="1.0" encoding="UTF-8" standalone="no"?>
<!DOCTYPE svg PUBLIC "-//W3C//DTD SVG 1.1//EN"
 "http://www.w3.org/Graphics/SVG/1.1/DTD/svg11.dtd">
<!-- Generated by graphviz version 2.38.0 (20140413.2041)
 -->
<!-- Title: %3 Pages: 1 -->
<svg width="994pt" height="573pt"
 viewBox="0.00 0.00 994.29 573.00" xmlns="http://www.w3.org/2000/svg" xmlns:xlink="http://www.w3.org/1999/xlink">
<g id="graph0" class="graph" transform="scale(1 1) rotate(0) translate(4 569)">
<title>%3</title>
<polygon fill="white" stroke="none" points="-4,4 -4,-569 990.285,-569 990.285,4 -4,4"/>
<!-- root -->
<g id="node1" class="node"><title>root</title>
<polygon fill="none" stroke="black" points="880.785,-565 855.785,-565 855.785,-540 880.785,-540 880.785,-565"/>
</g>
<!-- s00 -->
<g id="node2" class="node"><title>s00</title>
<polygon fill="none" stroke="black" points="819.127,-491.322 819.127,-501.678 803.989,-509 782.582,-509 767.444,-501.678 767.444,-491.322 782.582,-484 803.989,-484 819.127,-491.322"/>
<polygon fill="none" stroke="black" points="823.115,-488.811 823.115,-504.189 804.901,-513 781.67,-513 763.456,-504.189 763.456,-488.811 781.67,-480 804.901,-480 823.115,-488.811"/>
<text text-anchor="middle" x="793.285" y="-494" font-family="Verdana" font-size="10.00">identifier</text>
</g>
<!-- root&#45;&gt;s00 -->
<g id="edge1" class="edge"><title>root&#45;&gt;s00</title>
<path fill="none" stroke="blue" d="M855.563,-542.34C845.579,-535.152 831.356,-524.911 819.021,-516.03"/>
<polygon fill="blue" stroke="blue" points="821.02,-513.156 810.859,-510.153 816.93,-518.837 821.02,-513.156"/>
<text text-anchor="middle" x="856.785" y="-524" font-family="Verdana" font-size="10.00"> (0) e </text>
</g>
<!-- s0 -->
<g id="node14" class="node"><title>s0</title>
<polygon fill="none" stroke="black" points="573.127,-11.3223 573.127,-21.6777 557.989,-29 536.582,-29 521.444,-21.6777 521.444,-11.3223 536.582,-4 557.989,-4 573.127,-11.3223"/>
<polygon fill="none" stroke="black" points="577.115,-8.81072 577.115,-24.1893 558.901,-33 535.67,-33 517.456,-24.1893 517.456,-8.81072 535.67,3.55271e-015 558.901,-0 577.115,-8.81072"/>
<text text-anchor="middle" x="547.285" y="-14" font-family="Verdana" font-size="10.00">identifier</text>
</g>
<!-- root&#45;&gt;s0 -->
<g id="edge25" class="edge"><title>root&#45;&gt;s0</title>
<path fill="none" stroke="blue" d="M880.81,-542.718C892.867,-533.128 909.285,-516.569 909.285,-497.5 909.285,-497.5 909.285,-497.5 909.285,-75.5 909.285,-43.1768 681.357,-25.6314 587.221,-19.7634"/>
<polygon fill="blue" stroke="blue" points="587.412,-16.2686 577.217,-19.1525 586.985,-23.2556 587.412,-16.2686"/>
<text text-anchor="middle" x="947.785" y="-284" font-family="Verdana" font-size="10.00"> (1) [a&#45;zA&#45;Z_] </text>
</g>
<!-- s01 -->
<g id="node3" class="node"><title>s01</title>
<polygon fill="none" stroke="black" points="672.127,-431.322 672.127,-441.678 656.989,-449 635.582,-449 620.444,-441.678 620.444,-431.322 635.582,-424 656.989,-424 672.127,-431.322"/>
<polygon fill="none" stroke="black" points="676.115,-428.811 676.115,-444.189 657.901,-453 634.67,-453 616.456,-444.189 616.456,-428.811 634.67,-420 657.901,-420 676.115,-428.811"/>
<text text-anchor="middle" x="646.285" y="-434" font-family="Verdana" font-size="10.00">identifier</text>
</g>
<!-- s00&#45;&gt;s01 -->
<g id="edge2" class="edge"><title>s00&#45;&gt;s01</title>
<path fill="none" stroke="blue" d="M769.011,-485.922C744.754,-476.351 707.257,-461.557 680.092,-450.839"/>
<polygon fill="blue" stroke="blue" points="681.182,-447.506 670.596,-447.092 678.613,-454.018 681.182,-447.506"/>
<text text-anchor="middle" x="749.285" y="-464" font-family="Verdana" font-size="10.00"> (0) x </text>
</g>
<!-- s00&#45;&gt;s0 -->
<g id="edge13" class="edge"><title>s00&#45;&gt;s0</title>
<path fill="none" stroke="blue" d="M793.285,-479.745C793.285,-468.08 793.285,-451.799 793.285,-437.5 793.285,-437.5 793.285,-437.5 793.285,-75.5 793.285,-33.7632 657.444,-22.0282 587.649,-18.7532"/>
<polygon fill="blue" stroke="blue" points="587.592,-15.2476 577.45,-18.3129 587.29,-22.2411 587.592,-15.2476"/>
<text text-anchor="middle" x="840.285" y="-254" font-family="Verdana" font-size="10.00"> (1) [a&#45;zA&#45;Z_0&#45;9] </text>
</g>
<!-- s02 -->
<g id="node4" class="node"><title>s02</title>
<polygon fill="none" stroke="black" points="319.127,-251.322 319.127,-261.678 303.989,-269 282.582,-269 267.444,-261.678 267.444,-251.322 282.582,-244 303.989,-244 319.127,-251.322"/>
<polygon fill="none" stroke="black" points="323.115,-248.811 323.115,-264.189 304.901,-273 281.67,-273 263.456,-264.189 263.456,-248.811 281.67,-240 304.901,-240 323.115,-248.811"/>
<text text-anchor="middle" x="293.285" y="-254" font-family="Verdana" font-size="10.00">identifier</text>
</g>
<!-- s01&#45;&gt;s02 -->
<g id="edge3" class="edge"><title>s01&#45;&gt;s02</title>
<path fill="none" stroke="blue" d="M624.735,-424.633C564.546,-394.283 394.475,-308.525 324.23,-273.104"/>
<polygon fill="blue" stroke="blue" points="325.507,-269.828 315.002,-268.451 322.355,-276.078 325.507,-269.828"/>
<text text-anchor="middle" x="493.785" y="-344" font-family="Verdana" font-size="10.00"> (0) t </text>
</g>
<!-- s06 -->
<g id="node8" class="node"><title>s06</title>
<polygon fill="none" stroke="black" points="628.127,-371.322 628.127,-381.678 612.989,-389 591.582,-389 576.444,-381.678 576.444,-371.322 591.582,-364 612.989,-364 628.127,-371.322"/>
<polygon fill="none" stroke="black" points="632.115,-368.811 632.115,-384.189 613.901,-393 590.67,-393 572.456,-384.189 572.456,-368.811 590.67,-360 613.901,-360 632.115,-368.811"/>
<text text-anchor="middle" x="602.285" y="-374" font-family="Verdana" font-size="10.00">identifier</text>
</g>
<!-- s01&#45;&gt;s06 -->
<g id="edge7" class="edge"><title>s01&#45;&gt;s06</title>
<path fill="none" stroke="blue" d="M634.494,-419.957C630.154,-414.236 625.133,-407.617 620.365,-401.332"/>
<polygon fill="blue" stroke="blue" points="622.942,-398.937 614.109,-393.086 617.365,-403.168 622.942,-398.937"/>
<text text-anchor="middle" x="644.785" y="-404" font-family="Verdana" font-size="10.00"> (0) p </text>
</g>
<!-- s01&#45;&gt;s0 -->
<g id="edge14" class="edge"><title>s01&#45;&gt;s0</title>
<path fill="none" stroke="blue" d="M662.555,-422.023C673.629,-411.264 686.285,-395.114 686.285,-377.5 686.285,-377.5 686.285,-377.5 686.285,-255.5 686.285,-240.141 679.547,-233.631 688.285,-221 693.266,-213.801 700.611,-219.666 706.285,-213 719.842,-197.075 718.285,-188.414 718.285,-167.5 718.285,-167.5 718.285,-167.5 718.285,-75.5 718.285,-48.0048 637.998,-30.9577 587.451,-22.9499"/>
<polygon fill="blue" stroke="blue" points="587.877,-19.4745 577.463,-21.4231 586.819,-26.3941 587.877,-19.4745"/>
<text text-anchor="middle" x="735.285" y="-224" font-family="Verdana" font-size="10.00"> (1) [a&#45;zA&#45;Z_0&#45;9] </text>
</g>
<!-- s03 -->
<g id="node5" class="node"><title>s03</title>
<polygon fill="none" stroke="black" points="225.127,-191.322 225.127,-201.678 209.989,-209 188.582,-209 173.444,-201.678 173.444,-191.322 188.582,-184 209.989,-184 225.127,-191.322"/>
<polygon fill="none" stroke="black" points="229.115,-188.811 229.115,-204.189 210.901,-213 187.67,-213 169.456,-204.189 169.456,-188.811 187.67,-180 210.901,-180 229.115,-188.811"/>
<text text-anchor="middle" x="199.285" y="-194" font-family="Verdana" font-size="10.00">identifier</text>
</g>
<!-- s02&#45;&gt;s03 -->
<g id="edge4" class="edge"><title>s02&#45;&gt;s03</title>
<path fill="none" stroke="blue" d="M271.527,-244.505C264.347,-240.712 256.385,-236.326 249.285,-232 241.388,-227.188 233.035,-221.625 225.464,-216.389"/>
<polygon fill="blue" stroke="blue" points="227.207,-213.337 217.011,-210.459 223.187,-219.067 227.207,-213.337"/>
<text text-anchor="middle" x="265.785" y="-224" font-family="Verdana" font-size="10.00"> (0) e </text>
</g>
<!-- s02&#45;&gt;s0 -->
<g id="edge15" class="edge"><title>s02&#45;&gt;s0</title>
<path fill="none" stroke="blue" d="M292.533,-239.854C291.655,-214.417 291.318,-162.645 300.285,-120 308.014,-83.2463 300.566,-63.964 330.285,-41 357.047,-20.3216 451.986,-17.0545 507.018,-16.9716"/>
<polygon fill="blue" stroke="blue" points="507.126,-20.4718 517.132,-16.9915 507.139,-13.4718 507.126,-20.4718"/>
<text text-anchor="middle" x="347.285" y="-134" font-family="Verdana" font-size="10.00"> (1) [a&#45;zA&#45;Z_0&#45;9] </text>
</g>
<!-- s04 -->
<g id="node6" class="node"><title>s04</title>
<polygon fill="none" stroke="black" points="141.127,-131.322 141.127,-141.678 125.989,-149 104.582,-149 89.4442,-141.678 89.4442,-131.322 104.582,-124 125.989,-124 141.127,-131.322"/>
<polygon fill="none" stroke="black" points="145.115,-128.811 145.115,-144.189 126.901,-153 103.67,-153 85.4556,-144.189 85.4556,-128.811 103.67,-120 126.901,-120 145.115,-128.811"/>
<text text-anchor="middle" x="115.285" y="-134" font-family="Verdana" font-size="10.00">identifier</text>
</g>
<!-- s03&#45;&gt;s04 -->
<g id="edge5" class="edge"><title>s03&#45;&gt;s04</title>
<path fill="none" stroke="blue" d="M177.908,-184.498C171.158,-180.772 163.773,-176.428 157.285,-172 150.963,-167.685 144.429,-162.64 138.454,-157.761"/>
<polygon fill="blue" stroke="blue" points="140.64,-155.026 130.724,-151.295 136.149,-160.396 140.64,-155.026"/>
<text text-anchor="middle" x="172.785" y="-164" font-family="Verdana" font-size="10.00"> (0) r </text>
</g>
<!-- s03&#45;&gt;s0 -->
<g id="edge16" class="edge"><title>s03&#45;&gt;s0</title>
<path fill="none" stroke="blue" d="M194.903,-179.942C190.232,-159.888 185.474,-124.776 201.285,-101 206.133,-93.7103 211.641,-97.2672 219.285,-93 255.022,-73.0509 256.791,-54.9 295.285,-41 333.181,-27.3163 446.105,-21.1779 507.114,-18.7966"/>
<polygon fill="blue" stroke="blue" points="507.294,-22.2924 517.156,-18.4204 507.032,-15.2973 507.294,-22.2924"/>
<text text-anchor="middle" x="248.285" y="-104" font-family="Verdana" font-size="10.00"> (1) [a&#45;zA&#45;Z_0&#45;9] </text>
</g>
<!-- s05 -->
<g id="node7" class="node"><title>s05</title>
<polygon fill="none" stroke="black" points="42.3948,-71.3223 42.3948,-81.6777 31.2008,-89 15.3701,-89 4.17609,-81.6777 4.17609,-71.3223 15.3701,-64 31.2008,-64 42.3948,-71.3223"/>
<polygon fill="none" stroke="black" points="46.3583,-69.1482 46.3583,-83.8518 32.3729,-93 14.1979,-93 0.212609,-83.8518 0.212609,-69.1482 14.1979,-60 32.3729,-60 46.3583,-69.1482"/>
<text text-anchor="middle" x="23.2854" y="-74" font-family="Verdana" font-size="10.00">extern</text>
</g>
<!-- s04&#45;&gt;s05 -->
<g id="edge6" class="edge"><title>s04&#45;&gt;s05</title>
<path fill="none" stroke="blue" d="M93.478,-124.585C86.295,-120.797 78.3431,-116.394 71.2854,-112 63.1452,-106.932 54.5527,-100.967 46.9225,-95.436"/>
<polygon fill="blue" stroke="blue" points="48.6183,-92.3378 38.4922,-89.2212 44.4646,-97.9723 48.6183,-92.3378"/>
<text text-anchor="middle" x="87.7854" y="-104" font-family="Verdana" font-size="10.00"> (0) n </text>
</g>
<!-- s04&#45;&gt;s0 -->
<g id="edge17" class="edge"><title>s04&#45;&gt;s0</title>
<path fill="none" stroke="blue" d="M112.803,-119.987C111.031,-102.973 111.169,-75.968 126.285,-60 152.198,-32.6276 407.153,-21.8283 507.246,-18.6217"/>
<polygon fill="blue" stroke="blue" points="507.387,-22.1191 517.273,-18.3094 507.169,-15.1225 507.387,-22.1191"/>
<text text-anchor="middle" x="173.285" y="-74" font-family="Verdana" font-size="10.00"> (1) [a&#45;zA&#45;Z_0&#45;9] </text>
</g>
<!-- s05&#45;&gt;s0 -->
<g id="edge18" class="edge"><title>s05&#45;&gt;s0</title>
<path fill="none" stroke="blue" d="M11.68,-61.3328C7.49881,-54.476 4.97431,-46.5486 10.2854,-41 27.4104,-23.1092 385.485,-18.7301 507.202,-17.7565"/>
<polygon fill="blue" stroke="blue" points="507.255,-21.2563 517.227,-17.6798 507.201,-14.2565 507.255,-21.2563"/>
<text text-anchor="middle" x="57.2854" y="-44" font-family="Verdana" font-size="10.00"> (1) [a&#45;zA&#45;Z_0&#45;9] </text>
</g>
<!-- s07 -->
<g id="node9" class="node"><title>s07</title>
<polygon fill="none" stroke="black" points="576.127,-311.322 576.127,-321.678 560.989,-329 539.582,-329 524.444,-321.678 524.444,-311.322 539.582,-304 560.989,-304 576.127,-311.322"/>
<polygon fill="none" stroke="black" points="580.115,-308.811 580.115,-324.189 561.901,-333 538.67,-333 520.456,-324.189 520.456,-308.811 538.67,-300 561.901,-300 580.115,-308.811"/>
<text text-anchor="middle" x="550.285" y="-314" font-family="Verdana" font-size="10.00">identifier</text>
</g>
<!-- s06&#45;&gt;s07 -->
<g id="edge8" class="edge"><title>s06&#45;&gt;s07</title>
<path fill="none" stroke="blue" d="M579.025,-365.5C572.913,-361.968 566.782,-357.479 562.285,-352 560.004,-349.219 558.144,-345.978 556.631,-342.615"/>
<polygon fill="blue" stroke="blue" points="559.891,-341.337 553.225,-333.103 553.301,-343.697 559.891,-341.337"/>
<text text-anchor="middle" x="576.785" y="-344" font-family="Verdana" font-size="10.00"> (0) l </text>
</g>
<!-- s06&#45;&gt;s0 -->
<g id="edge19" class="edge"><title>s06&#45;&gt;s0</title>
<path fill="none" stroke="blue" d="M602.285,-359.745C602.285,-348.08 602.285,-331.799 602.285,-317.5 602.285,-317.5 602.285,-317.5 602.285,-225.5 602.285,-204.695 598.284,-194.415 613.285,-180 626.358,-167.438 641.791,-186.021 653.285,-172 656.385,-168.219 654.097,-165.821 653.285,-161 645.398,-114.152 644.498,-99.6217 618.285,-60 609.655,-46.9554 595.524,-37.3192 582.131,-30.5517"/>
<polygon fill="blue" stroke="blue" points="583.597,-27.3731 573.054,-26.3182 580.638,-33.717 583.597,-27.3731"/>
<text text-anchor="middle" x="660.285" y="-194" font-family="Verdana" font-size="10.00"> (1) [a&#45;zA&#45;Z_0&#45;9] </text>
</g>
<!-- s08 -->
<g id="node10" class="node"><title>s08</title>
<polygon fill="none" stroke="black" points="532.127,-251.322 532.127,-261.678 516.989,-269 495.582,-269 480.444,-261.678 480.444,-251.322 495.582,-244 516.989,-244 532.127,-251.322"/>
<polygon fill="none" stroke="black" points="536.115,-248.811 536.115,-264.189 517.901,-273 494.67,-273 476.456,-264.189 476.456,-248.811 494.67,-240 517.901,-240 536.115,-248.811"/>
<text text-anchor="middle" x="506.285" y="-254" font-family="Verdana" font-size="10.00">identifier</text>
</g>
<!-- s07&#45;&gt;s08 -->
<g id="edge9" class="edge"><title>s07&#45;&gt;s08</title>
<path fill="none" stroke="blue" d="M530.352,-303.74C525.914,-300.394 521.561,-296.436 518.285,-292 516.251,-289.245 514.541,-286.118 513.109,-282.897"/>
<polygon fill="blue" stroke="blue" points="516.304,-281.44 509.601,-273.236 509.724,-283.83 516.304,-281.44"/>
<text text-anchor="middle" x="532.785" y="-284" font-family="Verdana" font-size="10.00"> (0) i </text>
</g>
<!-- s07&#45;&gt;s0 -->
<g id="edge20" class="edge"><title>s07&#45;&gt;s0</title>
<path fill="none" stroke="blue" d="M548.91,-299.895C546.17,-264.701 541.782,-180.681 560.285,-161 579.619,-140.436 604.627,-174.178 623.285,-153 632.981,-141.995 626.655,-134.274 623.285,-120 614.149,-81.299 608.814,-69.6948 581.285,-41 579.46,-39.0971 577.458,-37.2563 575.367,-35.4989"/>
<polygon fill="blue" stroke="blue" points="577.134,-32.4452 567.055,-29.1797 572.898,-38.0179 577.134,-32.4452"/>
<text text-anchor="middle" x="607.285" y="-164" font-family="Verdana" font-size="10.00"> (1) [a&#45;zA&#45;Z_0&#45;9] </text>
</g>
<!-- s09 -->
<g id="node11" class="node"><title>s09</title>
<polygon fill="none" stroke="black" points="493.127,-191.322 493.127,-201.678 477.989,-209 456.582,-209 441.444,-201.678 441.444,-191.322 456.582,-184 477.989,-184 493.127,-191.322"/>
<polygon fill="none" stroke="black" points="497.115,-188.811 497.115,-204.189 478.901,-213 455.67,-213 437.456,-204.189 437.456,-188.811 455.67,-180 478.901,-180 497.115,-188.811"/>
<text text-anchor="middle" x="467.285" y="-194" font-family="Verdana" font-size="10.00">identifier</text>
</g>
<!-- s08&#45;&gt;s09 -->
<g id="edge10" class="edge"><title>s08&#45;&gt;s09</title>
<path fill="none" stroke="blue" d="M486.642,-243.88C482.353,-240.529 478.224,-236.534 475.285,-232 473.536,-229.301 472.168,-226.264 471.098,-223.141"/>
<polygon fill="blue" stroke="blue" points="474.425,-222.019 468.594,-213.173 467.636,-223.724 474.425,-222.019"/>
<text text-anchor="middle" x="491.785" y="-224" font-family="Verdana" font-size="10.00"> (0) c </text>
</g>
<!-- s08&#45;&gt;s0 -->
<g id="edge21" class="edge"><title>s08&#45;&gt;s0</title>
<path fill="none" stroke="blue" d="M508.039,-239.838C511.972,-205.99 521.817,-128.383 530.285,-120 545.656,-104.785 564.306,-128.502 578.285,-112 595.473,-91.711 580.763,-61.6348 566.313,-40.8887"/>
<polygon fill="blue" stroke="blue" points="568.977,-38.6031 560.23,-32.6245 563.339,-42.7528 568.977,-38.6031"/>
<text text-anchor="middle" x="577.285" y="-134" font-family="Verdana" font-size="10.00"> (1) [a&#45;zA&#45;Z_0&#45;9] </text>
</g>
<!-- s10 -->
<g id="node12" class="node"><title>s10</title>
<polygon fill="none" stroke="black" points="457.127,-131.322 457.127,-141.678 441.989,-149 420.582,-149 405.444,-141.678 405.444,-131.322 420.582,-124 441.989,-124 457.127,-131.322"/>
<polygon fill="none" stroke="black" points="461.115,-128.811 461.115,-144.189 442.901,-153 419.67,-153 401.456,-144.189 401.456,-128.811 419.67,-120 442.901,-120 461.115,-128.811"/>
<text text-anchor="middle" x="431.285" y="-134" font-family="Verdana" font-size="10.00">identifier</text>
</g>
<!-- s09&#45;&gt;s10 -->
<g id="edge11" class="edge"><title>s09&#45;&gt;s10</title>
<path fill="none" stroke="blue" d="M451.399,-182.026C448.417,-178.955 445.535,-175.545 443.285,-172 441.485,-169.162 439.916,-166.02 438.559,-162.822"/>
<polygon fill="blue" stroke="blue" points="441.808,-161.515 435.108,-153.307 435.227,-163.901 441.808,-161.515"/>
<text text-anchor="middle" x="457.785" y="-164" font-family="Verdana" font-size="10.00"> (0) i </text>
</g>
<!-- s09&#45;&gt;s0 -->
<g id="edge22" class="edge"><title>s09&#45;&gt;s0</title>
<path fill="none" stroke="blue" d="M470.048,-179.752C474.733,-153.227 483.87,-102.374 485.285,-101 501.432,-85.3236 519.38,-108.922 535.285,-93 548.058,-80.2139 550.638,-59.6682 550.255,-43.2356"/>
<polygon fill="blue" stroke="blue" points="553.743,-42.9272 549.652,-33.1539 546.755,-43.3449 553.743,-42.9272"/>
<text text-anchor="middle" x="532.285" y="-104" font-family="Verdana" font-size="10.00"> (1) [a&#45;zA&#45;Z_0&#45;9] </text>
</g>
<!-- s11 -->
<g id="node13" class="node"><title>s11</title>
<polygon fill="none" stroke="black" points="391.458,-71.3223 391.458,-81.6777 379.055,-89 361.516,-89 349.113,-81.6777 349.113,-71.3223 361.516,-64 379.055,-64 391.458,-71.3223"/>
<polygon fill="none" stroke="black" points="395.473,-69.0431 395.473,-83.9569 380.156,-93 360.415,-93 345.098,-83.9569 345.098,-69.0431 360.415,-60 380.156,-60 395.473,-69.0431"/>
<text text-anchor="middle" x="370.285" y="-74" font-family="Verdana" font-size="10.00">explicit</text>
</g>
<!-- s10&#45;&gt;s11 -->
<g id="edge12" class="edge"><title>s10&#45;&gt;s11</title>
<path fill="none" stroke="blue" d="M407.893,-125.401C401.349,-121.824 394.585,-117.335 389.285,-112 386.387,-109.082 383.801,-105.63 381.542,-102.056"/>
<polygon fill="blue" stroke="blue" points="384.516,-100.204 376.604,-93.1576 378.395,-103.6 384.516,-100.204"/>
<text text-anchor="middle" x="404.785" y="-104" font-family="Verdana" font-size="10.00"> (0) t </text>
</g>
<!-- s10&#45;&gt;s0 -->
<g id="edge23" class="edge"><title>s10&#45;&gt;s0</title>
<path fill="none" stroke="blue" d="M429.33,-119.877C428.131,-103.268 428.873,-77.0887 442.285,-60 457.974,-40.011 484.574,-29.3731 507.075,-23.739"/>
<polygon fill="blue" stroke="blue" points="508.085,-27.0993 517.071,-21.4868 506.546,-20.2705 508.085,-27.0993"/>
<text text-anchor="middle" x="489.285" y="-74" font-family="Verdana" font-size="10.00"> (1) [a&#45;zA&#45;Z_0&#45;9] </text>
</g>
<!-- s11&#45;&gt;s0 -->
<g id="edge24" class="edge"><title>s11&#45;&gt;s0</title>
<path fill="none" stroke="blue" d="M350.079,-66.0051C338.373,-59.2477 327.375,-49.836 335.285,-41 346.505,-28.468 448.587,-21.8873 506.905,-19.1229"/>
<polygon fill="blue" stroke="blue" points="507.423,-22.603 517.253,-18.6505 507.103,-15.6103 507.423,-22.603"/>
<text text-anchor="middle" x="382.285" y="-44" font-family="Verdana" font-size="10.00"> (1) [a&#45;zA&#45;Z_0&#45;9] </text>
</g>
<!-- s0&#45;&gt;s0 -->
<g id="edge26" class="edge"><title>s0&#45;&gt;s0</title>
<path fill="none" stroke="black" d="M577.253,-22.0756C585.189,-21.757 591.2,-19.8984 591.2,-16.5 591.2,-14.8008 589.697,-13.4865 587.203,-12.5573"/>
<polygon fill="black" stroke="black" points="587.687,-9.0901 577.253,-10.9244 586.554,-15.9977 587.687,-9.0901"/>
<text text-anchor="middle" x="629.2" y="-14" font-family="Verdana" font-size="10.00"> [a&#45;zA&#45;Z_0&#45;9] </text>
</g>
</g>
</svg>
