<?xml version="1.0" encoding="UTF-8" standalone="no"?>
<!DOCTYPE svg PUBLIC "-//W3C//DTD SVG 1.1//EN"
 "http://www.w3.org/Graphics/SVG/1.1/DTD/svg11.dtd">
<!-- Generated by graphviz version 2.38.0 (20140413.2041)
 -->
<!-- Title: %3 Pages: 1 -->
<svg width="304pt" height="213pt"
 viewBox="0.00 0.00 304.46 213.00" xmlns="http://www.w3.org/2000/svg" xmlns:xlink="http://www.w3.org/1999/xlink">
<g id="graph0" class="graph" transform="scale(1 1) rotate(0) translate(4 209)">
<title>%3</title>
<polygon fill="white" stroke="none" points="-4,4 -4,-209 300.459,-209 300.459,4 -4,4"/>
<!-- root -->
<g id="node1" class="node"><title>root</title>
<polygon fill="none" stroke="black" points="110.799,-205 85.7991,-205 85.7991,-180 110.799,-180 110.799,-205"/>
</g>
<!-- s0 -->
<g id="node2" class="node"><title>s0</title>
<polygon fill="none" stroke="black" points="110.799,-101.322 110.799,-111.678 103.477,-119 93.1215,-119 85.7991,-111.678 85.7991,-101.322 93.1215,-94 103.477,-94 110.799,-101.322"/>
</g>
<!-- root&#45;&gt;s0 -->
<g id="edge1" class="edge"><title>root&#45;&gt;s0</title>
<path fill="none" stroke="black" d="M98.2991,-179.82C98.2991,-166.781 98.2991,-145.393 98.2991,-129.251"/>
<polygon fill="black" stroke="black" points="101.799,-129.081 98.2991,-119.081 94.7992,-129.081 101.799,-129.081"/>
<text text-anchor="middle" x="104.299" y="-147" font-family="Verdana" font-size="10.00"> &quot; </text>
</g>
<!-- s0&#45;&gt;s0 -->
<g id="edge5" class="edge"><title>s0&#45;&gt;s0</title>
<path fill="none" stroke="black" d="M110.722,-111.883C127.064,-116.498 146.799,-114.703 146.799,-106.5 146.799,-99.9631 134.267,-97.4959 120.907,-99.0981"/>
<polygon fill="black" stroke="black" points="119.85,-95.7393 110.722,-101.117 121.211,-102.606 119.85,-95.7393"/>
<text text-anchor="middle" x="168.299" y="-104" font-family="Verdana" font-size="10.00"> default </text>
</g>
<!-- s1 -->
<g id="node3" class="node"><title>s1</title>
<polygon fill="none" stroke="black" points="72.7991,-11.3223 72.7991,-21.6777 65.4768,-29 55.1215,-29 47.7991,-21.6777 47.7991,-11.3223 55.1215,-4 65.4768,-4 72.7991,-11.3223"/>
</g>
<!-- s0&#45;&gt;s1 -->
<g id="edge2" class="edge"><title>s0&#45;&gt;s1</title>
<path fill="none" stroke="black" d="M85.7329,-104.937C64.5261,-103.229 22.1092,-96.3777 3.29914,-69 -9.02329,-51.065 17.5154,-35.0718 38.3848,-25.8306"/>
<polygon fill="black" stroke="black" points="39.8014,-29.0322 47.6967,-21.9671 37.1188,-22.5666 39.8014,-29.0322"/>
<text text-anchor="middle" x="9.79914" y="-61" font-family="Verdana" font-size="10.00"> \ </text>
</g>
<!-- s2 -->
<g id="node4" class="node"><title>s2</title>
<polygon fill="none" stroke="black" points="292.604,-11.3223 292.604,-21.6777 271.337,-29 241.261,-29 219.994,-21.6777 219.994,-11.3223 241.261,-4 271.337,-4 292.604,-11.3223"/>
<polygon fill="none" stroke="black" points="296.62,-8.47281 296.62,-24.5272 272.012,-33 240.587,-33 215.978,-24.5272 215.978,-8.47281 240.587,-0 272.012,-0 296.62,-8.47281"/>
<text text-anchor="middle" x="256.299" y="-14" font-family="Verdana" font-size="10.00">StringLiteral</text>
</g>
<!-- s0&#45;&gt;s2 -->
<g id="edge6" class="edge"><title>s0&#45;&gt;s2</title>
<path fill="none" stroke="black" d="M110.847,-101.478C128.508,-95.5713 161.431,-83.6462 187.299,-69 202.558,-60.3607 218.32,-48.8256 230.921,-38.8624"/>
<polygon fill="black" stroke="black" points="233.117,-41.5879 238.708,-32.5884 228.726,-36.137 233.117,-41.5879"/>
<text text-anchor="middle" x="210.299" y="-61" font-family="Verdana" font-size="10.00"> &quot; </text>
</g>
<!-- s1&#45;&gt;s0 -->
<g id="edge3" class="edge"><title>s1&#45;&gt;s0</title>
<path fill="none" stroke="black" d="M56.2888,-29.1083C53.2514,-39.9309 50.4967,-56.2701 56.2991,-69 60.9976,-79.308 70.2044,-87.8312 78.8034,-94.0417"/>
<polygon fill="black" stroke="black" points="77.0527,-97.0796 87.3299,-99.6545 80.9016,-91.2327 77.0527,-97.0796"/>
<text text-anchor="middle" x="73.7991" y="-61" font-family="Verdana" font-size="10.00"> [nrt&quot;] </text>
</g>
<!-- s1&#45;&gt;s0 -->
<g id="edge4" class="edge"><title>s1&#45;&gt;s0</title>
<path fill="none" stroke="black" d="M69.9681,-24.9836C78.6318,-32.332 90.7962,-44.3951 96.2991,-58 99.527,-65.9804 100.457,-75.3424 100.425,-83.6356"/>
<polygon fill="black" stroke="black" points="96.9248,-83.56 99.9422,-93.7161 103.917,-83.8951 96.9248,-83.56"/>
<text text-anchor="middle" x="138.799" y="-61" font-family="Verdana" font-size="10.00"> default (error) </text>
</g>
</g>
</svg>
