<?xml version="1.0" encoding="UTF-8" standalone="no"?>
<!DOCTYPE svg PUBLIC "-//W3C//DTD SVG 1.1//EN"
 "http://www.w3.org/Graphics/SVG/1.1/DTD/svg11.dtd">
<!-- Generated by graphviz version 2.38.0 (20140413.2041)
 -->
<!-- Title: %3 Pages: 1 -->
<svg width="162pt" height="113pt"
 viewBox="0.00 0.00 161.83 113.00" xmlns="http://www.w3.org/2000/svg" xmlns:xlink="http://www.w3.org/1999/xlink">
<g id="graph0" class="graph" transform="scale(1 1) rotate(0) translate(4 109)">
<title>%3</title>
<polygon fill="white" stroke="none" points="-4,4 -4,-109 157.83,-109 157.83,4 -4,4"/>
<!-- root -->
<g id="node1" class="node"><title>root</title>
<polygon fill="none" stroke="black" points="42.4148,-105 17.4148,-105 17.4148,-80 42.4148,-80 42.4148,-105"/>
</g>
<!-- s0 -->
<g id="node2" class="node"><title>s0</title>
<polygon fill="none" stroke="black" points="55.756,-11.3223 55.756,-21.6777 40.6186,-29 19.211,-29 4.0736,-21.6777 4.0736,-11.3223 19.211,-4 40.6186,-4 55.756,-11.3223"/>
<polygon fill="none" stroke="black" points="59.7446,-8.81072 59.7446,-24.1893 41.5303,-33 18.2993,-33 0.0849584,-24.1893 0.0849584,-8.81072 18.2993,3.55271e-015 41.5303,-0 59.7446,-8.81072"/>
<text text-anchor="middle" x="29.9148" y="-14" font-family="Verdana" font-size="10.00">identifier</text>
</g>
<!-- root&#45;&gt;s0 -->
<g id="edge1" class="edge"><title>root&#45;&gt;s0</title>
<path fill="none" stroke="black" d="M29.9148,-79.9375C29.9148,-70.1912 29.9148,-55.8807 29.9148,-43.4182"/>
<polygon fill="black" stroke="black" points="33.4149,-43.103 29.9148,-33.1031 26.4149,-43.1031 33.4149,-43.103"/>
<text text-anchor="middle" x="58.9148" y="-54" font-family="Verdana" font-size="10.00"> [a&#45;zA&#45;Z_] </text>
</g>
<!-- s0&#45;&gt;s0 -->
<g id="edge2" class="edge"><title>s0&#45;&gt;s0</title>
<path fill="none" stroke="black" d="M59.8615,-24C69.8438,-24 77.8296,-21.5 77.8296,-16.5 77.8296,-13.375 74.7101,-11.2266 69.9335,-10.0547"/>
<polygon fill="black" stroke="black" points="70.1717,-6.56058 59.8615,-9 69.4426,-13.5225 70.1717,-6.56058"/>
<text text-anchor="middle" x="115.83" y="-14" font-family="Verdana" font-size="10.00"> [a&#45;zA&#45;Z_0&#45;9] </text>
</g>
</g>
</svg>
