<?xml version="1.0" encoding="UTF-8" standalone="no"?>
<!DOCTYPE svg PUBLIC "-//W3C//DTD SVG 1.1//EN"
 "http://www.w3.org/Graphics/SVG/1.1/DTD/svg11.dtd">
<!-- Generated by graphviz version 2.38.0 (20140413.2041)
 -->
<!-- Title: %3 Pages: 1 -->
<svg width="440pt" height="153pt"
 viewBox="0.00 0.00 439.51 153.00" xmlns="http://www.w3.org/2000/svg" xmlns:xlink="http://www.w3.org/1999/xlink">
<g id="graph0" class="graph" transform="scale(1 1) rotate(0) translate(4 149)">
<title>%3</title>
<polygon fill="white" stroke="none" points="-4,4 -4,-149 435.512,-149 435.512,4 -4,4"/>
<!-- root -->
<g id="node1" class="node"><title>root</title>
<polygon fill="none" stroke="black" points="304.138,-145 279.138,-145 279.138,-120 304.138,-120 304.138,-145"/>
</g>
<!-- s00 -->
<g id="node2" class="node"><title>s00</title>
<polygon fill="none" stroke="black" points="111.557,-71.3223 111.557,-81.6777 95.202,-89 72.0732,-89 55.7187,-81.6777 55.7187,-71.3223 72.0732,-64 95.202,-64 111.557,-71.3223"/>
<polygon fill="none" stroke="black" points="115.585,-68.7381 115.585,-84.2619 96.0682,-93 71.207,-93 51.6904,-84.2619 51.6904,-68.7381 71.207,-60 96.0682,-60 115.585,-68.7381"/>
<text text-anchor="middle" x="83.6376" y="-74" font-family="Verdana" font-size="10.00">less than</text>
</g>
<!-- root&#45;&gt;s00 -->
<g id="edge1" class="edge"><title>root&#45;&gt;s00</title>
<path fill="none" stroke="black" d="M278.939,-128.203C248.636,-120.336 171.063,-100.197 123.302,-87.7976"/>
<polygon fill="black" stroke="black" points="124.15,-84.4016 113.591,-85.2764 122.391,-91.177 124.15,-84.4016"/>
<text text-anchor="middle" x="220.138" y="-104" font-family="Verdana" font-size="10.00"> &lt; </text>
</g>
<!-- s02 -->
<g id="node4" class="node"><title>s02</title>
<polygon fill="none" stroke="black" points="235.577,-71.3223 235.577,-81.6777 213.353,-89 181.923,-89 159.698,-81.6777 159.698,-71.3223 181.923,-64 213.353,-64 235.577,-71.3223"/>
<polygon fill="none" stroke="black" points="239.574,-68.428 239.574,-84.572 213.994,-93 181.282,-93 155.701,-84.572 155.701,-68.428 181.282,-60 213.994,-60 239.574,-68.428"/>
<text text-anchor="middle" x="197.638" y="-74" font-family="Verdana" font-size="10.00">greater than</text>
</g>
<!-- root&#45;&gt;s02 -->
<g id="edge3" class="edge"><title>root&#45;&gt;s02</title>
<path fill="none" stroke="black" d="M278.96,-124.217C266.445,-117.027 246.789,-105.736 229.937,-96.055"/>
<polygon fill="black" stroke="black" points="231.341,-92.8251 220.926,-90.8787 227.854,-98.8948 231.341,-92.8251"/>
<text text-anchor="middle" x="264.138" y="-104" font-family="Verdana" font-size="10.00"> &gt; </text>
</g>
<!-- s04 -->
<g id="node6" class="node"><title>s04</title>
<polygon fill="none" stroke="black" points="325.612,-71.3223 325.612,-81.6777 305.71,-89 277.565,-89 257.664,-81.6777 257.664,-71.3223 277.565,-64 305.71,-64 325.612,-71.3223"/>
<polygon fill="none" stroke="black" points="329.638,-68.5383 329.638,-84.4617 306.432,-93 276.843,-93 253.637,-84.4617 253.637,-68.5383 276.843,-60 306.432,-60 329.638,-68.5383"/>
<text text-anchor="middle" x="291.638" y="-74" font-family="Verdana" font-size="10.00">assignment</text>
</g>
<!-- root&#45;&gt;s04 -->
<g id="edge5" class="edge"><title>root&#45;&gt;s04</title>
<path fill="none" stroke="black" d="M291.638,-119.783C291.638,-114.897 291.638,-109.016 291.638,-103.215"/>
<polygon fill="black" stroke="black" points="295.138,-103.09 291.638,-93.0896 288.138,-103.09 295.138,-103.09"/>
<text text-anchor="middle" x="299.138" y="-104" font-family="Verdana" font-size="10.00"> = </text>
</g>
<!-- s06 -->
<g id="node8" class="node"><title>s06</title>
<polygon fill="none" stroke="black" points="372.138,-71.3223 372.138,-81.6777 364.815,-89 354.46,-89 347.138,-81.6777 347.138,-71.3223 354.46,-64 364.815,-64 372.138,-71.3223"/>
<polygon fill="none" stroke="black" points="376.138,-69.6655 376.138,-83.3345 366.472,-93 352.803,-93 343.138,-83.3345 343.138,-69.6655 352.803,-60 366.472,-60 376.138,-69.6655"/>
<text text-anchor="middle" x="359.638" y="-74" font-family="Verdana" font-size="10.00">plus</text>
</g>
<!-- root&#45;&gt;s06 -->
<g id="edge7" class="edge"><title>root&#45;&gt;s06</title>
<path fill="none" stroke="black" d="M304.428,-121.343C314.116,-113.65 327.629,-102.919 338.861,-93.999"/>
<polygon fill="black" stroke="black" points="341.25,-96.5712 346.905,-87.6114 336.897,-91.0894 341.25,-96.5712"/>
<text text-anchor="middle" x="338.138" y="-104" font-family="Verdana" font-size="10.00"> + </text>
</g>
<!-- s07 -->
<g id="node9" class="node"><title>s07</title>
<polygon fill="none" stroke="black" points="427.412,-71.3223 427.412,-81.6777 417.586,-89 403.69,-89 393.863,-81.6777 393.863,-71.3223 403.69,-64 417.586,-64 427.412,-71.3223"/>
<polygon fill="none" stroke="black" points="431.388,-69.3074 431.388,-83.6926 418.898,-93 402.377,-93 389.887,-83.6926 389.887,-69.3074 402.377,-60 418.898,-60 431.388,-69.3074"/>
<text text-anchor="middle" x="410.638" y="-74" font-family="Verdana" font-size="10.00">minus</text>
</g>
<!-- root&#45;&gt;s07 -->
<g id="edge8" class="edge"><title>root&#45;&gt;s07</title>
<path fill="none" stroke="black" d="M304.565,-127.799C316.284,-124.275 333.922,-118.549 348.638,-112 361.298,-106.366 374.805,-99.0208 385.969,-92.5569"/>
<polygon fill="black" stroke="black" points="387.891,-95.4868 394.726,-87.3913 384.334,-89.4576 387.891,-95.4868"/>
<text text-anchor="middle" x="376.138" y="-104" font-family="Verdana" font-size="10.00"> &#45; </text>
</g>
<!-- s01 -->
<g id="node3" class="node"><title>s01</title>
<polygon fill="none" stroke="black" points="111.404,-11.3223 111.404,-21.6777 79.9082,-29 35.367,-29 3.87164,-21.6777 3.87164,-11.3223 35.367,-4 79.9082,-4 111.404,-11.3223"/>
<polygon fill="none" stroke="black" points="115.413,-8.14733 115.413,-24.8527 80.3692,-33 34.906,-33 -0.137938,-24.8527 -0.137938,-8.14733 34.906,-3.55271e-015 80.3692,-3.55271e-015 115.413,-8.14733"/>
<text text-anchor="middle" x="57.6376" y="-14" font-family="Verdana" font-size="10.00">less than or equal</text>
</g>
<!-- s00&#45;&gt;s01 -->
<g id="edge2" class="edge"><title>s00&#45;&gt;s01</title>
<path fill="none" stroke="black" d="M76.6701,-59.9571C74.2803,-54.626 71.541,-48.5153 68.8993,-42.6221"/>
<polygon fill="black" stroke="black" points="71.9088,-40.7792 64.6244,-33.0858 65.5212,-43.6427 71.9088,-40.7792"/>
<text text-anchor="middle" x="81.1376" y="-44" font-family="Verdana" font-size="10.00"> = </text>
</g>
<!-- s03 -->
<g id="node5" class="node"><title>s03</title>
<polygon fill="none" stroke="black" points="261.411,-11.3223 261.411,-21.6777 224.053,-29 171.222,-29 133.865,-21.6777 133.865,-11.3223 171.222,-4 224.053,-4 261.411,-11.3223"/>
<polygon fill="none" stroke="black" points="265.404,-8.02916 265.404,-24.9708 224.44,-33 170.835,-33 129.871,-24.9708 129.871,-8.02916 170.835,-3.55271e-015 224.44,-3.55271e-015 265.404,-8.02916"/>
<text text-anchor="middle" x="197.638" y="-14" font-family="Verdana" font-size="10.00">greater than or equal</text>
</g>
<!-- s02&#45;&gt;s03 -->
<g id="edge4" class="edge"><title>s02&#45;&gt;s03</title>
<path fill="none" stroke="black" d="M197.638,-59.9571C197.638,-54.886 197.638,-49.1096 197.638,-43.486"/>
<polygon fill="black" stroke="black" points="201.138,-43.0858 197.638,-33.0858 194.138,-43.0859 201.138,-43.0858"/>
<text text-anchor="middle" x="205.138" y="-44" font-family="Verdana" font-size="10.00"> = </text>
</g>
<!-- s05 -->
<g id="node7" class="node"><title>s05</title>
<polygon fill="none" stroke="black" points="331.836,-11.3223 331.836,-21.6777 317.661,-29 297.614,-29 283.439,-21.6777 283.439,-11.3223 297.614,-4 317.661,-4 331.836,-11.3223"/>
<polygon fill="none" stroke="black" points="335.852,-8.89067 335.852,-24.1093 318.64,-33 296.635,-33 279.424,-24.1093 279.424,-8.89067 296.635,-0 318.64,-0 335.852,-8.89067"/>
<text text-anchor="middle" x="307.638" y="-14" font-family="Verdana" font-size="10.00">equality</text>
</g>
<!-- s04&#45;&gt;s05 -->
<g id="edge6" class="edge"><title>s04&#45;&gt;s05</title>
<path fill="none" stroke="black" d="M295.925,-59.9571C297.36,-54.756 299,-48.8129 300.588,-43.0537"/>
<polygon fill="black" stroke="black" points="304.053,-43.6565 303.338,-33.0858 297.305,-41.795 304.053,-43.6565"/>
<text text-anchor="middle" x="309.138" y="-44" font-family="Verdana" font-size="10.00"> = </text>
</g>
<!-- s08 -->
<g id="node10" class="node"><title>s08</title>
<polygon fill="none" stroke="black" points="427.412,-11.3223 427.412,-21.6777 417.586,-29 403.69,-29 393.863,-21.6777 393.863,-11.3223 403.69,-4 417.586,-4 427.412,-11.3223"/>
<polygon fill="none" stroke="black" points="431.388,-9.30745 431.388,-23.6926 418.898,-33 402.377,-33 389.887,-23.6926 389.887,-9.30745 402.377,3.55271e-015 418.898,-0 431.388,-9.30745"/>
<text text-anchor="middle" x="410.638" y="-14" font-family="Verdana" font-size="10.00">arrow</text>
</g>
<!-- s07&#45;&gt;s08 -->
<g id="edge9" class="edge"><title>s07&#45;&gt;s08</title>
<path fill="none" stroke="black" d="M410.638,-59.9571C410.638,-54.886 410.638,-49.1096 410.638,-43.486"/>
<polygon fill="black" stroke="black" points="414.138,-43.0858 410.638,-33.0858 407.138,-43.0859 414.138,-43.0858"/>
<text text-anchor="middle" x="418.138" y="-44" font-family="Verdana" font-size="10.00"> &gt; </text>
</g>
</g>
</svg>
