<?xml version="1.0" encoding="UTF-8" standalone="no"?>
<!DOCTYPE svg PUBLIC "-//W3C//DTD SVG 1.1//EN"
 "http://www.w3.org/Graphics/SVG/1.1/DTD/svg11.dtd">
<!-- Generated by graphviz version 2.38.0 (20140413.2041)
 -->
<!-- Title: %3 Pages: 1 -->
<svg width="251pt" height="216pt"
 viewBox="0.00 0.00 250.50 216.00" xmlns="http://www.w3.org/2000/svg" xmlns:xlink="http://www.w3.org/1999/xlink">
<g id="graph0" class="graph" transform="scale(1 1) rotate(0) translate(4 212)">
<title>%3</title>
<polygon fill="white" stroke="none" points="-4,4 -4,-212 246.5,-212 246.5,4 -4,4"/>
<!-- Expression0 -->
<g id="node1" class="node"><title>Expression0</title>
<polygon fill="none" stroke="black" points="178.5,-208 112.5,-208 112.5,-183 178.5,-183 178.5,-208"/>
<text text-anchor="middle" x="145.5" y="-193" font-family="Verdana" font-size="10.00">Expression</text>
</g>
<!-- Expression1 -->
<g id="node2" class="node"><title>Expression1</title>
<polygon fill="none" stroke="black" points="114.5,-147 48.5,-147 48.5,-122 114.5,-122 114.5,-147"/>
<text text-anchor="middle" x="81.5" y="-132" font-family="Verdana" font-size="10.00">Expression</text>
</g>
<!-- Expression0&#45;&gt;Expression1 -->
<g id="edge1" class="edge"><title>Expression0&#45;&gt;Expression1</title>
<path fill="none" stroke="black" d="M132.856,-182.843C123.915,-174.601 111.744,-163.382 101.496,-153.933"/>
<polygon fill="black" stroke="black" points="103.843,-151.337 94.1181,-147.132 99.0982,-156.484 103.843,-151.337"/>
</g>
<!-- minus1 -->
<g id="node8" class="node"><title>minus1</title>
<polygon fill="none" stroke="black" points="158,-147 133,-147 133,-122 158,-122 158,-147"/>
<text text-anchor="middle" x="145.5" y="-132" font-family="Verdana" font-size="10.00">&#45;</text>
</g>
<!-- Expression0&#45;&gt;minus1 -->
<g id="edge7" class="edge"><title>Expression0&#45;&gt;minus1</title>
<path fill="none" stroke="black" d="M145.5,-182.843C145.5,-175.571 145.5,-165.98 145.5,-157.334"/>
<polygon fill="black" stroke="black" points="149,-157.132 145.5,-147.132 142,-157.132 149,-157.132"/>
</g>
<!-- Expression2 -->
<g id="node9" class="node"><title>Expression2</title>
<polygon fill="none" stroke="black" points="242.5,-147 176.5,-147 176.5,-122 242.5,-122 242.5,-147"/>
<text text-anchor="middle" x="209.5" y="-132" font-family="Verdana" font-size="10.00">Expression</text>
</g>
<!-- Expression0&#45;&gt;Expression2 -->
<g id="edge8" class="edge"><title>Expression0&#45;&gt;Expression2</title>
<path fill="none" stroke="black" d="M158.144,-182.843C167.085,-174.601 179.256,-163.382 189.504,-153.933"/>
<polygon fill="black" stroke="black" points="191.902,-156.484 196.882,-147.132 187.157,-151.337 191.902,-156.484"/>
</g>
<!-- Integer0 -->
<g id="node3" class="node"><title>Integer0</title>
<polygon fill="none" stroke="black" points="51,-86 0,-86 0,-61 51,-61 51,-86"/>
<text text-anchor="middle" x="25.5" y="-71" font-family="Verdana" font-size="10.00">Integer</text>
</g>
<!-- Expression1&#45;&gt;Integer0 -->
<g id="edge2" class="edge"><title>Expression1&#45;&gt;Integer0</title>
<path fill="none" stroke="black" d="M70.4362,-121.843C62.7662,-113.763 52.3804,-102.82 43.5256,-93.4912"/>
<polygon fill="black" stroke="black" points="45.9637,-90.9759 36.5408,-86.1323 40.8865,-95.7949 45.9637,-90.9759"/>
</g>
<!-- minus0 -->
<g id="node5" class="node"><title>minus0</title>
<polygon fill="none" stroke="black" points="94,-86 69,-86 69,-61 94,-61 94,-86"/>
<text text-anchor="middle" x="81.5" y="-71" font-family="Verdana" font-size="10.00">&#45;</text>
</g>
<!-- Expression1&#45;&gt;minus0 -->
<g id="edge4" class="edge"><title>Expression1&#45;&gt;minus0</title>
<path fill="none" stroke="black" d="M81.5,-121.843C81.5,-114.571 81.5,-104.98 81.5,-96.3339"/>
<polygon fill="black" stroke="black" points="85.0001,-96.1323 81.5,-86.1323 78.0001,-96.1323 85.0001,-96.1323"/>
</g>
<!-- Integer1 -->
<g id="node6" class="node"><title>Integer1</title>
<polygon fill="none" stroke="black" points="163,-86 112,-86 112,-61 163,-61 163,-86"/>
<text text-anchor="middle" x="137.5" y="-71" font-family="Verdana" font-size="10.00">Integer</text>
</g>
<!-- Expression1&#45;&gt;Integer1 -->
<g id="edge5" class="edge"><title>Expression1&#45;&gt;Integer1</title>
<path fill="none" stroke="black" d="M92.5638,-121.843C100.234,-113.763 110.62,-102.82 119.474,-93.4912"/>
<polygon fill="black" stroke="black" points="122.113,-95.7949 126.459,-86.1323 117.036,-90.9759 122.113,-95.7949"/>
</g>
<!-- 8 -->
<g id="node4" class="node"><title>8</title>
<polygon fill="none" stroke="black" points="38,-25 13,-25 13,-0 38,-0 38,-25"/>
<text text-anchor="middle" x="25.5" y="-10" font-family="Verdana" font-size="10.00">8</text>
</g>
<!-- Integer0&#45;&gt;8 -->
<g id="edge3" class="edge"><title>Integer0&#45;&gt;8</title>
<path fill="none" stroke="black" d="M25.5,-60.8435C25.5,-53.5707 25.5,-43.9803 25.5,-35.3339"/>
<polygon fill="black" stroke="black" points="29.0001,-35.1323 25.5,-25.1323 22.0001,-35.1323 29.0001,-35.1323"/>
</g>
<!-- 6 -->
<g id="node7" class="node"><title>6</title>
<polygon fill="none" stroke="black" points="150,-25 125,-25 125,-0 150,-0 150,-25"/>
<text text-anchor="middle" x="137.5" y="-10" font-family="Verdana" font-size="10.00">6</text>
</g>
<!-- Integer1&#45;&gt;6 -->
<g id="edge6" class="edge"><title>Integer1&#45;&gt;6</title>
<path fill="none" stroke="black" d="M137.5,-60.8435C137.5,-53.5707 137.5,-43.9803 137.5,-35.3339"/>
<polygon fill="black" stroke="black" points="141,-35.1323 137.5,-25.1323 134,-35.1323 141,-35.1323"/>
</g>
<!-- Integer2 -->
<g id="node10" class="node"><title>Integer2</title>
<polygon fill="none" stroke="black" points="235,-86 184,-86 184,-61 235,-61 235,-86"/>
<text text-anchor="middle" x="209.5" y="-71" font-family="Verdana" font-size="10.00">Integer</text>
</g>
<!-- Expression2&#45;&gt;Integer2 -->
<g id="edge9" class="edge"><title>Expression2&#45;&gt;Integer2</title>
<path fill="none" stroke="black" d="M209.5,-121.843C209.5,-114.571 209.5,-104.98 209.5,-96.3339"/>
<polygon fill="black" stroke="black" points="213,-96.1323 209.5,-86.1323 206,-96.1323 213,-96.1323"/>
</g>
<!-- 1 -->
<g id="node11" class="node"><title>1</title>
<polygon fill="none" stroke="black" points="222,-25 197,-25 197,-0 222,-0 222,-25"/>
<text text-anchor="middle" x="209.5" y="-10" font-family="Verdana" font-size="10.00">1</text>
</g>
<!-- Integer2&#45;&gt;1 -->
<g id="edge10" class="edge"><title>Integer2&#45;&gt;1</title>
<path fill="none" stroke="black" d="M209.5,-60.8435C209.5,-53.5707 209.5,-43.9803 209.5,-35.3339"/>
<polygon fill="black" stroke="black" points="213,-35.1323 209.5,-25.1323 206,-35.1323 213,-35.1323"/>
</g>
</g>
</svg>
