<?xml version="1.0" encoding="UTF-8" standalone="no"?>
<!DOCTYPE svg PUBLIC "-//W3C//DTD SVG 1.1//EN"
 "http://www.w3.org/Graphics/SVG/1.1/DTD/svg11.dtd">
<!-- Generated by graphviz version 2.38.0 (20140413.2041)
 -->
<!-- Title: %3 Pages: 1 -->
<svg width="282pt" height="137pt"
 viewBox="0.00 0.00 282.00 137.00" xmlns="http://www.w3.org/2000/svg" xmlns:xlink="http://www.w3.org/1999/xlink">
<g id="graph0" class="graph" transform="scale(1 1) rotate(0) translate(4 133)">
<title>%3</title>
<polygon fill="white" stroke="none" points="-4,4 -4,-133 278,-133 278,4 -4,4"/>
<!-- Globals -->
<g id="node1" class="node"><title>Globals</title>
<polygon fill="none" stroke="black" points="54,-129 0,-129 0,-110 54,-110 54,-129"/>
<text text-anchor="middle" x="27" y="-117" font-family="Verdana" font-size="10.00">Globals</text>
</g>
<!-- Engine -->
<g id="node2" class="node"><title>Engine</title>
<polygon fill="none" stroke="black" points="54,-74 0,-74 0,-55 54,-55 54,-74"/>
<text text-anchor="middle" x="27" y="-62" font-family="Verdana" font-size="10.00">Engine</text>
</g>
<!-- Globals&#45;&gt;Engine -->
<g id="edge1" class="edge"><title>Globals&#45;&gt;Engine</title>
<path fill="none" stroke="black" d="M27,-109.748C27,-102.802 27,-92.8451 27,-84.1349"/>
<polygon fill="black" stroke="black" points="30.5001,-84.089 27,-74.089 23.5001,-84.0891 30.5001,-84.089"/>
</g>
<!-- Physics -->
<g id="node3" class="node"><title>Physics</title>
<polygon fill="none" stroke="black" points="54,-19 0,-19 0,-0 54,-0 54,-19"/>
<text text-anchor="middle" x="27" y="-7" font-family="Verdana" font-size="10.00">Physics</text>
</g>
<!-- Engine&#45;&gt;Physics -->
<g id="edge2" class="edge"><title>Engine&#45;&gt;Physics</title>
<path fill="none" stroke="black" d="M27,-54.7481C27,-47.8021 27,-37.8451 27,-29.1349"/>
<polygon fill="black" stroke="black" points="30.5001,-29.089 27,-19.089 23.5001,-29.0891 30.5001,-29.089"/>
</g>
<!-- Stack -->
<g id="node4" class="node"><title>Stack</title>
<polygon fill="none" stroke="black" points="126,-129 72,-129 72,-110 126,-110 126,-129"/>
<text text-anchor="middle" x="99" y="-117" font-family="Verdana" font-size="10.00">Stack</text>
</g>
<!-- Player -->
<g id="node5" class="node"><title>Player</title>
<polygon fill="none" stroke="black" points="126,-74 72,-74 72,-55 126,-55 126,-74"/>
<text text-anchor="middle" x="99" y="-62" font-family="Verdana" font-size="10.00">Player</text>
</g>
<!-- Stack&#45;&gt;Player -->
<g id="edge3" class="edge"><title>Stack&#45;&gt;Player</title>
<path fill="none" stroke="black" d="M99,-109.748C99,-102.802 99,-92.8451 99,-84.1349"/>
<polygon fill="black" stroke="black" points="102.5,-84.089 99,-74.089 95.5001,-84.0891 102.5,-84.089"/>
</g>
<!-- Gun -->
<g id="node6" class="node"><title>Gun</title>
<polygon fill="none" stroke="black" points="126,-19 72,-19 72,-0 126,-0 126,-19"/>
<text text-anchor="middle" x="99" y="-7" font-family="Verdana" font-size="10.00">Gun</text>
</g>
<!-- Player&#45;&gt;Gun -->
<g id="edge4" class="edge"><title>Player&#45;&gt;Gun</title>
<path fill="none" stroke="black" d="M99,-54.7481C99,-47.8021 99,-37.8451 99,-29.1349"/>
<polygon fill="black" stroke="black" points="102.5,-29.089 99,-19.089 95.5001,-29.0891 102.5,-29.089"/>
</g>
<!-- Enemy -->
<g id="node7" class="node"><title>Enemy</title>
<polygon fill="none" stroke="black" points="200,-129 146,-129 146,-110 200,-110 200,-129"/>
<text text-anchor="middle" x="173" y="-117" font-family="Verdana" font-size="10.00">Enemy</text>
</g>
<!-- Grenade -->
<g id="node8" class="node"><title>Grenade</title>
<polygon fill="none" stroke="black" points="201.5,-74 144.5,-74 144.5,-55 201.5,-55 201.5,-74"/>
<text text-anchor="middle" x="173" y="-62" font-family="Verdana" font-size="10.00">Grenade</text>
</g>
<!-- Enemy&#45;&gt;Grenade -->
<g id="edge5" class="edge"><title>Enemy&#45;&gt;Grenade</title>
<path fill="none" stroke="black" d="M173,-109.748C173,-102.802 173,-92.8451 173,-84.1349"/>
<polygon fill="black" stroke="black" points="176.5,-84.089 173,-74.089 169.5,-84.0891 176.5,-84.089"/>
</g>
<!-- Particle -->
<g id="node9" class="node"><title>Particle</title>
<polygon fill="none" stroke="black" points="274,-129 220,-129 220,-110 274,-110 274,-129"/>
<text text-anchor="middle" x="247" y="-117" font-family="Verdana" font-size="10.00">Particle</text>
</g>
<!-- Emitter -->
<g id="node10" class="node"><title>Emitter</title>
<polygon fill="none" stroke="black" points="274,-74 220,-74 220,-55 274,-55 274,-74"/>
<text text-anchor="middle" x="247" y="-62" font-family="Verdana" font-size="10.00">Emitter</text>
</g>
<!-- Particle&#45;&gt;Emitter -->
<g id="edge6" class="edge"><title>Particle&#45;&gt;Emitter</title>
<path fill="none" stroke="black" d="M241.834,-109.748C240.341,-102.802 239.903,-92.8451 240.521,-84.1349"/>
<polygon fill="black" stroke="black" points="244.008,-84.4656 241.869,-74.089 237.071,-83.5349 244.008,-84.4656"/>
</g>
<!-- Emitter&#45;&gt;Particle -->
<g id="edge7" class="edge"><title>Emitter&#45;&gt;Particle</title>
<path fill="none" stroke="black" d="M252.131,-74.089C253.64,-80.9876 254.094,-90.9304 253.493,-99.66"/>
<polygon fill="black" stroke="black" points="250,-99.3771 252.166,-109.748 256.94,-100.29 250,-99.3771"/>
</g>
</g>
</svg>
