<?xml version="1.0" encoding="UTF-8" standalone="no"?>
<!DOCTYPE svg PUBLIC "-//W3C//DTD SVG 1.1//EN"
 "http://www.w3.org/Graphics/SVG/1.1/DTD/svg11.dtd">
<!-- Generated by graphviz version 2.38.0 (20140413.2041)
 -->
<!-- Title: %3 Pages: 1 -->
<svg width="500pt" height="113pt"
 viewBox="0.00 0.00 500.00 113.00" xmlns="http://www.w3.org/2000/svg" xmlns:xlink="http://www.w3.org/1999/xlink">
<g id="graph0" class="graph" transform="scale(1 1) rotate(0) translate(4 109)">
<title>%3</title>
<polygon fill="white" stroke="none" points="-4,4 -4,-109 496,-109 496,4 -4,4"/>
<!-- root -->
<g id="node1" class="node"><title>root</title>
<polygon fill="none" stroke="black" points="258,-105 233,-105 233,-80 258,-80 258,-105"/>
</g>
<!-- s0 -->
<g id="node2" class="node"><title>s0</title>
<polygon fill="none" stroke="black" points="29,-11.3223 29,-21.6777 21.6777,-29 11.3223,-29 4,-21.6777 4,-11.3223 11.3223,-4 21.6777,-4 29,-11.3223"/>
<polygon fill="none" stroke="black" points="33,-9.66548 33,-23.3345 23.3345,-33 9.66548,-33 0,-23.3345 0,-9.66548 9.66548,-0 23.3345,-0 33,-9.66548"/>
</g>
<!-- root&#45;&gt;s0 -->
<g id="edge1" class="edge"><title>root&#45;&gt;s0</title>
<path fill="none" stroke="black" d="M232.716,-89.6591C208.083,-85.9175 152.497,-76.528 107.5,-62 77.0097,-52.1558 69.8526,-47.9231 41.5,-33 40.6696,-32.5629 39.8297,-32.1088 38.9857,-31.6422"/>
<polygon fill="black" stroke="black" points="40.4441,-28.4393 30.0507,-26.3829 36.8932,-34.4719 40.4441,-28.4393"/>
<text text-anchor="middle" x="114.5" y="-54" font-family="Verdana" font-size="10.00"> 0 </text>
</g>
<!-- s1 -->
<g id="node3" class="node"><title>s1</title>
<polygon fill="none" stroke="black" points="80,-11.3223 80,-21.6777 72.6777,-29 62.3223,-29 55,-21.6777 55,-11.3223 62.3223,-4 72.6777,-4 80,-11.3223"/>
<polygon fill="none" stroke="black" points="84,-9.66548 84,-23.3345 74.3345,-33 60.6655,-33 51,-23.3345 51,-9.66548 60.6655,-0 74.3345,-0 84,-9.66548"/>
</g>
<!-- root&#45;&gt;s1 -->
<g id="edge2" class="edge"><title>root&#45;&gt;s1</title>
<path fill="none" stroke="black" d="M233,-88.4801C214.28,-83.7842 178.009,-74.0103 148.5,-62 122.54,-51.4339 116.873,-46.8393 92.5,-33 91.684,-32.5367 90.8563,-32.06 90.0229,-31.5743"/>
<polygon fill="black" stroke="black" points="91.5111,-28.3847 81.1397,-26.2203 87.8976,-34.38 91.5111,-28.3847"/>
<text text-anchor="middle" x="155.5" y="-54" font-family="Verdana" font-size="10.00"> 1 </text>
</g>
<!-- s2 -->
<g id="node4" class="node"><title>s2</title>
<polygon fill="none" stroke="black" points="131,-11.3223 131,-21.6777 123.678,-29 113.322,-29 106,-21.6777 106,-11.3223 113.322,-4 123.678,-4 131,-11.3223"/>
<polygon fill="none" stroke="black" points="135,-9.66548 135,-23.3345 125.335,-33 111.665,-33 102,-23.3345 102,-9.66548 111.665,-0 125.335,-0 135,-9.66548"/>
</g>
<!-- root&#45;&gt;s2 -->
<g id="edge3" class="edge"><title>root&#45;&gt;s2</title>
<path fill="none" stroke="black" d="M232.857,-86.1794C220.116,-80.6584 200.03,-71.5133 183.5,-62 168.43,-53.327 152.296,-42.2926 139.872,-33.3817"/>
<polygon fill="black" stroke="black" points="141.697,-30.3809 131.55,-27.3325 137.581,-36.0432 141.697,-30.3809"/>
<text text-anchor="middle" x="190.5" y="-54" font-family="Verdana" font-size="10.00"> 2 </text>
</g>
<!-- s3 -->
<g id="node5" class="node"><title>s3</title>
<polygon fill="none" stroke="black" points="182,-11.3223 182,-21.6777 174.678,-29 164.322,-29 157,-21.6777 157,-11.3223 164.322,-4 174.678,-4 182,-11.3223"/>
<polygon fill="none" stroke="black" points="186,-9.66548 186,-23.3345 176.335,-33 162.665,-33 153,-23.3345 153,-9.66548 162.665,-0 176.335,-0 186,-9.66548"/>
</g>
<!-- root&#45;&gt;s3 -->
<g id="edge4" class="edge"><title>root&#45;&gt;s3</title>
<path fill="none" stroke="black" d="M232.914,-80.1445C226.967,-74.7163 219.805,-68.0885 213.5,-62 204.942,-53.7362 195.655,-44.4002 187.828,-36.4212"/>
<polygon fill="black" stroke="black" points="190.059,-33.696 180.57,-28.9845 185.05,-38.5855 190.059,-33.696"/>
<text text-anchor="middle" x="220.5" y="-54" font-family="Verdana" font-size="10.00"> 3 </text>
</g>
<!-- s4 -->
<g id="node6" class="node"><title>s4</title>
<polygon fill="none" stroke="black" points="233,-11.3223 233,-21.6777 225.678,-29 215.322,-29 208,-21.6777 208,-11.3223 215.322,-4 225.678,-4 233,-11.3223"/>
<polygon fill="none" stroke="black" points="237,-9.66548 237,-23.3345 227.335,-33 213.665,-33 204,-23.3345 204,-9.66548 213.665,-0 227.335,-0 237,-9.66548"/>
</g>
<!-- root&#45;&gt;s4 -->
<g id="edge5" class="edge"><title>root&#45;&gt;s4</title>
<path fill="none" stroke="black" d="M241.505,-79.7305C239.673,-74.329 237.474,-67.8402 235.5,-62 233.426,-55.8647 231.195,-49.2522 229.104,-43.0494"/>
<polygon fill="black" stroke="black" points="232.279,-41.5126 225.769,-33.1539 225.646,-43.748 232.279,-41.5126"/>
<text text-anchor="middle" x="242.5" y="-54" font-family="Verdana" font-size="10.00"> 4 </text>
</g>
<!-- s5 -->
<g id="node7" class="node"><title>s5</title>
<polygon fill="none" stroke="black" points="284,-11.3223 284,-21.6777 276.678,-29 266.322,-29 259,-21.6777 259,-11.3223 266.322,-4 276.678,-4 284,-11.3223"/>
<polygon fill="none" stroke="black" points="288,-9.66548 288,-23.3345 278.335,-33 264.665,-33 255,-23.3345 255,-9.66548 264.665,-0 278.335,-0 288,-9.66548"/>
</g>
<!-- root&#45;&gt;s5 -->
<g id="edge6" class="edge"><title>root&#45;&gt;s5</title>
<path fill="none" stroke="black" d="M249.563,-79.9375C253.056,-69.9943 258.219,-55.3006 262.658,-42.6652"/>
<polygon fill="black" stroke="black" points="266.005,-43.6979 266.018,-33.1031 259.401,-41.3775 266.005,-43.6979"/>
<text text-anchor="middle" x="265.5" y="-54" font-family="Verdana" font-size="10.00"> 5 </text>
</g>
<!-- s6 -->
<g id="node8" class="node"><title>s6</title>
<polygon fill="none" stroke="black" points="335,-11.3223 335,-21.6777 327.678,-29 317.322,-29 310,-21.6777 310,-11.3223 317.322,-4 327.678,-4 335,-11.3223"/>
<polygon fill="none" stroke="black" points="339,-9.66548 339,-23.3345 329.335,-33 315.665,-33 306,-23.3345 306,-9.66548 315.665,-0 329.335,-0 339,-9.66548"/>
</g>
<!-- root&#45;&gt;s6 -->
<g id="edge7" class="edge"><title>root&#45;&gt;s6</title>
<path fill="none" stroke="black" d="M257.892,-79.7521C263.573,-74.355 270.389,-67.8637 276.5,-62 285.371,-53.4886 295.166,-44.0222 303.43,-36.0161"/>
<polygon fill="black" stroke="black" points="306.061,-38.3405 310.803,-28.8665 301.188,-33.3151 306.061,-38.3405"/>
<text text-anchor="middle" x="294.5" y="-54" font-family="Verdana" font-size="10.00"> 6 </text>
</g>
<!-- s7 -->
<g id="node9" class="node"><title>s7</title>
<polygon fill="none" stroke="black" points="386,-11.3223 386,-21.6777 378.678,-29 368.322,-29 361,-21.6777 361,-11.3223 368.322,-4 378.678,-4 386,-11.3223"/>
<polygon fill="none" stroke="black" points="390,-9.66548 390,-23.3345 380.335,-33 366.665,-33 357,-23.3345 357,-9.66548 366.665,-0 380.335,-0 390,-9.66548"/>
</g>
<!-- root&#45;&gt;s7 -->
<g id="edge8" class="edge"><title>root&#45;&gt;s7</title>
<path fill="none" stroke="black" d="M258.142,-85.8344C270.447,-80.1924 289.568,-71.0844 305.5,-62 321.433,-52.915 338.72,-41.5815 351.876,-32.626"/>
<polygon fill="black" stroke="black" points="354.001,-35.4129 360.257,-26.8628 350.034,-29.645 354.001,-35.4129"/>
<text text-anchor="middle" x="329.5" y="-54" font-family="Verdana" font-size="10.00"> 7 </text>
</g>
<!-- s8 -->
<g id="node10" class="node"><title>s8</title>
<polygon fill="none" stroke="black" points="437,-11.3223 437,-21.6777 429.678,-29 419.322,-29 412,-21.6777 412,-11.3223 419.322,-4 429.678,-4 437,-11.3223"/>
<polygon fill="none" stroke="black" points="441,-9.66548 441,-23.3345 431.335,-33 417.665,-33 408,-23.3345 408,-9.66548 417.665,-0 431.335,-0 441,-9.66548"/>
</g>
<!-- root&#45;&gt;s8 -->
<g id="edge9" class="edge"><title>root&#45;&gt;s8</title>
<path fill="none" stroke="black" d="M258.011,-88.2846C276.386,-83.4128 311.62,-73.5005 340.5,-62 367.646,-51.1903 373.942,-47.1597 399.5,-33 400.321,-32.5453 401.153,-32.0759 401.99,-31.5965"/>
<polygon fill="black" stroke="black" points="404.104,-34.41 410.89,-26.2734 400.511,-28.4024 404.104,-34.41"/>
<text text-anchor="middle" x="372.5" y="-54" font-family="Verdana" font-size="10.00"> 8 </text>
</g>
<!-- s9 -->
<g id="node11" class="node"><title>s9</title>
<polygon fill="none" stroke="black" points="488,-11.3223 488,-21.6777 480.678,-29 470.322,-29 463,-21.6777 463,-11.3223 470.322,-4 480.678,-4 488,-11.3223"/>
<polygon fill="none" stroke="black" points="492,-9.66548 492,-23.3345 482.335,-33 468.665,-33 459,-23.3345 459,-9.66548 468.665,-0 482.335,-0 492,-9.66548"/>
</g>
<!-- root&#45;&gt;s9 -->
<g id="edge10" class="edge"><title>root&#45;&gt;s9</title>
<path fill="none" stroke="black" d="M258.277,-89.6366C282.898,-85.8565 338.463,-76.4039 383.5,-62 414.405,-52.1157 421.745,-48.0337 450.5,-33 451.332,-32.5652 452.173,-32.113 453.017,-31.6481"/>
<polygon fill="black" stroke="black" points="455.107,-34.4799 461.957,-26.3971 451.562,-28.4441 455.107,-34.4799"/>
<text text-anchor="middle" x="419.5" y="-54" font-family="Verdana" font-size="10.00"> 9 </text>
</g>
</g>
</svg>
