<?xml version="1.0" encoding="UTF-8" standalone="no"?>
<!DOCTYPE svg PUBLIC "-//W3C//DTD SVG 1.1//EN"
 "http://www.w3.org/Graphics/SVG/1.1/DTD/svg11.dtd">
<!-- Generated by graphviz version 2.38.0 (20140413.2041)
 -->
<!-- Title: %3 Pages: 1 -->
<svg width="277pt" height="175pt"
 viewBox="0.00 0.00 277.00 175.00" xmlns="http://www.w3.org/2000/svg" xmlns:xlink="http://www.w3.org/1999/xlink">
<g id="graph0" class="graph" transform="scale(1 1) rotate(0) translate(4 171)">
<title>%3</title>
<polygon fill="white" stroke="none" points="-4,4 -4,-171 273,-171 273,4 -4,4"/>
<!-- f0 -->
<g id="node1" class="node"><title>f0</title>
<polygon fill="none" stroke="black" points="119.5,-167 65.5,-167 65.5,-148 119.5,-148 119.5,-167"/>
<text text-anchor="middle" x="92.5" y="-155" font-family="Verdana" font-size="10.00">[If]</text>
</g>
<!-- f1 -->
<g id="node2" class="node"><title>f1</title>
<polygon fill="none" stroke="black" points="179.5,-98.5 125.5,-98.5 125.5,-79.5 179.5,-79.5 179.5,-98.5"/>
<text text-anchor="middle" x="152.5" y="-86.5" font-family="Verdana" font-size="10.00">[If]</text>
</g>
<!-- f0&#45;&gt;f1 -->
<g id="edge2" class="edge"><title>f0&#45;&gt;f1</title>
<path fill="none" stroke="black" d="M100.344,-147.806C109.814,-137.31 125.939,-119.439 137.758,-106.339"/>
<polygon fill="black" stroke="black" points="140.362,-108.677 144.463,-98.9081 135.165,-103.988 140.362,-108.677"/>
<text text-anchor="middle" x="142" y="-124.4" font-family="Verdana" font-size="7.00">statement</text>
</g>
<!-- b0 -->
<g id="node3" class="node"><title>b0</title>
<polygon fill="none" stroke="black" points="107,-104 0,-104 0,-74 107,-74 107,-104"/>
<text text-anchor="middle" x="53.5" y="-92" font-family="Verdana" font-size="10.00">[BinaryExpression]</text>
<text text-anchor="middle" x="53.5" y="-81" font-family="Verdana" font-size="10.00">b = b</text>
</g>
<!-- f0&#45;&gt;b0 -->
<g id="edge1" class="edge"><title>f0&#45;&gt;b0</title>
<path fill="none" stroke="black" d="M86.2453,-147.829C82.6604,-142.731 78.1604,-136.106 74.5,-130 71.2964,-124.656 68.0589,-118.777 65.117,-113.21"/>
<polygon fill="black" stroke="black" points="68.2044,-111.56 60.5034,-104.284 61.9859,-114.775 68.2044,-111.56"/>
<text text-anchor="middle" x="92" y="-124.4" font-family="Verdana" font-size="7.00">condition</text>
</g>
<!-- b1 -->
<g id="node4" class="node"><title>b1</title>
<polygon fill="none" stroke="black" points="144,-30 37,-30 37,-0 144,-0 144,-30"/>
<text text-anchor="middle" x="90.5" y="-18" font-family="Verdana" font-size="10.00">[BinaryExpression]</text>
<text text-anchor="middle" x="90.5" y="-7" font-family="Verdana" font-size="10.00">b &gt; b</text>
</g>
<!-- f1&#45;&gt;b1 -->
<g id="edge3" class="edge"><title>f1&#45;&gt;b1</title>
<path fill="none" stroke="black" d="M145.144,-79.4579C136.403,-69.3067 121.486,-51.9841 109.444,-38"/>
<polygon fill="black" stroke="black" points="111.932,-35.5255 102.755,-30.2316 106.628,-40.0932 111.932,-35.5255"/>
<text text-anchor="middle" x="141" y="-50.4" font-family="Verdana" font-size="7.00">condition</text>
</g>
<!-- b2 -->
<g id="node5" class="node"><title>b2</title>
<polygon fill="none" stroke="black" points="269,-30 162,-30 162,-0 269,-0 269,-30"/>
<text text-anchor="middle" x="215.5" y="-18" font-family="Verdana" font-size="10.00">[BinaryExpression]</text>
<text text-anchor="middle" x="215.5" y="-7" font-family="Verdana" font-size="10.00">b &lt; b</text>
</g>
<!-- f1&#45;&gt;b2 -->
<g id="edge4" class="edge"><title>f1&#45;&gt;b2</title>
<path fill="none" stroke="black" d="M159.974,-79.4579C168.857,-69.3067 184.014,-51.9841 196.25,-38"/>
<polygon fill="black" stroke="black" points="199.096,-40.0622 203.047,-30.2316 193.828,-35.4526 199.096,-40.0622"/>
<text text-anchor="middle" x="206" y="-50.4" font-family="Verdana" font-size="7.00">statement</text>
</g>
</g>
</svg>
