<?xml version="1.0" encoding="UTF-8" standalone="no"?>
<!DOCTYPE svg PUBLIC "-//W3C//DTD SVG 1.1//EN"
 "http://www.w3.org/Graphics/SVG/1.1/DTD/svg11.dtd">
<!-- Generated by graphviz version 2.38.0 (20140413.2041)
 -->
<!-- Title: %3 Pages: 1 -->
<svg width="138pt" height="170pt"
 viewBox="0.00 0.00 138.00 170.00" xmlns="http://www.w3.org/2000/svg" xmlns:xlink="http://www.w3.org/1999/xlink">
<g id="graph0" class="graph" transform="scale(1 1) rotate(0) translate(4 166)">
<title>%3</title>
<polygon fill="white" stroke="none" points="-4,4 -4,-166 134,-166 134,4 -4,4"/>
<!-- [Variable]\na -->
<g id="node1" class="node"><title>[Variable]\na</title>
<polygon fill="none" stroke="black" points="97.5,-162 32.5,-162 32.5,-132 97.5,-132 97.5,-162"/>
<text text-anchor="middle" x="65" y="-150" font-family="Verdana" font-size="10.00">[Variable]</text>
<text text-anchor="middle" x="65" y="-139" font-family="Verdana" font-size="10.00">a</text>
</g>
<!-- [BinaryOperator]\n+ -->
<g id="node2" class="node"><title>[BinaryOperator]\n+</title>
<polygon fill="none" stroke="black" points="114.5,-96 15.5,-96 15.5,-66 114.5,-66 114.5,-96"/>
<text text-anchor="middle" x="65" y="-84" font-family="Verdana" font-size="10.00">[BinaryOperator]</text>
<text text-anchor="middle" x="65" y="-73" font-family="Verdana" font-size="10.00">+</text>
</g>
<!-- [Variable]\na&#45;&gt;[BinaryOperator]\n+ -->
<g id="edge1" class="edge"><title>[Variable]\na&#45;&gt;[BinaryOperator]\n+</title>
<path fill="none" stroke="black" d="M65,-131.796C65,-124.339 65,-114.991 65,-106.415"/>
<polygon fill="black" stroke="black" points="68.5001,-106.164 65,-96.164 61.5001,-106.164 68.5001,-106.164"/>
</g>
<!-- [Literal]\n3 -->
<g id="node3" class="node"><title>[Literal]\n3</title>
<polygon fill="none" stroke="black" points="56,-30 3.55271e-015,-30 3.55271e-015,-0 56,-0 56,-30"/>
<text text-anchor="middle" x="28" y="-18" font-family="Verdana" font-size="10.00">[Literal]</text>
<text text-anchor="middle" x="28" y="-7" font-family="Verdana" font-size="10.00">3</text>
</g>
<!-- [BinaryOperator]\n+&#45;&gt;[Literal]\n3 -->
<g id="edge2" class="edge"><title>[BinaryOperator]\n+&#45;&gt;[Literal]\n3</title>
<path fill="none" stroke="black" d="M56.7885,-65.7963C52.2378,-57.9248 46.4692,-47.9467 41.2927,-38.9928"/>
<polygon fill="black" stroke="black" points="44.2237,-37.0696 36.1885,-30.164 38.1635,-40.5731 44.2237,-37.0696"/>
</g>
<!-- [Literal]\n9.0f -->
<g id="node4" class="node"><title>[Literal]\n9.0f</title>
<polygon fill="none" stroke="black" points="130,-30 74,-30 74,-0 130,-0 130,-30"/>
<text text-anchor="middle" x="102" y="-18" font-family="Verdana" font-size="10.00">[Literal]</text>
<text text-anchor="middle" x="102" y="-7" font-family="Verdana" font-size="10.00">9.0f</text>
</g>
<!-- [BinaryOperator]\n+&#45;&gt;[Literal]\n9.0f -->
<g id="edge3" class="edge"><title>[BinaryOperator]\n+&#45;&gt;[Literal]\n9.0f</title>
<path fill="none" stroke="black" d="M73.2115,-65.7963C77.7622,-57.9248 83.5308,-47.9467 88.7073,-38.9928"/>
<polygon fill="black" stroke="black" points="91.8365,-40.5731 93.8115,-30.164 85.7763,-37.0696 91.8365,-40.5731"/>
</g>
</g>
</svg>
