<?xml version="1.0" encoding="UTF-8" standalone="no"?>
<!DOCTYPE svg PUBLIC "-//W3C//DTD SVG 1.1//EN"
 "http://www.w3.org/Graphics/SVG/1.1/DTD/svg11.dtd">
<!-- Generated by graphviz version 2.38.0 (20140413.2041)
 -->
<!-- Title: %3 Pages: 1 -->
<svg width="140pt" height="193pt"
 viewBox="0.00 0.00 140.00 193.00" xmlns="http://www.w3.org/2000/svg" xmlns:xlink="http://www.w3.org/1999/xlink">
<g id="graph0" class="graph" transform="scale(1 1) rotate(0) translate(4 189)">
<title>%3</title>
<polygon fill="white" stroke="none" points="-4,4 -4,-189 136,-189 136,4 -4,4"/>
<!-- root -->
<g id="node1" class="node"><title>root</title>
<polygon fill="none" stroke="black" points="83,-185 58,-185 58,-160 83,-160 83,-185"/>
</g>
<!-- s0 -->
<g id="node2" class="node"><title>s0</title>
<polygon fill="none" stroke="black" points="29,-91.3223 29,-101.678 21.6777,-109 11.3223,-109 4,-101.678 4,-91.3223 11.3223,-84 21.6777,-84 29,-91.3223"/>
<polygon fill="none" stroke="black" points="33,-89.6655 33,-103.335 23.3345,-113 9.66548,-113 0,-103.335 0,-89.6655 9.66548,-80 23.3345,-80 33,-89.6655"/>
</g>
<!-- root&#45;&gt;s0 -->
<g id="edge1" class="edge"><title>root&#45;&gt;s0</title>
<path fill="none" stroke="black" d="M62.0625,-159.938C54.0326,-148.934 41.7572,-132.112 31.9703,-118.7"/>
<polygon fill="black" stroke="black" points="34.6899,-116.489 25.9679,-110.474 29.0353,-120.616 34.6899,-116.489"/>
<text text-anchor="middle" x="64.5" y="-134" font-family="Verdana" font-size="10.00"> [0&#45;9] </text>
</g>
<!-- s1 -->
<g id="node3" class="node"><title>s1</title>
<polygon fill="none" stroke="black" points="128,-91.3223 128,-101.678 120.678,-109 110.322,-109 103,-101.678 103,-91.3223 110.322,-84 120.678,-84 128,-91.3223"/>
</g>
<!-- root&#45;&gt;s1 -->
<g id="edge3" class="edge"><title>root&#45;&gt;s1</title>
<path fill="none" stroke="black" d="M77.5313,-159.938C84.5206,-148.444 95.3698,-130.603 103.684,-116.931"/>
<polygon fill="black" stroke="black" points="106.751,-118.623 108.957,-108.26 100.77,-114.986 106.751,-118.623"/>
<text text-anchor="middle" x="100.5" y="-134" font-family="Verdana" font-size="10.00"> h </text>
</g>
<!-- s0&#45;&gt;s0 -->
<g id="edge2" class="edge"><title>s0&#45;&gt;s0</title>
<path fill="none" stroke="black" d="M32.8274,-103.588C42.2388,-105.035 51,-102.672 51,-96.5 51,-92.739 47.7466,-90.3925 43.0753,-89.4605"/>
<polygon fill="black" stroke="black" points="42.8439,-85.9595 32.8274,-89.412 42.8107,-92.9594 42.8439,-85.9595"/>
<text text-anchor="middle" x="68" y="-94" font-family="Verdana" font-size="10.00"> [0&#45;9] </text>
</g>
<!-- s2 -->
<g id="node4" class="node"><title>s2</title>
<polygon fill="none" stroke="black" points="128,-11.3223 128,-21.6777 120.678,-29 110.322,-29 103,-21.6777 103,-11.3223 110.322,-4 120.678,-4 128,-11.3223"/>
<polygon fill="none" stroke="black" points="132,-9.66548 132,-23.3345 122.335,-33 108.665,-33 99,-23.3345 99,-9.66548 108.665,-0 122.335,-0 132,-9.66548"/>
</g>
<!-- s1&#45;&gt;s2 -->
<g id="edge4" class="edge"><title>s1&#45;&gt;s2</title>
<path fill="none" stroke="black" d="M115.5,-83.9908C115.5,-73.3575 115.5,-57.1768 115.5,-43.44"/>
<polygon fill="black" stroke="black" points="119,-43.0999 115.5,-33.0999 112,-43.1 119,-43.0999"/>
<text text-anchor="middle" x="120.5" y="-54" font-family="Verdana" font-size="10.00"> i </text>
</g>
</g>
</svg>
