<?xml version="1.0" encoding="UTF-8" standalone="no"?>
<!DOCTYPE svg PUBLIC "-//W3C//DTD SVG 1.1//EN"
 "http://www.w3.org/Graphics/SVG/1.1/DTD/svg11.dtd">
<!-- Generated by graphviz version 2.38.0 (20140413.2041)
 -->
<!-- Title: %3 Pages: 1 -->
<svg width="175pt" height="170pt"
 viewBox="0.00 0.00 175.00 170.00" xmlns="http://www.w3.org/2000/svg" xmlns:xlink="http://www.w3.org/1999/xlink">
<g id="graph0" class="graph" transform="scale(1 1) rotate(0) translate(4 166)">
<title>%3</title>
<polygon fill="white" stroke="none" points="-4,4 -4,-166 171,-166 171,4 -4,4"/>
<!-- [Binary]\n+ -->
<g id="node1" class="node"><title>[Binary]\n+</title>
<polygon fill="none" stroke="black" points="93,-162 37,-162 37,-132 93,-132 93,-162"/>
<text text-anchor="middle" x="65" y="-150" font-family="Verdana" font-size="10.00">[Binary]</text>
<text text-anchor="middle" x="65" y="-139" font-family="Verdana" font-size="10.00">+</text>
</g>
<!-- [Literal]\n3 -->
<g id="node2" class="node"><title>[Literal]\n3</title>
<polygon fill="none" stroke="black" points="56,-96 3.55271e-015,-96 3.55271e-015,-66 56,-66 56,-96"/>
<text text-anchor="middle" x="28" y="-84" font-family="Verdana" font-size="10.00">[Literal]</text>
<text text-anchor="middle" x="28" y="-73" font-family="Verdana" font-size="10.00">3</text>
</g>
<!-- [Binary]\n+&#45;&gt;[Literal]\n3 -->
<g id="edge1" class="edge"><title>[Binary]\n+&#45;&gt;[Literal]\n3</title>
<path fill="none" stroke="black" d="M56.7885,-131.796C52.2378,-123.925 46.4692,-113.947 41.2927,-104.993"/>
<polygon fill="black" stroke="black" points="44.2237,-103.07 36.1885,-96.164 38.1635,-106.573 44.2237,-103.07"/>
</g>
<!-- [Binary]\n* -->
<g id="node3" class="node"><title>[Binary]\n*</title>
<polygon fill="none" stroke="black" points="130,-96 74,-96 74,-66 130,-66 130,-96"/>
<text text-anchor="middle" x="102" y="-84" font-family="Verdana" font-size="10.00">[Binary]</text>
<text text-anchor="middle" x="102" y="-73" font-family="Verdana" font-size="10.00">*</text>
</g>
<!-- [Binary]\n+&#45;&gt;[Binary]\n* -->
<g id="edge2" class="edge"><title>[Binary]\n+&#45;&gt;[Binary]\n*</title>
<path fill="none" stroke="black" d="M73.2115,-131.796C77.7622,-123.925 83.5308,-113.947 88.7073,-104.993"/>
<polygon fill="black" stroke="black" points="91.8365,-106.573 93.8115,-96.164 85.7763,-103.07 91.8365,-106.573"/>
</g>
<!-- [Literal]\n4 -->
<g id="node4" class="node"><title>[Literal]\n4</title>
<polygon fill="none" stroke="black" points="93,-30 37,-30 37,-0 93,-0 93,-30"/>
<text text-anchor="middle" x="65" y="-18" font-family="Verdana" font-size="10.00">[Literal]</text>
<text text-anchor="middle" x="65" y="-7" font-family="Verdana" font-size="10.00">4</text>
</g>
<!-- [Binary]\n*&#45;&gt;[Literal]\n4 -->
<g id="edge3" class="edge"><title>[Binary]\n*&#45;&gt;[Literal]\n4</title>
<path fill="none" stroke="black" d="M93.7885,-65.7963C89.2378,-57.9248 83.4692,-47.9467 78.2927,-38.9928"/>
<polygon fill="black" stroke="black" points="81.2237,-37.0696 73.1885,-30.164 75.1635,-40.5731 81.2237,-37.0696"/>
</g>
<!-- [Literal]\n9 -->
<g id="node5" class="node"><title>[Literal]\n9</title>
<polygon fill="none" stroke="black" points="167,-30 111,-30 111,-0 167,-0 167,-30"/>
<text text-anchor="middle" x="139" y="-18" font-family="Verdana" font-size="10.00">[Literal]</text>
<text text-anchor="middle" x="139" y="-7" font-family="Verdana" font-size="10.00">9</text>
</g>
<!-- [Binary]\n*&#45;&gt;[Literal]\n9 -->
<g id="edge4" class="edge"><title>[Binary]\n*&#45;&gt;[Literal]\n9</title>
<path fill="none" stroke="black" d="M110.211,-65.7963C114.762,-57.9248 120.531,-47.9467 125.707,-38.9928"/>
<polygon fill="black" stroke="black" points="128.836,-40.5731 130.811,-30.164 122.776,-37.0696 128.836,-40.5731"/>
</g>
</g>
</svg>
