<?xml version="1.0" encoding="UTF-8" standalone="no"?>
<!DOCTYPE svg PUBLIC "-//W3C//DTD SVG 1.1//EN"
 "http://www.w3.org/Graphics/SVG/1.1/DTD/svg11.dtd">
<!-- Generated by graphviz version 2.38.0 (20140413.2041)
 -->
<!-- Title: %3 Pages: 1 -->
<svg width="108pt" height="257pt"
 viewBox="0.00 0.00 107.78 257.00" xmlns="http://www.w3.org/2000/svg" xmlns:xlink="http://www.w3.org/1999/xlink">
<g id="graph0" class="graph" transform="scale(1 1) rotate(0) translate(4 253)">
<title>%3</title>
<polygon fill="white" stroke="none" points="-4,4 -4,-253 103.776,-253 103.776,4 -4,4"/>
<!-- root -->
<g id="node1" class="node"><title>root</title>
<polygon fill="none" stroke="black" points="36.3881,-249 11.3881,-249 11.3881,-224 36.3881,-224 36.3881,-249"/>
</g>
<!-- s0 -->
<g id="node2" class="node"><title>s0</title>
<polygon fill="none" stroke="black" points="36.3881,-179.322 36.3881,-189.678 29.0658,-197 18.7104,-197 11.3881,-189.678 11.3881,-179.322 18.7104,-172 29.0658,-172 36.3881,-179.322"/>
</g>
<!-- root&#45;&gt;s0 -->
<g id="edge1" class="edge"><title>root&#45;&gt;s0</title>
<path fill="none" stroke="black" d="M23.8881,-223.903C23.8881,-218.981 23.8881,-213.074 23.8881,-207.386"/>
<polygon fill="black" stroke="black" points="27.3882,-207.034 23.8881,-197.034 20.3882,-207.034 27.3882,-207.034"/>
<text text-anchor="middle" x="40.8881" y="-208" font-family="Verdana" font-size="10.00"> [0&#45;9] </text>
</g>
<!-- s0&#45;&gt;s0 -->
<g id="edge2" class="edge"><title>s0&#45;&gt;s0</title>
<path fill="none" stroke="black" d="M36.4295,-189.107C43.6585,-190.047 50.3881,-188.512 50.3881,-184.5 50.3881,-182.62 48.9094,-181.283 46.5938,-180.491"/>
<polygon fill="black" stroke="black" points="46.6177,-176.986 36.4295,-179.893 46.2067,-183.974 46.6177,-176.986"/>
<text text-anchor="middle" x="67.3881" y="-182" font-family="Verdana" font-size="10.00"> [0&#45;9] </text>
</g>
<!-- s1 -->
<g id="node3" class="node"><title>s1</title>
<polygon fill="none" stroke="black" points="36.3881,-127.322 36.3881,-137.678 29.0658,-145 18.7104,-145 11.3881,-137.678 11.3881,-127.322 18.7104,-120 29.0658,-120 36.3881,-127.322"/>
</g>
<!-- s0&#45;&gt;s1 -->
<g id="edge3" class="edge"><title>s0&#45;&gt;s1</title>
<path fill="none" stroke="black" d="M23.8881,-171.903C23.8881,-166.981 23.8881,-161.074 23.8881,-155.386"/>
<polygon fill="black" stroke="black" points="27.3882,-155.034 23.8881,-145.034 20.3882,-155.034 27.3882,-155.034"/>
<text text-anchor="middle" x="29.8881" y="-156" font-family="Verdana" font-size="10.00"> . </text>
</g>
<!-- s2 -->
<g id="node4" class="node"><title>s2</title>
<polygon fill="none" stroke="black" points="43.6835,-71.3223 43.6835,-81.6777 32.0876,-89 15.6886,-89 4.09273,-81.6777 4.09273,-71.3223 15.6886,-64 32.0876,-64 43.6835,-71.3223"/>
<polygon fill="none" stroke="black" points="47.6648,-69.1119 47.6648,-83.8881 33.2349,-93 14.5413,-93 0.111376,-83.8881 0.111376,-69.1119 14.5413,-60 33.2349,-60 47.6648,-69.1119"/>
<text text-anchor="middle" x="23.8881" y="-74" font-family="Verdana" font-size="10.00">double</text>
</g>
<!-- s1&#45;&gt;s2 -->
<g id="edge4" class="edge"><title>s1&#45;&gt;s2</title>
<path fill="none" stroke="black" d="M23.8881,-119.783C23.8881,-114.897 23.8881,-109.016 23.8881,-103.215"/>
<polygon fill="black" stroke="black" points="27.3882,-103.09 23.8881,-93.0896 20.3882,-103.09 27.3882,-103.09"/>
<text text-anchor="middle" x="40.8881" y="-104" font-family="Verdana" font-size="10.00"> [0&#45;9] </text>
</g>
<!-- s2&#45;&gt;s2 -->
<g id="edge5" class="edge"><title>s2&#45;&gt;s2</title>
<path fill="none" stroke="black" d="M47.937,-81.7487C55.6573,-81.6949 61.7762,-79.9453 61.7762,-76.5 61.7762,-74.885 60.4317,-73.6426 58.208,-72.7728"/>
<polygon fill="black" stroke="black" points="58.342,-69.2545 47.937,-71.2513 57.3161,-76.179 58.342,-69.2545"/>
<text text-anchor="middle" x="78.7762" y="-74" font-family="Verdana" font-size="10.00"> [0&#45;9] </text>
</g>
<!-- s3 -->
<g id="node5" class="node"><title>s3</title>
<polygon fill="none" stroke="black" points="37.6428,-11.3223 37.6428,-21.6777 29.5855,-29 18.1907,-29 10.1334,-21.6777 10.1334,-11.3223 18.1907,-4 29.5855,-4 37.6428,-11.3223"/>
<polygon fill="none" stroke="black" points="41.612,-9.54324 41.612,-23.4568 31.1108,-33 16.6654,-33 6.16423,-23.4568 6.16423,-9.54324 16.6654,3.55271e-015 31.1108,-0 41.612,-9.54324"/>
<text text-anchor="middle" x="23.8881" y="-14" font-family="Verdana" font-size="10.00">float</text>
</g>
<!-- s2&#45;&gt;s3 -->
<g id="edge6" class="edge"><title>s2&#45;&gt;s3</title>
<path fill="none" stroke="black" d="M23.8881,-59.9571C23.8881,-54.886 23.8881,-49.1096 23.8881,-43.486"/>
<polygon fill="black" stroke="black" points="27.3882,-43.0858 23.8881,-33.0858 20.3882,-43.0859 27.3882,-43.0858"/>
<text text-anchor="middle" x="29.8881" y="-44" font-family="Verdana" font-size="10.00"> f </text>
</g>
</g>
</svg>
