<?xml version="1.0" encoding="UTF-8" standalone="no"?>
<!DOCTYPE svg PUBLIC "-//W3C//DTD SVG 1.1//EN"
 "http://www.w3.org/Graphics/SVG/1.1/DTD/svg11.dtd">
<!-- Generated by graphviz version 2.38.0 (20140413.2041)
 -->
<!-- Title: %3 Pages: 1 -->
<svg width="184pt" height="93pt"
 viewBox="0.00 0.00 184.00 93.00" xmlns="http://www.w3.org/2000/svg" xmlns:xlink="http://www.w3.org/1999/xlink">
<g id="graph0" class="graph" transform="scale(1 1) rotate(0) translate(4 89)">
<title>%3</title>
<polygon fill="white" stroke="none" points="-4,4 -4,-89 180,-89 180,4 -4,4"/>
<!-- [Indexer] -->
<g id="node1" class="node"><title>[Indexer]</title>
<polygon fill="none" stroke="black" points="130,-85 68,-85 68,-66 130,-66 130,-85"/>
<text text-anchor="middle" x="99" y="-73" font-family="Verdana" font-size="10.00">[Indexer]</text>
</g>
<!-- [NameReference]\na -->
<g id="node2" class="node"><title>[NameReference]\na</title>
<polygon fill="none" stroke="black" points="102,-30 0,-30 0,-0 102,-0 102,-30"/>
<text text-anchor="middle" x="51" y="-18" font-family="Verdana" font-size="10.00">[NameReference]</text>
<text text-anchor="middle" x="51" y="-7" font-family="Verdana" font-size="10.00">a</text>
</g>
<!-- [Indexer]&#45;&gt;[NameReference]\na -->
<g id="edge1" class="edge"><title>[Indexer]&#45;&gt;[NameReference]\na</title>
<path fill="none" stroke="black" d="M91.9174,-65.8681C85.8869,-58.5184 76.9568,-47.6349 68.9766,-37.909"/>
<polygon fill="black" stroke="black" points="71.6302,-35.6252 62.5812,-30.1146 66.2186,-40.0655 71.6302,-35.6252"/>
</g>
<!-- [Literal]\n5 -->
<g id="node3" class="node"><title>[Literal]\n5</title>
<polygon fill="none" stroke="black" points="176,-30 120,-30 120,-0 176,-0 176,-30"/>
<text text-anchor="middle" x="148" y="-18" font-family="Verdana" font-size="10.00">[Literal]</text>
<text text-anchor="middle" x="148" y="-7" font-family="Verdana" font-size="10.00">5</text>
</g>
<!-- [Indexer]&#45;&gt;[Literal]\n5 -->
<g id="edge2" class="edge"><title>[Indexer]&#45;&gt;[Literal]\n5</title>
<path fill="none" stroke="black" d="M106.23,-65.8681C112.386,-58.5184 121.502,-47.6349 129.649,-37.909"/>
<polygon fill="black" stroke="black" points="132.439,-40.0281 136.178,-30.1146 127.073,-35.5333 132.439,-40.0281"/>
</g>
</g>
</svg>
