<?xml version="1.0" encoding="UTF-8" standalone="no"?>
<!DOCTYPE svg PUBLIC "-//W3C//DTD SVG 1.1//EN"
 "http://www.w3.org/Graphics/SVG/1.1/DTD/svg11.dtd">
<!-- Generated by graphviz version 2.38.0 (20140413.2041)
 -->
<!-- Title: %3 Pages: 1 -->
<svg width="240pt" height="473pt"
 viewBox="0.00 0.00 240.01 473.00" xmlns="http://www.w3.org/2000/svg" xmlns:xlink="http://www.w3.org/1999/xlink">
<g id="graph0" class="graph" transform="scale(1 1) rotate(0) translate(4 469)">
<title>%3</title>
<polygon fill="white" stroke="none" points="-4,4 -4,-469 236.008,-469 236.008,4 -4,4"/>
<!-- root -->
<g id="node1" class="node"><title>root</title>
<polygon fill="none" stroke="black" points="125.415,-465 100.415,-465 100.415,-440 125.415,-440 125.415,-465"/>
</g>
<!-- s0 -->
<g id="node2" class="node"><title>s0</title>
<polygon fill="none" stroke="black" points="55.756,-391.322 55.756,-401.678 40.6186,-409 19.211,-409 4.0736,-401.678 4.0736,-391.322 19.211,-384 40.6186,-384 55.756,-391.322"/>
<polygon fill="none" stroke="black" points="59.7446,-388.811 59.7446,-404.189 41.5303,-413 18.2993,-413 0.0849584,-404.189 0.0849584,-388.811 18.2993,-380 41.5303,-380 59.7446,-388.811"/>
<text text-anchor="middle" x="29.9148" y="-394" font-family="Verdana" font-size="10.00">identifier</text>
</g>
<!-- root&#45;&gt;s0 -->
<g id="edge1" class="edge"><title>root&#45;&gt;s0</title>
<path fill="none" stroke="red" d="M100.305,-445.478C93.0182,-441.846 83.7682,-436.971 75.9148,-432 68.7977,-427.495 61.375,-422.213 54.6214,-417.154"/>
<polygon fill="red" stroke="red" points="56.5675,-414.236 46.498,-410.941 52.315,-419.796 56.5675,-414.236"/>
<text text-anchor="middle" x="104.915" y="-424" font-family="Verdana" font-size="10.00"> [a&#45;zA&#45;Z_] </text>
</g>
<!-- s00 -->
<g id="node3" class="node"><title>s00</title>
<polygon fill="none" stroke="black" points="192.415,-391.322 192.415,-401.678 185.092,-409 174.737,-409 167.415,-401.678 167.415,-391.322 174.737,-384 185.092,-384 192.415,-391.322"/>
</g>
<!-- root&#45;&gt;s00 -->
<g id="edge3" class="edge"><title>root&#45;&gt;s00</title>
<path fill="none" stroke="red" d="M125.571,-441.396C135.262,-433.647 148.955,-422.675 160.915,-413 161.511,-412.518 162.116,-412.027 162.728,-411.531"/>
<polygon fill="red" stroke="red" points="165.103,-414.111 170.65,-405.084 160.685,-408.682 165.103,-414.111"/>
<text text-anchor="middle" x="156.915" y="-424" font-family="Verdana" font-size="10.00"> e </text>
</g>
<!-- s0&#45;&gt;s0 -->
<g id="edge2" class="edge"><title>s0&#45;&gt;s0</title>
<path fill="none" stroke="black" d="M59.8819,-402.076C67.8185,-401.757 73.8296,-399.898 73.8296,-396.5 73.8296,-394.801 72.3268,-393.487 69.832,-392.557"/>
<polygon fill="black" stroke="black" points="70.3167,-389.09 59.8819,-390.924 69.1831,-395.998 70.3167,-389.09"/>
<text text-anchor="middle" x="111.83" y="-394" font-family="Verdana" font-size="10.00"> [a&#45;zA&#45;Z_0&#45;9] </text>
</g>
<!-- s01 -->
<g id="node4" class="node"><title>s01</title>
<polygon fill="none" stroke="black" points="192.415,-335.322 192.415,-345.678 185.092,-353 174.737,-353 167.415,-345.678 167.415,-335.322 174.737,-328 185.092,-328 192.415,-335.322"/>
</g>
<!-- s00&#45;&gt;s01 -->
<g id="edge4" class="edge"><title>s00&#45;&gt;s01</title>
<path fill="none" stroke="black" d="M179.915,-383.783C179.915,-377.839 179.915,-370.421 179.915,-363.466"/>
<polygon fill="black" stroke="black" points="183.415,-363.194 179.915,-353.194 176.415,-363.194 183.415,-363.194"/>
<text text-anchor="middle" x="186.415" y="-364" font-family="Verdana" font-size="10.00"> x </text>
</g>
<!-- s02 -->
<g id="node5" class="node"><title>s02</title>
<polygon fill="none" stroke="black" points="172.415,-283.322 172.415,-293.678 165.092,-301 154.737,-301 147.415,-293.678 147.415,-283.322 154.737,-276 165.092,-276 172.415,-283.322"/>
</g>
<!-- s01&#45;&gt;s02 -->
<g id="edge5" class="edge"><title>s01&#45;&gt;s02</title>
<path fill="none" stroke="black" d="M174.419,-328.024C173.22,-325.405 171.99,-322.622 170.915,-320 169.694,-317.023 168.47,-313.856 167.305,-310.73"/>
<polygon fill="black" stroke="black" points="170.544,-309.397 163.86,-301.176 163.959,-311.771 170.544,-309.397"/>
<text text-anchor="middle" x="177.415" y="-312" font-family="Verdana" font-size="10.00"> t </text>
</g>
<!-- s06 -->
<g id="node9" class="node"><title>s06</title>
<polygon fill="none" stroke="black" points="211.415,-283.322 211.415,-293.678 204.092,-301 193.737,-301 186.415,-293.678 186.415,-283.322 193.737,-276 204.092,-276 211.415,-283.322"/>
</g>
<!-- s01&#45;&gt;s06 -->
<g id="edge9" class="edge"><title>s01&#45;&gt;s06</title>
<path fill="none" stroke="black" d="M184.322,-327.903C186.288,-322.729 188.668,-316.466 190.93,-310.513"/>
<polygon fill="black" stroke="black" points="194.251,-311.625 194.532,-301.034 187.708,-309.138 194.251,-311.625"/>
<text text-anchor="middle" x="197.915" y="-312" font-family="Verdana" font-size="10.00"> p </text>
</g>
<!-- s03 -->
<g id="node6" class="node"><title>s03</title>
<polygon fill="none" stroke="black" points="172.415,-231.322 172.415,-241.678 165.092,-249 154.737,-249 147.415,-241.678 147.415,-231.322 154.737,-224 165.092,-224 172.415,-231.322"/>
</g>
<!-- s02&#45;&gt;s03 -->
<g id="edge6" class="edge"><title>s02&#45;&gt;s03</title>
<path fill="none" stroke="black" d="M159.915,-275.903C159.915,-270.981 159.915,-265.074 159.915,-259.386"/>
<polygon fill="black" stroke="black" points="163.415,-259.034 159.915,-249.034 156.415,-259.034 163.415,-259.034"/>
<text text-anchor="middle" x="166.915" y="-260" font-family="Verdana" font-size="10.00"> e </text>
</g>
<!-- s04 -->
<g id="node7" class="node"><title>s04</title>
<polygon fill="none" stroke="black" points="172.415,-179.322 172.415,-189.678 165.092,-197 154.737,-197 147.415,-189.678 147.415,-179.322 154.737,-172 165.092,-172 172.415,-179.322"/>
</g>
<!-- s03&#45;&gt;s04 -->
<g id="edge7" class="edge"><title>s03&#45;&gt;s04</title>
<path fill="none" stroke="black" d="M159.915,-223.903C159.915,-218.981 159.915,-213.074 159.915,-207.386"/>
<polygon fill="black" stroke="black" points="163.415,-207.034 159.915,-197.034 156.415,-207.034 163.415,-207.034"/>
<text text-anchor="middle" x="165.915" y="-208" font-family="Verdana" font-size="10.00"> r </text>
</g>
<!-- s05 -->
<g id="node8" class="node"><title>s05</title>
<polygon fill="none" stroke="black" points="176.024,-123.322 176.024,-133.678 164.83,-141 148.999,-141 137.805,-133.678 137.805,-123.322 148.999,-116 164.83,-116 176.024,-123.322"/>
<polygon fill="none" stroke="black" points="179.988,-121.148 179.988,-135.852 166.002,-145 147.827,-145 133.842,-135.852 133.842,-121.148 147.827,-112 166.002,-112 179.988,-121.148"/>
<text text-anchor="middle" x="156.915" y="-126" font-family="Verdana" font-size="10.00">extern</text>
</g>
<!-- s04&#45;&gt;s05 -->
<g id="edge8" class="edge"><title>s04&#45;&gt;s05</title>
<path fill="none" stroke="black" d="M159.264,-171.783C158.992,-166.897 158.666,-161.016 158.343,-155.215"/>
<polygon fill="black" stroke="black" points="161.83,-154.88 157.781,-145.09 154.841,-155.268 161.83,-154.88"/>
<text text-anchor="middle" x="164.915" y="-156" font-family="Verdana" font-size="10.00"> n </text>
</g>
<!-- s07 -->
<g id="node10" class="node"><title>s07</title>
<polygon fill="none" stroke="black" points="211.415,-231.322 211.415,-241.678 204.092,-249 193.737,-249 186.415,-241.678 186.415,-231.322 193.737,-224 204.092,-224 211.415,-231.322"/>
</g>
<!-- s06&#45;&gt;s07 -->
<g id="edge10" class="edge"><title>s06&#45;&gt;s07</title>
<path fill="none" stroke="black" d="M198.915,-275.903C198.915,-270.981 198.915,-265.074 198.915,-259.386"/>
<polygon fill="black" stroke="black" points="202.415,-259.034 198.915,-249.034 195.415,-259.034 202.415,-259.034"/>
<text text-anchor="middle" x="203.915" y="-260" font-family="Verdana" font-size="10.00"> l </text>
</g>
<!-- s08 -->
<g id="node11" class="node"><title>s08</title>
<polygon fill="none" stroke="black" points="212.415,-179.322 212.415,-189.678 205.092,-197 194.737,-197 187.415,-189.678 187.415,-179.322 194.737,-172 205.092,-172 212.415,-179.322"/>
</g>
<!-- s07&#45;&gt;s08 -->
<g id="edge11" class="edge"><title>s07&#45;&gt;s08</title>
<path fill="none" stroke="black" d="M199.147,-223.903C199.245,-218.981 199.363,-213.074 199.477,-207.386"/>
<polygon fill="black" stroke="black" points="202.983,-207.102 199.684,-197.034 195.985,-206.962 202.983,-207.102"/>
<text text-anchor="middle" x="203.915" y="-208" font-family="Verdana" font-size="10.00"> i </text>
</g>
<!-- s09 -->
<g id="node12" class="node"><title>s09</title>
<polygon fill="none" stroke="black" points="219.415,-123.322 219.415,-133.678 212.092,-141 201.737,-141 194.415,-133.678 194.415,-123.322 201.737,-116 212.092,-116 219.415,-123.322"/>
</g>
<!-- s08&#45;&gt;s09 -->
<g id="edge12" class="edge"><title>s08&#45;&gt;s09</title>
<path fill="none" stroke="black" d="M201.434,-171.783C202.204,-165.839 203.166,-158.421 204.067,-151.466"/>
<polygon fill="black" stroke="black" points="207.584,-151.561 205.399,-141.194 200.642,-150.661 207.584,-151.561"/>
<text text-anchor="middle" x="209.915" y="-156" font-family="Verdana" font-size="10.00"> c </text>
</g>
<!-- s10 -->
<g id="node13" class="node"><title>s10</title>
<polygon fill="none" stroke="black" points="219.415,-67.3223 219.415,-77.6777 212.092,-85 201.737,-85 194.415,-77.6777 194.415,-67.3223 201.737,-60 212.092,-60 219.415,-67.3223"/>
</g>
<!-- s09&#45;&gt;s10 -->
<g id="edge13" class="edge"><title>s09&#45;&gt;s10</title>
<path fill="none" stroke="black" d="M206.915,-115.783C206.915,-109.839 206.915,-102.421 206.915,-95.4658"/>
<polygon fill="black" stroke="black" points="210.415,-95.1943 206.915,-85.1943 203.415,-95.1944 210.415,-95.1943"/>
<text text-anchor="middle" x="211.915" y="-96" font-family="Verdana" font-size="10.00"> i </text>
</g>
<!-- s11 -->
<g id="node14" class="node"><title>s11</title>
<polygon fill="none" stroke="black" points="228.087,-11.3223 228.087,-21.6777 215.685,-29 198.145,-29 185.743,-21.6777 185.743,-11.3223 198.145,-4 215.685,-4 228.087,-11.3223"/>
<polygon fill="none" stroke="black" points="232.102,-9.04313 232.102,-23.9569 216.785,-33 197.045,-33 181.728,-23.9569 181.728,-9.04313 197.045,3.55271e-015 216.785,-0 232.102,-9.04313"/>
<text text-anchor="middle" x="206.915" y="-14" font-family="Verdana" font-size="10.00">explicit</text>
</g>
<!-- s10&#45;&gt;s11 -->
<g id="edge14" class="edge"><title>s10&#45;&gt;s11</title>
<path fill="none" stroke="black" d="M206.915,-59.7828C206.915,-54.8973 206.915,-49.0163 206.915,-43.2147"/>
<polygon fill="black" stroke="black" points="210.415,-43.0896 206.915,-33.0896 203.415,-43.0896 210.415,-43.0896"/>
<text text-anchor="middle" x="213.415" y="-44" font-family="Verdana" font-size="10.00"> t </text>
</g>
</g>
</svg>
