<?xml version="1.0" encoding="UTF-8" standalone="no"?>
<!DOCTYPE svg PUBLIC "-//W3C//DTD SVG 1.1//EN"
 "http://www.w3.org/Graphics/SVG/1.1/DTD/svg11.dtd">
<!-- Generated by graphviz version 2.38.0 (20140413.2041)
 -->
<!-- Title: %3 Pages: 1 -->
<svg width="62pt" height="148pt"
 viewBox="0.00 0.00 62.00 148.00" xmlns="http://www.w3.org/2000/svg" xmlns:xlink="http://www.w3.org/1999/xlink">
<g id="graph0" class="graph" transform="scale(1 1) rotate(0) translate(4 144)">
<title>%3</title>
<polygon fill="white" stroke="none" points="-4,4 -4,-144 58,-144 58,4 -4,4"/>
<!-- ... -->
<g id="node1" class="node"><title>...</title>
<polygon fill="none" stroke="black" points="54,-140 0,-140 0,-121 54,-121 54,-140"/>
<text text-anchor="middle" x="27" y="-128" font-family="Verdana" font-size="10.00">...</text>
</g>
<!-- var a\nvar b -->
<g id="node2" class="node"><title>var a\nvar b</title>
<polygon fill="none" stroke="black" points="54,-85 0,-85 0,-55 54,-55 54,-85"/>
<text text-anchor="middle" x="27" y="-73" font-family="Verdana" font-size="10.00">var a</text>
<text text-anchor="middle" x="27" y="-62" font-family="Verdana" font-size="10.00">var b</text>
</g>
<!-- ...&#45;&gt;var a\nvar b -->
<g id="edge1" class="edge"><title>...&#45;&gt;var a\nvar b</title>
<path fill="none" stroke="black" d="M27,-120.868C27,-114.106 27,-104.354 27,-95.263"/>
<polygon fill="black" stroke="black" points="30.5001,-95.1146 27,-85.1146 23.5001,-95.1146 30.5001,-95.1146"/>
</g>
<!-- var c -->
<g id="node3" class="node"><title>var c</title>
<polygon fill="none" stroke="black" points="54,-19 0,-19 0,-0 54,-0 54,-19"/>
<text text-anchor="middle" x="27" y="-7" font-family="Verdana" font-size="10.00">var c</text>
</g>
<!-- var a\nvar b&#45;&gt;var c -->
<g id="edge2" class="edge"><title>var a\nvar b&#45;&gt;var c</title>
<path fill="none" stroke="black" d="M27,-54.8388C27,-47.2135 27,-37.7043 27,-29.4497"/>
<polygon fill="black" stroke="black" points="30.5001,-29.2659 27,-19.2659 23.5001,-29.266 30.5001,-29.2659"/>
</g>
</g>
</svg>
