<?xml version="1.0" encoding="UTF-8" standalone="no"?>
<!DOCTYPE svg PUBLIC "-//W3C//DTD SVG 1.1//EN"
 "http://www.w3.org/Graphics/SVG/1.1/DTD/svg11.dtd">
<!-- Generated by graphviz version 2.38.0 (20140413.2041)
 -->
<!-- Title: %3 Pages: 1 -->
<svg width="138pt" height="104pt"
 viewBox="0.00 0.00 138.00 104.00" xmlns="http://www.w3.org/2000/svg" xmlns:xlink="http://www.w3.org/1999/xlink">
<g id="graph0" class="graph" transform="scale(1 1) rotate(0) translate(4 100)">
<title>%3</title>
<polygon fill="white" stroke="none" points="-4,4 -4,-100 134,-100 134,4 -4,4"/>
<!-- [Binary]\n+ -->
<g id="node1" class="node"><title>[Binary]\n+</title>
<polygon fill="none" stroke="black" points="93,-96 37,-96 37,-66 93,-66 93,-96"/>
<text text-anchor="middle" x="65" y="-84" font-family="Verdana" font-size="10.00">[Binary]</text>
<text text-anchor="middle" x="65" y="-73" font-family="Verdana" font-size="10.00">+</text>
</g>
<!-- [Literal]\n5 -->
<g id="node2" class="node"><title>[Literal]\n5</title>
<polygon fill="none" stroke="black" points="56,-30 3.55271e-015,-30 3.55271e-015,-0 56,-0 56,-30"/>
<text text-anchor="middle" x="28" y="-18" font-family="Verdana" font-size="10.00">[Literal]</text>
<text text-anchor="middle" x="28" y="-7" font-family="Verdana" font-size="10.00">5</text>
</g>
<!-- [Binary]\n+&#45;&gt;[Literal]\n5 -->
<g id="edge1" class="edge"><title>[Binary]\n+&#45;&gt;[Literal]\n5</title>
<path fill="none" stroke="black" d="M56.7885,-65.7963C52.2378,-57.9248 46.4692,-47.9467 41.2927,-38.9928"/>
<polygon fill="black" stroke="black" points="44.2237,-37.0696 36.1885,-30.164 38.1635,-40.5731 44.2237,-37.0696"/>
</g>
<!-- [Literal]\n2 -->
<g id="node3" class="node"><title>[Literal]\n2</title>
<polygon fill="none" stroke="black" points="130,-30 74,-30 74,-0 130,-0 130,-30"/>
<text text-anchor="middle" x="102" y="-18" font-family="Verdana" font-size="10.00">[Literal]</text>
<text text-anchor="middle" x="102" y="-7" font-family="Verdana" font-size="10.00">2</text>
</g>
<!-- [Binary]\n+&#45;&gt;[Literal]\n2 -->
<g id="edge2" class="edge"><title>[Binary]\n+&#45;&gt;[Literal]\n2</title>
<path fill="none" stroke="black" d="M73.2115,-65.7963C77.7622,-57.9248 83.5308,-47.9467 88.7073,-38.9928"/>
<polygon fill="black" stroke="black" points="91.8365,-40.5731 93.8115,-30.164 85.7763,-37.0696 91.8365,-40.5731"/>
</g>
</g>
</svg>
